<?xml version="1.0" encoding="UTF-8" standalone="no"?>
<!-- Generator: Adobe Illustrator 19.0.0, SVG Export Plug-In . SVG Version: 6.00 Build 0)  -->

<svg
   xmlns:dc="http://purl.org/dc/elements/1.1/"
   xmlns:cc="http://creativecommons.org/ns#"
   xmlns:rdf="http://www.w3.org/1999/02/22-rdf-syntax-ns#"
   xmlns:svg="http://www.w3.org/2000/svg"
   xmlns="http://www.w3.org/2000/svg"
   xmlns:sodipodi="http://sodipodi.sourceforge.net/DTD/sodipodi-0.dtd"
   xmlns:inkscape="http://www.inkscape.org/namespaces/inkscape"
   version="1.1"
   id="Layer_1"
   x="0px"
   y="0px"
   viewBox="0 0 512 512"
   style="enable-background:new 0 0 512 512;"
   xml:space="preserve"
   sodipodi:docname="bacteriagreen.svg"
   inkscape:version="0.92.4 (5da689c313, 2019-01-14)"><metadata
   id="metadata118"><rdf:RDF><cc:Work
       rdf:about=""><dc:format>image/svg+xml</dc:format><dc:type
         rdf:resource="http://purl.org/dc/dcmitype/StillImage" /><dc:title></dc:title></cc:Work></rdf:RDF></metadata><defs
   id="defs116" /><sodipodi:namedview
   pagecolor="#ffffff"
   bordercolor="#666666"
   borderopacity="1"
   objecttolerance="10"
   gridtolerance="10"
   guidetolerance="10"
   inkscape:pageopacity="0"
   inkscape:pageshadow="2"
   inkscape:window-width="1920"
   inkscape:window-height="1003"
   id="namedview114"
   showgrid="false"
   inkscape:zoom="0.79101563"
   inkscape:cx="256"
   inkscape:cy="259.16049"
   inkscape:window-x="-9"
   inkscape:window-y="-9"
   inkscape:window-maximized="1"
   inkscape:current-layer="Layer_1" />
<path
   style="fill:#FFD15D;"
   d="M117.824,184.162L240.121,61.863c42.541-42.541,111.514-42.541,154.054,0  c42.541,42.541,42.541,111.515,0,154.057L271.88,338.219c-42.541,42.541-111.514,42.541-154.054,0  C75.283,295.677,75.283,226.703,117.824,184.162z"
   id="path65" />
<path
   style="fill:#F56E92;"
   d="M371.068,84.971c-29.73-29.732-78.107-29.732-107.839,0l-23.108,23.108l-99.188,99.189  c-29.732,29.732-29.73,78.108,0,107.84s78.107,29.732,107.839,0L371.068,192.81C400.8,163.08,400.799,114.703,371.068,84.971z"
   id="path67" />
<g
   id="g81">
	<path
   style="fill:#3E0412;"
   d="M447.868,130.722h-13.957c-1.709-24.663-11.175-48.88-28.386-68.653l9.834-9.832   c3.191-3.191,3.191-8.364,0-11.554c-3.19-3.191-8.363-3.192-11.554-0.001l-9.83,9.829c-19.263-16.794-43.16-26.694-68.656-28.44   V8.17c0-4.513-3.658-8.17-8.17-8.17c-4.512,0-8.17,3.657-8.17,8.17v13.9c-25.496,1.746-49.393,11.645-68.656,28.44l-9.829-9.829   c-3.191-3.19-8.364-3.191-11.554,0.001c-3.191,3.191-3.191,8.364,0,11.554l9.628,9.628l-49.594,49.595l-9.628-9.628   c-3.191-3.19-8.364-3.19-11.554,0c-3.191,3.192-3.191,8.364,0,11.555l9.628,9.628l-49.596,49.595l-9.629-9.628   c-3.191-3.19-8.364-3.191-11.554,0.001c-3.191,3.191-3.191,8.364,0,11.554l9.832,9.832c-17.212,19.774-26.676,43.991-28.385,68.654   H64.133c-4.512,0-8.17,3.657-8.17,8.17s3.658,8.17,8.17,8.17h13.957c1.709,24.663,11.175,48.88,28.385,68.654l-29.09,29.09   c-10.802,10.802-16.751,25.164-16.751,40.441c0,15.275,5.949,29.638,16.751,40.44c10.802,10.801,25.164,16.75,40.44,16.75   s29.638-5.949,40.44-16.751l7.702-7.702c15.927-15.928,41.844-15.927,57.771-0.001c15.927,15.928,15.927,41.845,0,57.771   c-3.191,3.192-3.191,8.364,0,11.555c1.595,1.595,3.686,2.392,5.777,2.392s4.182-0.797,5.777-2.392   c22.298-22.299,22.298-58.581,0-80.881c-22.299-22.298-58.58-22.298-80.88,0.001l-7.702,7.702   c-7.716,7.716-17.974,11.964-28.885,11.964s-21.17-4.248-28.885-11.964c-7.716-7.715-11.964-17.973-11.964-28.885   c0-10.913,4.25-21.171,11.964-28.886l29.087-29.087c19.263,16.794,43.16,26.692,68.656,28.438v13.901c0,4.513,3.658,8.17,8.17,8.17   c4.512,0,8.17-3.657,8.17-8.17V378.01c25.496-1.745,49.393-11.644,68.656-28.438l9.829,9.829c1.595,1.595,3.686,2.392,5.777,2.392   c2.09,0,4.182-0.797,5.777-2.393c3.191-3.191,3.191-8.364,0-11.554l-9.628-9.628l49.594-49.595l9.629,9.628   c1.595,1.595,3.686,2.392,5.777,2.392c2.09,0,4.182-0.797,5.777-2.393c3.191-3.191,3.191-8.363,0-11.554l-9.628-9.628   l49.594-49.595l9.629,9.628c1.595,1.595,3.686,2.392,5.777,2.392c2.09,0,4.182-0.797,5.777-2.393c3.191-3.191,3.191-8.364,0-11.554   l-9.832-9.832c17.212-19.774,26.676-43.991,28.385-68.654h13.957c4.512,0,8.17-3.657,8.17-8.17   C456.037,134.378,452.38,130.722,447.868,130.722z M388.399,210.143L266.102,332.442c-19.032,19.032-44.335,29.514-71.251,29.514   c-26.915,0-52.219-10.482-71.25-29.514c-39.287-39.287-39.287-103.215,0-142.502L245.898,67.641   c19.028-19.029,44.324-29.509,71.234-29.515c26.943,0.004,52.24,10.485,71.267,29.515   C427.686,106.928,427.686,170.855,388.399,210.143z"
   id="path69" />
	<circle
   style="fill:#3E0412;"
   cx="332.557"
   cy="162.77"
   r="8.17"
   id="circle71" />
	<circle
   style="fill:#3E0412;"
   cx="332.557"
   cy="116.549"
   r="8.17"
   id="circle73" />
	<path
   style="fill:#3E0412;"
   d="M257.453,79.193c-3.191,3.192-3.191,8.364,0,11.555c3.191,3.19,8.364,3.19,11.554,0   c26.545-26.545,69.738-26.546,96.284-0.001c26.545,26.546,26.545,69.741,0,96.286L242.995,309.332   c-12.837,12.837-29.934,19.906-48.143,19.906s-35.306-7.069-48.142-19.906c-12.836-12.835-19.905-29.933-19.905-48.142   s7.069-35.307,19.905-48.143l99.188-99.189c3.191-3.192,3.191-8.364,0-11.555c-3.191-3.19-8.364-3.19-11.554,0l-99.188,99.189   c-15.923,15.923-24.691,37.124-24.691,59.698c0,22.575,8.768,43.775,24.691,59.696c15.922,15.923,37.123,24.692,59.696,24.692   s43.774-8.769,59.696-24.691L376.846,198.59c32.917-32.918,32.917-86.478,0-119.396C343.928,46.277,290.368,46.277,257.453,79.193z   "
   id="path75" />
	<circle
   style="fill:#3E0412;"
   cx="179.449"
   cy="237.314"
   r="8.17"
   id="circle77" />
	<path
   style="fill:#3E0412;"
   d="M237.735,214.454c-1.715,1.715-2.842,1.822-6.486,1.929c-4.451,0.131-11.179,0.329-17.558,6.707   c-3.191,3.191-3.191,8.364,0,11.554c1.596,1.596,3.686,2.393,5.778,2.393c2.09,0,4.182-0.797,5.777-2.392   c1.715-1.715,2.841-1.822,6.485-1.929c4.452-0.131,11.18-0.329,17.56-6.709c6.378-6.378,6.577-13.106,6.708-17.558   c0.108-3.644,0.215-4.77,1.93-6.486c1.715-1.714,2.841-1.821,6.484-1.929c4.451-0.131,11.179-0.329,17.558-6.707   c6.378-6.378,6.576-13.106,6.707-17.557c0.107-3.644,0.215-4.77,1.929-6.485c3.191-3.191,3.19-8.364-0.001-11.554   c-3.191-3.19-8.364-3.191-11.554,0.001c-6.378,6.378-6.576,13.106-6.707,17.557c-0.107,3.644-0.215,4.77-1.928,6.484   c-1.715,1.715-2.841,1.821-6.484,1.929c-4.452,0.131-11.18,0.329-17.559,6.708c-6.378,6.378-6.577,13.106-6.708,17.558   C239.559,211.612,239.451,212.739,237.735,214.454z"
   id="path79" />
</g>
<g
   id="g83">
</g>
<g
   id="g85">
</g>
<g
   id="g87">
</g>
<g
   id="g89">
</g>
<g
   id="g91">
</g>
<g
   id="g93">
</g>
<g
   id="g95">
</g>
<g
   id="g97">
</g>
<g
   id="g99">
</g>
<g
   id="g101">
</g>
<g
   id="g103">
</g>
<g
   id="g105">
</g>
<g
   id="g107">
</g>
<g
   id="g109">
</g>
<g
   id="g111">
</g>
<path
   style="fill:#5fd38d;stroke-width:1.26419759"
   d="m 176.98765,359.66011 c -21.26149,-4.01759 -36.6671,-12.11679 -52.21354,-27.45025 -19.98549,-19.71167 -29.682161,-42.96714 -29.668218,-71.15307 0.0087,-17.49815 2.403343,-27.54523 10.696748,-44.87901 l 6.35103,-13.27408 69.71082,-69.95494 c 38.34095,-38.475216 73.18476,-72.458024 77.43069,-75.517351 16.84535,-12.137602 35.82574,-18.241285 56.72424,-18.241285 15.60374,0 24.80251,1.588337 37.50639,6.476167 38.60687,14.854031 63.27283,51.262839 63.27283,93.395439 0,24.01422 -6.92275,43.9424 -21.60855,62.20337 -12.37804,15.39142 -136.17632,137.81811 -145.23288,143.62383 -21.86914,14.01923 -48.46139,19.40228 -72.96956,14.77118 z m 43.08101,-17.61416 c 19.93688,-6.32292 20.9461,-7.17858 93.24502,-79.05677 36.73734,-36.52355 69.23694,-69.8198 72.22132,-73.99165 11.54936,-16.1448 16.18955,-30.73767 16.06167,-50.51195 C 401.44454,114.96099 393.56546,95.740719 377.51546,79.741671 360.6204,62.900243 344.73543,55.787764 321.5568,54.686254 c -23.1914,-1.10212 -44.50646,6.081858 -59.96566,20.2107 -6.85342,6.263635 -7.09537,6.701687 -6.42541,11.633046 0.62451,4.596828 0.23807,5.595246 -3.754,9.699117 -3.99983,4.111853 -4.9843,4.517863 -9.72848,4.012163 l -5.27831,-0.562638 -55.73069,56.037218 c -52.6221,52.91154 -56.01786,56.60135 -60.87899,66.15081 -2.83156,5.56247 -5.7806,12.48732 -6.55341,15.38855 -8.20911,30.81799 -0.0264,62.24725 21.83072,83.85003 12.98769,12.83659 28.25517,20.81757 46.03284,24.06339 10.0157,1.82865 27.8606,0.39849 38.96325,-3.12269 z"
   id="path3823"
   inkscape:connector-curvature="0" /><path
   style="fill:#d7f4d7;stroke-width:1.26419759"
   d="m 182.04444,327.39934 c -34.74477,-6.97398 -58.99665,-40.50654 -54.01502,-74.68544 1.58526,-10.87645 5.07295,-20.22009 10.80649,-28.95094 2.05475,-3.12889 27.63238,-29.67299 56.83919,-58.98691 l 53.1033,-53.29802 -0.6771,-5.04812 c -0.61078,-4.55368 -0.2241,-5.49046 3.9478,-9.564215 4.00082,-3.906701 5.21913,-4.421783 9.02864,-3.817189 3.83576,0.60876 5.38205,-0.06478 11.98893,-5.222162 14.68534,-11.463515 27.48017,-16.031942 44.65549,-15.944358 13.47324,0.06871 24.63538,3.275124 35.08014,10.077069 23.78091,15.486853 35.82101,42.812035 30.45256,69.112545 -4.34931,21.30772 -2.3957,18.94734 -79.68547,96.27656 -60.81468,60.84571 -70.69773,70.22813 -77.5811,73.65115 -13.75454,6.83999 -29.97933,9.20298 -43.94385,6.40003 z m 3.47655,-84.38678 c 3.23042,-2.8367 2.89108,-9.78144 -0.59734,-12.22483 -6.18464,-4.33189 -13.64066,-0.973 -13.60553,6.1292 0.0423,8.54937 7.67704,11.82608 14.20287,6.09563 z m 38.38983,-7.16925 c 1.43371,-1.00422 5.68474,-2.21294 9.44673,-2.68607 13.90283,-1.7485 21.19175,-8.93367 22.78694,-22.46258 0.4861,-4.12277 1.57865,-7.92538 2.42785,-8.45021 0.84921,-0.52484 4.45784,-1.33684 8.01917,-1.80444 13.18098,-1.73064 22.27763,-10.98051 22.27763,-22.65288 0,-2.59779 1.19303,-6.82706 2.65119,-9.3984 3.31316,-5.84243 1.90917,-10.67255 -3.66728,-12.61651 -7.53017,-2.62503 -13.48923,3.57149 -15.51168,16.12977 -0.72273,4.4877 -1.9204,8.89007 -2.66151,9.78305 -0.74111,0.89298 -3.69559,1.6361 -6.56551,1.65137 -12.68187,0.0675 -21.93717,8.59328 -23.47354,21.62337 -1.06455,9.02852 -3.12474,11.218 -10.55558,11.218 -8.84281,0 -18.59634,6.7501 -18.59634,12.86992 0,3.06855 5.48152,8.62144 8.51063,8.62144 1.26751,0 3.4776,-0.82163 4.9113,-1.82583 z m 112.13278,-65.3659 c 3.74189,-1.96957 4.61552,-3.52771 4.63828,-8.27239 0.0212,-4.41819 -3.63386,-7.97292 -8.19793,-7.97292 -8.03974,0 -11.29296,10.03913 -4.8863,15.07861 3.84824,3.02703 4.69055,3.14339 8.44595,1.1667 z m 1.84794,-47.28984 c 1.95884,-1.37202 2.80969,-3.25884 2.80969,-6.23068 0,-7.51384 -6.81939,-11.50134 -12.47784,-7.29617 -9.36199,6.95752 0.11555,20.21773 9.66815,13.52685 z"
   id="path3825"
   inkscape:connector-curvature="0" /><path
   style="fill:#217844;stroke-width:1.26419759"
   d="m 228.18765,511.0321 c -3.25313,-1.07431 -6.32098,-4.37934 -6.32098,-6.80967 0,-1.2809 2.46896,-5.68276 5.48659,-9.78192 6.89443,-9.36541 8.928,-16.41946 8.15077,-28.27335 -0.7604,-11.59719 -4.86065,-19.99161 -13.60506,-27.85359 -7.95657,-7.15364 -16.72018,-10.34687 -27.99213,-10.19959 -11.75646,0.1536 -19.92621,4.20883 -32.87455,16.31799 -13.92915,13.02638 -24.71921,18.28181 -39.41759,19.19882 -17.04993,1.0637 -30.215351,-3.76048 -42.66201,-15.63259 -18.682938,-17.8205 -22.808369,-43.63047 -10.763435,-67.33941 2.303704,-4.53455 9.38739,-12.86498 21.152265,-24.87514 l 17.68862,-18.05738 -5.16311,-6.53181 C 91.386385,317.93544 81.449047,293.69828 79.526611,276.70619 l -0.840849,-7.43212 h -8.111456 c -6.926566,0 -8.564734,-0.45327 -11.214485,-3.10303 -3.676969,-3.67697 -3.879175,-5.80427 -0.890685,-9.37044 1.786589,-2.13193 3.899652,-2.70628 10.980051,-2.98449 l 8.767705,-0.34451 1.684788,-10.11358 c 3.193409,-19.16965 10.269143,-36.19726 21.21004,-51.04148 l 5.93969,-8.05878 -5.80225,-5.89082 c -4.308555,-4.37433 -5.802246,-6.87226 -5.802246,-9.7032 0,-8.88951 8.003906,-9.46146 16.418656,-1.17324 l 5.75982,5.67321 25.22663,-25.2503 25.22662,-25.25029 -5.97512,-6.06634 c -6.54799,-6.64796 -7.41684,-10.22667 -3.44673,-14.19678 3.86359,-3.863587 7.10528,-3.078609 14.02816,3.39693 l 6.33465,5.92532 25.16249,-25.138893 25.16249,-25.138898 -6.26736,-6.626801 c -6.80802,-7.198477 -7.27019,-8.576393 -4.29937,-12.817848 3.23061,-4.612322 8.05694,-3.651765 14.46659,2.879202 3.07078,3.128889 6.03207,5.688889 6.58066,5.688889 0.54858,0 4.55459,-2.64371 8.90221,-5.874911 14.13992,-10.508928 35.7311,-19.150463 53.34738,-21.351472 l 7.02161,-0.877293 V 14.53266 c 0,-9.2464599 2.54632,-13.58451172 7.97373,-13.58451172 5.91889,0 7.19664,2.21593802 7.19664,12.48072072 0,9.146913 0.0619,9.326687 3.21379,9.326687 6.03122,0 22.68513,4.009076 32.7415,7.881828 5.52157,2.126385 15.39804,7.499428 21.94771,11.940095 l 11.90846,8.073942 6.12653,-5.73065 c 6.51643,-6.09536 10.87441,-7.231462 14.36183,-3.744051 3.63139,3.631396 2.40512,8.247325 -3.88851,14.637035 l -5.87512,5.9648 5.96612,7.984796 c 3.28135,4.391639 8.2159,12.608841 10.96565,18.260451 5.19088,10.668884 11.25302,31.781118 11.25302,39.190148 v 4.26259 h 8.84939 c 7.16379,0 9.33098,0.4816 11.37777,2.5284 3.32453,3.32452 3.19625,6.51704 -0.39752,9.89322 -2.40178,2.25635 -4.43998,2.74875 -11.37778,2.74875 -8.20989,0 -8.45186,0.092 -8.45186,3.2138 0,6.33691 -4.09295,22.85164 -8.16827,32.95823 -3.57315,8.86129 -9.81214,19.51376 -17.91242,30.58373 -2.08278,2.84636 -1.99584,3.05213 3.757,8.8928 6.43607,6.53432 7.52719,10.97098 3.57724,14.54563 -3.71428,3.36137 -6.90582,2.46866 -12.85848,-3.59666 -3.07078,-3.12888 -6.18136,-5.68888 -6.91241,-5.68888 -0.73106,0 -12.38117,11.06287 -25.88913,24.58417 l -24.55994,24.5842 5.92518,6.33449 c 6.41344,6.85647 7.44716,10.99456 3.6133,14.46416 -3.9658,3.58901 -7.90464,2.52789 -14.41328,-3.88289 l -6.06634,-5.97512 -25.21234,25.18869 -25.21234,25.1887 6.26736,6.62681 c 3.44703,3.64473 6.26734,7.54004 6.26734,8.65622 0,2.62602 -5.60948,8.2355 -8.2355,8.2355 -1.11618,0 -5.01767,-2.82616 -8.66998,-6.28035 l -6.64055,-6.28036 -7.506,5.63817 c -14.82612,11.13673 -35.63298,19.69392 -53.0171,21.80422 l -7.58519,0.92079 -0.33034,6.32099 c -0.60951,11.6623 -2.81378,15.80247 -8.4134,15.80247 -5.02989,0 -7.05873,-3.74611 -7.05873,-13.03348 0,-9.40797 0.73194,-8.77537 -12.00987,-10.38013 -15.54796,-1.95819 -37.80379,-11.62753 -51.27839,-22.2786 l -6.64039,-5.24892 -17.2586,17.56934 c -21.024144,21.40266 -23.354069,25.48091 -23.398902,40.95697 -0.02609,9.00925 0.502633,11.86926 3.271968,17.69877 3.979622,8.37719 10.912538,15.5143 19.452459,20.02539 5.474565,2.89187 7.844545,3.33969 17.698765,3.34424 14.77464,0.006 19.39533,-2.13037 34.13905,-15.79013 12.90558,-11.95678 22.02042,-16.87436 35.08619,-18.92948 24.00348,-3.77551 48.66519,9.70839 59.46824,32.51451 3.8269,8.0789 4.04726,9.33927 4.04726,23.14795 0,14.35415 -0.081,14.76482 -4.73557,24.01975 -6.65712,13.23661 -12.70728,19.47524 -17.38789,17.9295 z m -9.47278,-151.42329 c 9.96039,-2.59435 20.65058,-6.99942 29.42029,-12.12312 9.91287,-5.79158 144.63109,-139.64174 152.71149,-151.72748 11.68437,-17.47614 16.96109,-35.137 16.93983,-56.69648 -0.0273,-27.66294 -8.3454,-49.218096 -26.48545,-68.633134 C 376.46894,54.554016 360.555,45.2576 339.70158,40.28584 c -9.07262,-2.163047 -13.67994,-2.516002 -26.18059,-2.005629 -8.34371,0.340653 -18.58371,1.552791 -22.75556,2.69364 -11.98947,3.278678 -26.9971,11.067566 -37.29383,19.35532 C 241.04057,70.334803 117.27607,194.81002 112.018,202.59506 c -19.2613,28.5181 -23.349376,65.16138 -10.80428,96.84375 12.86542,32.49137 43.54904,56.57303 78.98415,61.98974 10.30483,1.57521 28.84599,0.69924 38.517,-1.81974 z"
   id="path3827"
   inkscape:connector-curvature="0" /><path
   style="fill:#217844;stroke-width:1.26419759"
   d="m 180.2432,343.75141 c -36.47818,-7.15688 -63.36014,-35.41945 -68.34952,-71.85984 -2.3499,-17.16273 0.61787,-33.32173 9.18761,-50.0249 4.8782,-9.50803 8.48187,-13.42522 60.1859,-65.42223 48.9463,-49.22363 55.42897,-55.30864 58.92319,-55.30864 4.95432,0 6.96024,1.98729 6.96024,6.89559 0,3.40206 -6.24864,10.10319 -52.51708,56.32 -28.8844,28.85216 -54.46142,55.36471 -56.83782,58.91678 -11.05478,16.52378 -14.31983,41.03135 -7.91868,59.43785 8.13005,23.37796 27.16652,40.33372 50.90321,45.33943 16.44927,3.4689 28.54398,1.87394 44.87901,-5.91834 10.71631,-5.11198 10.92761,-5.30778 77.32585,-71.65618 46.91855,-46.88332 68.11037,-68.92989 71.76187,-74.65629 7.28484,-11.42432 10.4176,-22.17586 10.5248,-36.12081 0.15001,-19.51274 -6.53666,-35.98227 -20.02989,-49.334437 -13.36198,-13.222269 -28.89864,-19.564331 -47.92831,-19.564331 -17.16195,0 -31.97619,5.37823 -45.42417,16.491 -3.32813,2.750196 -7.32325,5.000358 -8.87804,5.000358 -3.67592,0 -7.01137,-3.759491 -7.01137,-7.902743 0,-7.264856 23.40803,-22.427349 41.68591,-27.001944 11.17173,-2.796063 34.06543,-1.871063 45.54372,1.840155 11.72194,3.789993 23.17227,10.933229 32.77126,20.444189 16.11833,15.970536 24.31183,35.438633 24.46569,58.131453 0.10556,15.56944 -2.10449,25.49122 -8.66871,38.91739 -5.7657,11.79294 -18.37651,25.43598 -80.3654,86.94353 -63.94438,63.44783 -67.33432,66.52714 -79.86207,72.54378 -16.27292,7.81532 -35.53259,10.64802 -51.3272,7.54918 z"
   id="path3829"
   inkscape:connector-curvature="0" /><path
   style="fill:#217844;stroke-width:1.26419759"
   d="m 214.28148,233.87654 c -1.39062,-1.39061 -2.52839,-3.72237 -2.52839,-5.18168 0,-3.62759 6.88371,-9.77342 11.78438,-10.5212 15.9334,-2.43121 15.3616,-1.99358 17.15502,-13.12971 0.69856,-4.33764 2.48532,-9.59324 3.97058,-11.67909 3.47422,-4.8791 11.18535,-8.79202 17.32626,-8.79202 7.20079,0 9.94561,-2.54764 10.83493,-10.05655 0.94939,-8.01613 4.12843,-14.81617 8.16224,-17.45922 2.74981,-1.80174 3.49505,-1.82783 6.32318,-0.22137 5.5933,3.17715 6.19503,5.45525 3.08552,11.68144 -1.53464,3.07283 -2.79026,7.68623 -2.79026,10.25201 0,11.24769 -11.04815,20.97406 -23.82436,20.97406 -6.2023,0 -7.31677,1.38176 -8.44099,10.46547 -1.59806,12.91239 -9.2035,20.41356 -22.1866,21.88243 -4.09815,0.46365 -8.09931,1.62394 -8.89145,2.57842 -2.09206,2.52078 -7.06112,2.12595 -9.98006,-0.79299 z"
   id="path3831"
   inkscape:connector-curvature="0" /><path
   style="fill:#217844;stroke-width:1.26419759"
   d="m 328.34055,168.69869 c -3.69494,-2.58804 -3.92172,-9.9899 -0.3644,-11.89372 8.64267,-4.62541 16.46461,5.48837 8.95046,11.57296 -3.45753,2.79974 -4.96634,2.8561 -8.58606,0.32076 z"
   id="path3833"
   inkscape:connector-curvature="0" /><path
   style="fill:#217844;stroke-width:1.26419759"
   d="m 327.51746,121.90476 c -4.24454,-4.24454 -0.78126,-13.18377 5.10773,-13.18377 3.10788,0 7.1279,4.62189 7.1279,8.19508 0,6.15832 -7.86095,9.36337 -12.23563,4.98869 z"
   id="path3835"
   inkscape:connector-curvature="0" /><path
   style="fill:#217844;stroke-width:1.26419759"
   d="m 175.37265,243.28634 c -3.13274,-2.19426 -3.8948,-9.0832 -1.29265,-11.68535 1.8637,-1.8637 6.66292,-1.96426 9.94385,-0.20836 3.55732,1.90381 3.33054,9.30567 -0.3644,11.89371 -3.51658,2.46311 -4.77022,2.46311 -8.2868,0 z"
   id="path3837"
   inkscape:connector-curvature="0" /></svg>