<?xml version="1.0" encoding="UTF-8" standalone="no"?>
<!-- Generator: Adobe Illustrator 19.0.0, SVG Export Plug-In . SVG Version: 6.00 Build 0)  -->

<svg
   xmlns:dc="http://purl.org/dc/elements/1.1/"
   xmlns:cc="http://creativecommons.org/ns#"
   xmlns:rdf="http://www.w3.org/1999/02/22-rdf-syntax-ns#"
   xmlns:svg="http://www.w3.org/2000/svg"
   xmlns="http://www.w3.org/2000/svg"
   xmlns:sodipodi="http://sodipodi.sourceforge.net/DTD/sodipodi-0.dtd"
   xmlns:inkscape="http://www.inkscape.org/namespaces/inkscape"
   version="1.1"
   id="Layer_1"
   x="0px"
   y="0px"
   viewBox="0 0 512 512"
   style="enable-background:new 0 0 512 512;"
   xml:space="preserve"
   sodipodi:docname="bacteriagreen.svg"
   inkscape:version="0.92.4 (5da689c313, 2019-01-14)"><metadata
   id="metadata118"><rdf:RDF><cc:Work
       rdf:about=""><dc:format>image/svg+xml</dc:format><dc:type
         rdf:resource="http://purl.org/dc/dcmitype/StillImage" /><dc:title></dc:title></cc:Work></rdf:RDF></metadata><defs
   id="defs116" /><sodipodi:namedview
   pagecolor="#ffffff"
   bordercolor="#666666"
   borderopacity="1"
   objecttolerance="10"
   gridtolerance="10"
   guidetolerance="10"
   inkscape:pageopacity="0"
   inkscape:pageshadow="2"
   inkscape:window-width="1920"
   inkscape:window-height="1003"
   id="namedview114"
   showgrid="false"
   inkscape:zoom="0.79101563"
   inkscape:cx="37.293829"
   inkscape:cy="259.16049"
   inkscape:window-x="-9"
   inkscape:window-y="-9"
   inkscape:window-maximized="1"
   inkscape:current-layer="Layer_1" />



<g
   id="g83">
</g>
<g
   id="g85">
</g>
<g
   id="g87">
</g>
<g
   id="g89">
</g>
<g
   id="g91">
</g>
<g
   id="g93">
</g>
<g
   id="g95">
</g>
<g
   id="g97">
</g>
<g
   id="g99">
</g>
<g
   id="g101">
</g>
<g
   id="g103">
</g>
<g
   id="g105">
</g>
<g
   id="g107">
</g>
<g
   id="g109">
</g>
<g
   id="g111">
</g>
<path
   style="fill:#5fd38d;stroke-width:1.26419759"
   d="m 187.47185,359.92925 c -21.26149,-4.01759 -36.6671,-12.11679 -52.21354,-27.45025 -19.98549,-19.71167 -29.68216,-42.96714 -29.66822,-71.15307 0.009,-17.49815 2.40334,-27.54523 10.69675,-44.87901 l 6.35103,-13.27408 69.71082,-69.95494 c 38.34095,-38.475213 73.18476,-72.458021 77.43069,-75.517348 16.84535,-12.137602 35.82574,-18.241285 56.72424,-18.241285 15.60374,0 24.80251,1.588337 37.50639,6.476167 38.60687,14.854031 63.27283,51.262836 63.27283,93.395436 0,24.01422 -6.92275,43.9424 -21.60855,62.20337 -12.37804,15.39142 -136.17632,137.81811 -145.23288,143.62383 -21.86914,14.01923 -48.46139,19.40228 -72.96956,14.77118 z m 43.08101,-17.61416 c 19.93688,-6.32292 20.9461,-7.17858 93.24502,-79.05677 36.73734,-36.52355 69.23694,-69.8198 72.22132,-73.99165 11.54936,-16.1448 16.18955,-30.73767 16.06167,-50.51195 C 411.92874,115.23013 404.04966,96.00986 387.99966,80.010814 371.1046,63.169386 355.21963,56.056907 332.041,54.955397 c -23.1914,-1.10212 -44.50646,6.081858 -59.96566,20.2107 -6.85342,6.263635 -7.09537,6.701687 -6.42541,11.633046 0.62451,4.596828 0.23807,5.595246 -3.754,9.699117 -3.99983,4.11185 -4.9843,4.51786 -9.72848,4.01216 l -5.27831,-0.56264 -55.73069,56.03722 c -52.6221,52.91154 -56.01786,56.60135 -60.87899,66.15081 -2.83156,5.56247 -5.7806,12.48732 -6.55341,15.38855 -8.20911,30.81799 -0.0264,62.24725 21.83072,83.85003 12.98769,12.83659 28.25517,20.81757 46.03284,24.06339 10.0157,1.82865 27.8606,0.39849 38.96325,-3.12269 z"
   id="path3823"
   inkscape:connector-curvature="0" /><path
   style="fill:#d7f4d7;stroke-width:1.26419759"
   d="m 192.49313,327.70424 c -34.74477,-6.97398 -58.99665,-40.50654 -54.01502,-74.68544 1.58526,-10.87645 5.07295,-20.22009 10.80649,-28.95094 2.05475,-3.12889 27.63238,-29.67299 56.83919,-58.98691 l 53.1033,-53.29802 -0.6771,-5.04812 c -0.61078,-4.55368 -0.2241,-5.49046 3.9478,-9.56422 4.00082,-3.9067 5.21913,-4.42178 9.02864,-3.81719 3.83576,0.60876 5.38205,-0.0648 11.98893,-5.22216 14.68534,-11.463516 27.48017,-16.031943 44.65549,-15.944359 13.47324,0.06871 24.63538,3.275124 35.08014,10.077069 23.78091,15.48685 35.82101,42.81204 30.45256,69.11255 -4.34931,21.30772 -2.3957,18.94734 -79.68547,96.27656 -60.81468,60.84571 -70.69773,70.22813 -77.5811,73.65115 -13.75454,6.83999 -29.97933,9.20298 -43.94385,6.40003 z m 3.47655,-84.38678 c 3.23042,-2.8367 2.89108,-9.78144 -0.59734,-12.22483 -6.18464,-4.33189 -13.64066,-0.973 -13.60553,6.1292 0.0423,8.54937 7.67704,11.82608 14.20287,6.09563 z m 38.38983,-7.16925 c 1.43371,-1.00422 5.68474,-2.21294 9.44673,-2.68607 13.90283,-1.7485 21.19175,-8.93367 22.78694,-22.46258 0.4861,-4.12277 1.57865,-7.92538 2.42785,-8.45021 0.84921,-0.52484 4.45784,-1.33684 8.01917,-1.80444 13.18098,-1.73064 22.27763,-10.98051 22.27763,-22.65288 0,-2.59779 1.19303,-6.82706 2.65119,-9.3984 3.31316,-5.84243 1.90917,-10.67255 -3.66728,-12.61651 -7.53017,-2.62503 -13.48923,3.57149 -15.51168,16.12977 -0.72273,4.4877 -1.9204,8.89007 -2.66151,9.78305 -0.74111,0.89298 -3.69559,1.6361 -6.56551,1.65137 -12.68187,0.0675 -21.93717,8.59328 -23.47354,21.62337 -1.06455,9.02852 -3.12474,11.218 -10.55558,11.218 -8.84281,0 -18.59634,6.7501 -18.59634,12.86992 0,3.06855 5.48152,8.62144 8.51063,8.62144 1.26751,0 3.4776,-0.82163 4.9113,-1.82583 z m 112.13278,-65.3659 c 3.74189,-1.96957 4.61552,-3.52771 4.63828,-8.27239 0.0212,-4.41819 -3.63386,-7.97292 -8.19793,-7.97292 -8.03974,0 -11.29296,10.03913 -4.8863,15.07861 3.84824,3.02703 4.69055,3.14339 8.44595,1.1667 z m 1.84794,-47.28984 c 1.95884,-1.37202 2.80969,-3.25884 2.80969,-6.23068 0,-7.51384 -6.81939,-11.50134 -12.47784,-7.29617 -9.36199,6.95752 0.11555,20.21773 9.66815,13.52685 z"
   id="path3825"
   inkscape:connector-curvature="0" /><path
   style="fill:#009688;stroke-width:1.26419759;fill-opacity:0.80392158"
   d="m 190.32123,344.02308 c -36.47818,-7.15688 -63.36014,-35.41945 -68.34952,-71.85984 -2.3499,-17.16273 0.61787,-33.32173 9.18761,-50.0249 4.8782,-9.50803 8.48187,-13.42522 60.1859,-65.42223 48.9463,-49.22363 55.42897,-55.30864 58.92319,-55.30864 4.95432,0 6.96024,1.98729 6.96024,6.89559 0,3.40206 -6.24864,10.10319 -52.51708,56.32 -28.8844,28.85216 -54.46142,55.36471 -56.83782,58.91678 -11.05478,16.52378 -14.31983,41.03135 -7.91868,59.43785 8.13005,23.37796 27.16652,40.33372 50.90321,45.33943 16.44927,3.4689 28.54398,1.87394 44.87901,-5.91834 10.71631,-5.11198 10.92761,-5.30778 77.32585,-71.65618 46.91855,-46.88332 68.11037,-68.92989 71.76187,-74.65629 7.28484,-11.42432 10.4176,-22.17586 10.5248,-36.12081 0.15001,-19.51274 -6.53666,-35.98227 -20.02989,-49.334437 -13.36198,-13.222269 -28.89864,-19.564331 -47.92831,-19.564331 -17.16195,0 -31.97619,5.37823 -45.42417,16.491 -3.32813,2.750196 -7.32325,5.000358 -8.87804,5.000358 -3.67592,0 -7.01137,-3.759491 -7.01137,-7.902743 0,-7.264856 23.40803,-22.427349 41.68591,-27.001944 11.17173,-2.796063 34.06543,-1.871063 45.54372,1.840155 11.72194,3.789993 23.17227,10.933229 32.77126,20.444189 16.11833,15.970533 24.31183,35.438633 24.46569,58.131453 0.10556,15.56944 -2.10449,25.49122 -8.66871,38.91739 -5.7657,11.79294 -18.37651,25.43598 -80.3654,86.94353 -63.94438,63.44783 -67.33432,66.52714 -79.86207,72.54378 -16.27292,7.81532 -35.53259,10.64802 -51.3272,7.54918 z"
   id="path3829"
   inkscape:connector-curvature="0" /><path
   style="fill:#009688;fill-opacity:0.61176471;stroke-width:1.26419759"
   d="m 224.35951,234.14821 c -1.39062,-1.39061 -2.52839,-3.72237 -2.52839,-5.18168 0,-3.62759 6.88371,-9.77342 11.78438,-10.5212 15.9334,-2.43121 15.3616,-1.99358 17.15502,-13.12971 0.69856,-4.33764 2.48532,-9.59324 3.97058,-11.67909 3.47422,-4.8791 11.18535,-8.79202 17.32626,-8.79202 7.20079,0 9.94561,-2.54764 10.83493,-10.05655 0.94939,-8.01613 4.12843,-14.81617 8.16224,-17.45922 2.74981,-1.80174 3.49505,-1.82783 6.32318,-0.22137 5.5933,3.17715 6.19503,5.45525 3.08552,11.68144 -1.53464,3.07283 -2.79026,7.68623 -2.79026,10.25201 0,11.24769 -11.04815,20.97406 -23.82436,20.97406 -6.2023,0 -7.31677,1.38176 -8.44099,10.46547 -1.59806,12.91239 -9.2035,20.41356 -22.1866,21.88243 -4.09815,0.46365 -8.09931,1.62394 -8.89145,2.57842 -2.09206,2.52078 -7.06112,2.12595 -9.98006,-0.79299 z"
   id="path3831"
   inkscape:connector-curvature="0" /><path
   style="fill:#217844;stroke-width:1.26419759"
   d="m 340.41858,168.97036 c -3.69494,-2.58804 -3.92172,-9.9899 -0.3644,-11.89372 8.64267,-4.62541 16.46461,5.48837 8.95046,11.57296 -3.45753,2.79974 -4.96634,2.8561 -8.58606,0.32076 z"
   id="path3833"
   inkscape:connector-curvature="0" /><path
   style="fill:#217844;stroke-width:1.26419759"
   d="m 339.59549,122.17643 c -4.24454,-4.24454 -0.78126,-13.18377 5.10773,-13.18377 3.10788,0 7.1279,4.62189 7.1279,8.19508 0,6.15832 -7.86095,9.36337 -12.23563,4.98869 z"
   id="path3835"
   inkscape:connector-curvature="0" /><path
   style="fill:#217844;stroke-width:1.26419759"
   d="m 187.45068,243.55801 c -3.13274,-2.19426 -3.8948,-9.0832 -1.29265,-11.68535 1.8637,-1.8637 6.66292,-1.96426 9.94385,-0.20836 3.55732,1.90381 3.33054,9.30567 -0.3644,11.89371 -3.51658,2.46311 -4.77022,2.46311 -8.2868,0 z"
   id="path3837"
   inkscape:connector-curvature="0" /><path
   style="fill:#009688;stroke-width:1.26419747;fill-opacity:0.80392158"
   d="m 235.45572,509.02506 -2.9074,-3.09478 3.63519,-5.85955 c 9.49113,-15.29878 9.7535,-15.9586 10.33411,-25.98819 0.78088,-13.48921 -2.0285,-22.05249 -10.15018,-30.93891 -8.76462,-9.58989 -17.44808,-13.58049 -29.85436,-13.71994 -12.54247,-0.14099 -19.57425,3.12335 -34.96106,16.22991 -6.25778,5.3304 -15.0636,11.51481 -19.56848,13.74314 -7.84453,3.88026 -8.83298,4.0515 -23.38766,4.0515 -13.89627,0 -15.82509,-0.29431 -22.53601,-3.43862 -8.93835,-4.18793 -22.00904,-16.43797 -26.6631,-24.98901 -5.27625,-9.6942 -7.5128,-22.52414 -5.82647,-33.42336 1.55953,-10.0797 5.802,-20.29677 11.0258,-26.55328 1.93539,-2.318 10.25004,-11.36791 18.477,-20.11091 l 14.95813,-15.89637 -5.64364,-7.95719 c -7.11298,-10.02888 -12.28608,-20.37751 -16.51787,-33.04349 -2.66825,-7.98625 -5.79845,-22.05202 -5.84889,-26.28247 -0.005,-0.44048 -3.78398,-1.04121 -8.39716,-1.33496 -7.23974,-0.46099 -8.79739,-1.01048 -11.38194,-4.01519 -5.42271,-6.30428 -0.0468,-10.91564 12.72531,-10.91564 h 6.69734 l 1.56784,-9.71894 c 3.0391,-18.8393 9.29935,-34.25683 20.5262,-50.5513 l 6.24937,-9.07024 -5.8763,-7.21451 c -4.7949,-5.88685 -5.72399,-7.82136 -5.04864,-10.51215 1.70178,-6.78044 6.95905,-6.41909 15.9077,1.0934 l 5.79903,4.86835 25.0378,-25.06131 25.0378,-25.0613 -5.23683,-6.21057 c -5.31203,-6.29976 -6.59593,-11.13615 -3.71979,-14.0123 2.8384,-2.8384 7.55145,-1.56903 13.89549,3.7425 l 6.28193,5.25953 25.12505,-25.101484 25.12504,-25.101484 -5.63153,-6.591776 C 228.58801,49.084692 227.80982,45.9018 231.38489,42.6664 c 3.34487,-3.027059 4.41629,-2.710137 12.15933,3.596657 3.84143,3.128889 7.26095,5.688889 7.59892,5.688889 0.33797,0 5.74872,-3.371316 12.02388,-7.491814 15.20831,-9.9863 32.71585,-16.599697 52.01641,-19.648962 l 4.56968,-0.721956 0.66248,-8.253153 c 0.72556,-9.0388933 3.22289,-13.1878181 7.93806,-13.1878181 4.31976,0 5.93197,3.0466244 6.60736,12.4861011 l 0.61937,8.656582 9.00804,1.585218 c 10.03328,1.765636 27.20964,6.873826 33.02779,9.822351 2.08593,1.057105 9.04091,5.308568 15.45551,9.447693 l 11.66293,7.525683 5.40374,-4.367537 c 7.7765,-6.285289 10.63097,-7.566206 13.4723,-6.045567 5.31494,2.844471 4.65828,6.718893 -2.63882,15.569346 l -4.95375,6.008265 7.00755,10.531699 c 3.85416,5.792434 8.46125,13.818774 10.238,17.83631 3.99202,9.026663 8.87103,25.723553 10.03924,34.356183 l 0.8761,6.47406 8.9983,0.64381 c 7.23945,0.51798 9.43324,1.18094 11.2234,3.3917 4.79687,5.92387 -1.99736,11.46082 -14.06327,11.46082 h -5.91382 l -1.54844,8.53333 c -3.58247,19.74258 -9.79345,35.01315 -21.24587,52.236 l -5.72883,8.61537 5.05393,6.07802 c 6.21831,7.47833 7.36676,10.81715 4.65393,13.52999 -3.28776,3.28775 -7.43692,2.36136 -13.55875,-3.02728 -3.15965,-2.78123 -6.23189,-5.05679 -6.82718,-5.05679 -0.5953,0 -12.14539,11.07394 -25.66685,24.60877 l -24.5845,24.60875 2.65648,2.88754 c 8.71086,9.4685 10.59619,16.35815 4.99786,18.26388 -4.09937,1.39546 -5.95265,0.67407 -12.62975,-4.91609 l -6.12921,-5.13145 -25.08078,25.05727 -25.08078,25.05725 6.2871,7.52425 c 5.71814,6.84332 6.13165,7.75838 4.56918,10.11158 -0.94486,1.42305 -2.88225,3.36043 -4.30529,4.30529 -2.35459,1.5634 -3.27904,1.13998 -10.27624,-4.70674 l -7.68889,-6.42469 -7.96195,5.83174 c -14.7151,10.77809 -35.94794,19.33093 -53.40455,21.512 l -7.02161,0.87729 -0.008,5.22717 c -0.0155,11.53488 -4.23908,18.46721 -10.11493,16.60229 -2.83817,-0.90081 -5.031,-7.62533 -5.04133,-15.45967 -0.008,-5.99212 1.37778,-5.23362 -15.80953,-8.65383 -15.97691,-3.17935 -33.09485,-10.94209 -47.72128,-21.64093 -3.30152,-2.41498 -6.44301,-4.20091 -6.98109,-3.96874 -2.90456,1.25326 -33.32199,34.38001 -36.4413,39.68718 -3.35558,5.71007 -3.67061,7.27666 -3.67061,18.25594 0,10.55951 0.40464,12.77322 3.35062,18.33086 4.02298,7.58942 11.03659,14.83745 18.77284,19.40026 5.15061,3.03782 6.88506,3.35171 18.33086,3.31736 15.28932,-0.0459 17.77954,-1.14923 33.93165,-15.03407 13.51886,-11.62122 19.35137,-15.15958 29.22779,-17.73139 14.37685,-3.74371 29.76873,-1.58505 42.68956,5.98705 7.98373,4.67878 18.21439,16.1354 22.50184,25.19826 3.49346,7.38451 3.75588,8.96482 3.7568,22.62354 9.8e-4,14.31166 -0.11365,14.9136 -4.51403,23.70948 -5.11906,10.23241 -11.66541,17.86284 -15.32498,17.86284 -1.36115,0 -3.78314,-1.39265 -5.38221,-3.09478 z M 221.08029,362.83687 c 10.63217,-1.47497 28.59936,-7.8196 36.7946,-12.99302 13.89926,-8.77422 149.48007,-144.17328 156.85135,-156.64112 9.88869,-16.72576 14.03446,-32.34175 14.06803,-52.99035 0.0501,-30.80322 -9.41297,-52.553013 -32.28461,-74.202929 -12.61942,-11.94533 -27.51411,-20.04312 -44.8095,-24.361565 -9.29435,-2.320686 -13.05071,-2.585301 -27.81234,-1.959226 -10.23458,0.434071 -19.85011,1.56526 -24.01975,2.825726 -11.46849,3.466874 -28.27433,12.871547 -38.13325,21.339642 -5.10078,4.381214 -38.04039,36.926232 -73.19912,72.322262 -70.23257,70.7066 -71.22454,71.89649 -78.61857,94.3054 -3.30482,10.01585 -3.95047,14.13601 -4.41383,28.16655 -1.03572,31.36195 7.05998,53.17191 27.49069,74.06045 24.08235,24.622 54.00439,34.85625 88.0863,30.12818 z"
   id="path82"
   inkscape:connector-curvature="0" /><path
   style="fill:#009688;stroke-width:1.26419747;fill-opacity:0"
   d="m 226.05064,507.64383 -3.55187,-3.10029 2.40435,-4.173 c 10.84274,-18.81875 11.15576,-19.7788 10.64675,-32.65644 -0.54518,-13.79305 -2.96073,-19.2728 -12.63415,-28.66103 -8.34208,-8.09612 -16.05376,-11.11289 -28.2293,-11.04313 -12.28332,0.0704 -17.54723,2.45356 -33.76698,15.28769 -6.01459,4.75915 -14.22429,10.6441 -18.24378,13.07768 L 135.3675,460.8 h -17.74795 c -21.514691,0 -24.158412,-1.06921 -38.730969,-15.66402 -10.91446,-10.93114 -14.751727,-18.87939 -15.934686,-33.00601 -1.647096,-19.66925 3.832969,-31.00455 26.80796,-55.45118 9.38456,-9.98569 17.062835,-18.55888 17.062835,-19.05155 0,-0.49267 -3.10036,-5.60823 -6.8897,-11.36793 -10.022589,-15.23409 -15.681555,-30.23893 -20.371654,-54.01581 -0.456133,-2.31241 -1.720216,-2.85246 -8.444943,-3.60787 -7.929545,-0.89075 -13.597404,-4.12957 -13.597404,-7.77006 0,-2.8782 5.612387,-5.46237 13.699036,-6.30759 6.609424,-0.69082 7.921207,-1.2356 8.382137,-3.48108 0.300545,-1.46414 1.364672,-6.92875 2.364724,-12.14356 2.648052,-13.80838 8.587582,-28.09258 17.245485,-41.47433 4.186779,-6.47112 7.612319,-12.2403 7.612319,-12.82038 0,-0.58007 -2.27555,-3.80842 -5.05679,-7.1741 -2.781232,-3.36568 -5.056788,-7.07886 -5.056788,-8.25153 0,-6.80929 4.613658,-8.01734 11.506878,-3.01299 2.36257,1.7152 5.61871,4.08443 7.23585,5.26496 2.93018,2.13909 3.02436,2.06242 27.49629,-22.38537 13.50583,-13.4925 24.55604,-25.15504 24.55604,-25.91676 0,-0.76172 -1.92746,-3.89608 -4.28325,-6.96524 -5.54046,-7.21823 -6.48561,-10.43332 -3.84373,-13.0752 2.64187,-2.64187 5.85696,-1.69673 13.07519,3.84374 3.06917,2.35578 6.20353,4.28325 6.96525,4.28325 1.43308,0 50.03222,-48.076299 50.03222,-49.493963 0,-0.439251 -2.27555,-3.552376 -5.05679,-6.918054 -5.16323,-6.248228 -6.24082,-10.164944 -3.53975,-12.86601 2.51917,-2.519167 5.1312,-1.732751 11.75704,3.539753 3.47654,2.766455 6.82839,5.035964 7.44857,5.043354 0.62017,0.0073 4.61991,-2.192166 8.8883,-4.887902 17.17594,-10.847582 33.93887,-17.713552 50.82421,-20.817202 l 8.69077,-1.597427 1.44041,-8.719862 c 1.04822,-6.3456332 2.20505,-9.3390241 4.2487,-10.9938679 1.54455,-1.2507034 3.30103,-2.2740062 3.90328,-2.2740062 2.22683,0 4.67094,5.902849 5.4694,13.2093001 0.45201,4.136227 1.05253,7.751111 1.3345,8.033078 0.28196,0.281967 4.58245,1.28813 9.55663,2.235919 18.09975,3.448751 29.20888,7.718221 44.03842,16.924858 7.88508,4.895301 14.72027,8.900548 15.18933,8.900548 0.46904,0 3.88128,-2.275555 7.58275,-5.05679 7.0061,-5.264276 9.98041,-6.103573 12.54423,-3.539753 2.56382,2.563821 1.72453,5.538132 -3.53975,12.544225 -2.78124,3.701474 -5.05679,7.203145 -5.05679,7.78149 0,0.578344 2.19505,4.291432 4.87788,8.251305 10.98395,16.21233 19.00683,35.866267 21.10866,51.710697 0.46441,3.50092 1.22918,6.98792 1.69948,7.74889 0.47031,0.76096 4.24668,1.75426 8.39195,2.20732 18.44831,2.01637 17.59535,11.74029 -1.22386,13.95212 -5.86374,0.68916 -7.16798,1.29138 -7.581,3.50038 -4.17077,22.30706 -10.0129,37.91426 -20.36241,54.39809 -3.80089,6.05373 -6.9107,11.41296 -6.9107,11.90942 0,0.49643 2.30287,3.96746 5.11749,7.71337 6.07944,8.09097 6.23737,11.90076 0.51653,12.46084 -2.82653,0.27672 -5.40619,-0.81351 -9.72169,-4.10864 -3.23082,-2.46692 -6.33502,-4.47041 -6.89822,-4.45218 -0.56319,0.0182 -12.27875,10.96934 -26.03458,24.33581 l -25.01058,24.30266 5.00728,6.32099 c 6.44158,8.1316 7.65536,12.54317 3.99069,14.50443 -3.49947,1.87287 -6.43423,0.84839 -12.79635,-4.467 -2.86267,-2.3917 -5.86761,-4.34854 -6.67765,-4.34854 -0.81003,0 -12.49145,11.02953 -25.95868,24.51006 -17.4316,17.44882 -24.1894,25.00617 -23.45676,26.2321 0.566,0.94712 3.19901,4.31865 5.85112,7.49229 2.65211,3.17363 4.82202,6.34558 4.82202,7.04876 0,1.5278 -5.38547,6.77605 -6.9532,6.77605 -0.60576,0 -3.69798,-2.16991 -6.87161,-4.82202 -8.78164,-7.33852 -8.39199,-7.30002 -16.47771,-1.62821 -15.11458,10.60227 -36.04812,18.92025 -55.83713,22.18697 -4.5267,0.74726 -4.61311,0.87282 -5.50313,7.99633 -1.21248,9.70431 -3.63513,14.19286 -7.66048,14.19286 -3.72619,0 -5.2263,-3.11539 -6.42948,-13.35261 -0.91313,-7.76934 0.83055,-6.75313 -20.26299,-11.80927 -12.49974,-2.99622 -26.84794,-9.45944 -39.68743,-17.87743 -5.25512,-3.44541 -10.18965,-6.2644 -10.96562,-6.2644 -1.46251,0 -24.020991,23.67588 -33.124663,34.76543 -2.853974,3.47655 -5.743757,8.3121 -6.421739,10.74568 -1.737329,6.23605 -1.445647,21.256 0.519639,26.75837 2.623977,7.34657 10.255762,16.75378 17.816132,21.96081 6.297761,4.33744 7.915901,4.85026 16.955441,5.37355 16.04598,0.92889 21.21915,-0.93296 36.1003,-12.99265 7.04551,-5.70969 15.05969,-11.84795 17.80931,-13.64058 8.20351,-5.34835 18.28821,-7.59209 31.41404,-6.98931 9.69573,0.44527 12.8329,1.1643 19.8918,4.55919 10.16587,4.88915 21.84503,16.76335 27.18547,27.63946 3.35564,6.83394 3.62282,8.45725 3.60765,21.91882 -0.0147,13.03351 -0.35795,15.25794 -3.31637,21.49135 -4.00747,8.44379 -10.23917,17.09264 -13.61891,18.90141 -2.00737,1.07432 -3.18432,0.73042 -6.04461,-1.76622 z m -1.65558,-149.24058 c 18.13523,-5.84074 23.24358,-9.1605 44.24692,-28.7548 24.68685,-23.03069 94.7409,-93.03068 117.44334,-117.35269 18.34645,-19.65529 21.97104,-25.07591 27.41329,-40.99699 2.96842,-8.68403 3.53711,-12.70464 4.02318,-28.44444 0.68865,-22.29917 -1.83972,-35.08473 -10.06432,-50.893419 -9.59121,-18.435524 -31.72815,-38.781128 -50.95675,-46.833295 -15.31036,-6.411364 -22.39023,-7.543712 -42.97973,-6.87414 -22.11112,0.719055 -30.79185,3.10103 -47.90583,13.145251 -9.10895,5.346056 -18.04839,13.814159 -80.47425,76.231163 -49.33965,49.33266 -71.98106,72.84906 -76.12449,79.06641 -3.37569,5.06534 -7.66655,13.98488 -10.034613,20.85926 -4.066041,11.80355 -4.13653,12.38996 -4.102937,34.13333 0.03183,20.60316 0.267488,22.81845 3.429259,32.23704 4.933441,14.69621 11.526931,25.0944 23.686931,37.35522 23.0686,23.25985 44.309,31.95178 75.85185,31.03981 12.91904,-0.37352 17.76321,-1.08837 26.54815,-3.91771 z"
   id="path86"
   inkscape:connector-curvature="0" /><path
   style="fill:#009688;fill-opacity:0;stroke-width:1.26419747"
   d="m 184.9521,343.75513 c -18.72629,-2.2128 -34.40965,-10.10847 -48.8652,-24.60081 -11.97502,-12.00552 -19.01677,-24.92971 -22.62229,-41.52026 -4.26237,-19.61301 0.0608,-43.39671 10.95901,-60.29121 5.43767,-8.42946 102.10146,-106.81307 111.01508,-112.9902 8.78037,-6.084808 14.88715,0.26735 8.41485,8.75297 -1.82861,2.39744 -26.49618,27.87928 -54.81681,56.62632 -55.18948,56.02046 -56.03494,57.06087 -60.48552,74.43318 -1.4203,5.544 -1.88097,11.82011 -1.55869,21.23571 0.43424,12.68692 0.73034,13.93445 5.82951,24.56141 11.78118,24.55263 35.81231,39.99332 62.24364,39.99332 10.14899,0 19.96686,-2.44727 31.27525,-7.79588 7.89593,-3.7346 13.71012,-9.20089 76.33006,-71.76283 38.7828,-38.74689 69.73225,-70.69511 72.33893,-74.67339 12.8729,-19.64642 14.09153,-45.9712 3.1584,-68.22713 -2.64341,-5.38105 -7.07812,-11.217669 -12.96737,-17.06667 -13.9823,-13.88673 -27.81242,-19.592145 -47.55855,-19.619589 -17.07525,-0.02373 -30.35412,4.461233 -44.76326,15.118877 -8.12855,6.012239 -9.91243,6.592808 -13.19426,4.294125 -7.75417,-5.431237 0.64912,-15.343111 21.9408,-25.879639 15.11886,-7.481819 25.88613,-9.251899 45.1768,-7.426819 23.97025,2.26781 43.82203,14.022005 58.4676,34.618529 11.00707,15.479596 13.9532,25.701786 13.87978,48.158686 -0.0518,15.86376 -0.3943,18.58239 -3.30284,26.22142 -5.39993,14.18252 -10.83842,21.61522 -33.37091,45.60763 -21.88338,23.30126 -102.82752,103.08646 -115.57833,113.92353 -16.07182,13.65961 -40.41113,20.85336 -61.94568,18.30872 z"
   id="path4596"
   inkscape:connector-curvature="0" /><path
   style="fill:#009688;fill-opacity:0;stroke-width:1.26419747"
   d="m 184.9521,343.75513 c -18.72629,-2.2128 -34.40965,-10.10847 -48.8652,-24.60081 -11.97502,-12.00552 -19.01677,-24.92971 -22.62229,-41.52026 -4.26237,-19.61301 0.0608,-43.39671 10.95901,-60.29121 5.43767,-8.42946 102.10146,-106.81307 111.01508,-112.9902 8.78037,-6.084808 14.88715,0.26735 8.41485,8.75297 -1.82861,2.39744 -26.49618,27.87928 -54.81681,56.62632 -55.18948,56.02046 -56.03494,57.06087 -60.48552,74.43318 -1.4203,5.544 -1.88097,11.82011 -1.55869,21.23571 0.43424,12.68692 0.73034,13.93445 5.82951,24.56141 11.78118,24.55263 35.81231,39.99332 62.24364,39.99332 10.14899,0 19.96686,-2.44727 31.27525,-7.79588 7.89593,-3.7346 13.71012,-9.20089 76.33006,-71.76283 38.7828,-38.74689 69.73225,-70.69511 72.33893,-74.67339 12.8729,-19.64642 14.09153,-45.9712 3.1584,-68.22713 -2.64341,-5.38105 -7.07812,-11.217669 -12.96737,-17.06667 -13.9823,-13.88673 -27.81242,-19.592145 -47.55855,-19.619589 -17.07525,-0.02373 -30.35412,4.461233 -44.76326,15.118877 -8.12855,6.012239 -9.91243,6.592808 -13.19426,4.294125 -7.75417,-5.431237 0.64912,-15.343111 21.9408,-25.879639 15.11886,-7.481819 25.88613,-9.251899 45.1768,-7.426819 23.97025,2.26781 43.82203,14.022005 58.4676,34.618529 11.00707,15.479596 13.9532,25.701786 13.87978,48.158686 -0.0518,15.86376 -0.3943,18.58239 -3.30284,26.22142 -5.39993,14.18252 -10.83842,21.61522 -33.37091,45.60763 -21.88338,23.30126 -102.82752,103.08646 -115.57833,113.92353 -16.07182,13.65961 -40.41113,20.85336 -61.94568,18.30872 z"
   id="path4598"
   inkscape:connector-curvature="0" /><path
   style="fill:#009688;fill-opacity:0;stroke-width:1.26419747"
   d="m 176.73482,325.65759 c -11.04532,-3.49577 -20.40332,-9.15226 -28.44445,-17.19339 -21.29724,-21.29724 -26.07887,-49.46212 -13.05562,-76.90053 4.13277,-8.70725 7.71273,-12.60793 59.37079,-64.68986 l 54.97282,-55.4239 -0.86629,-4.6177 c -0.76754,-4.09138 -0.38771,-5.11147 3.3324,-8.949649 3.27709,-3.38109 5.21547,-4.331939 8.83106,-4.331939 2.95927,0 6.40834,-1.224236 9.54953,-3.389573 13.88669,-9.572594 18.08689,-11.956459 25.0925,-14.24151 36.85266,-12.020386 74.95273,8.097955 85.89667,45.356831 3.86866,13.17092 2.15135,34.09941 -3.74156,45.59771 -4.44769,8.67835 -10.67247,15.5961 -45.85198,50.95636 -102.44144,102.9678 -102.73512,103.23155 -119.93271,107.71096 -8.72202,2.2718 -28.13946,2.33597 -35.15316,0.11618 z m 6.12209,-80.54267 c 1.69432,-0.77198 3.69693,-2.75635 4.45025,-4.40971 3.70914,-8.14068 -7.26333,-15.84397 -13.94934,-9.79322 -3.1279,2.8307 -3.0117,9.84995 0.2165,13.07814 2.87945,2.87945 4.89541,3.12373 9.28259,1.12479 z m 49.5026,-10.96671 c 16.86055,-4.5765 21.07235,-8.52297 23.99282,-22.48133 0.96471,-4.61079 1.9777,-8.60694 2.2511,-8.88034 0.27338,-0.27339 3.43047,-1.05338 7.01575,-1.73331 14.37869,-2.72687 21.08152,-8.94062 23.80389,-22.067 0.87688,-4.22811 2.31127,-10.11226 3.18752,-13.0759 1.47158,-4.97717 1.38531,-5.5963 -1.13033,-8.11193 -3.39332,-3.39333 -9.50773,-3.54594 -13.0656,-0.32612 -3.2859,2.9737 -5.80768,8.8633 -6.8925,16.09738 -0.45593,3.04045 -1.2576,6.22162 -1.78147,7.06926 -0.52387,0.84764 -4.49474,2.04185 -8.82416,2.65381 -12.83989,1.81491 -19.05594,8.07176 -21.65983,21.80198 -0.68989,3.63776 -1.98733,7.34712 -2.88322,8.24299 -0.89588,0.89589 -4.88397,2.15867 -8.86242,2.80618 -10.08566,1.64148 -17.27501,7.1692 -17.27501,13.28233 0,1.12028 1.45598,3.49285 3.23551,5.27238 3.56252,3.56252 3.7562,3.55687 18.88795,-0.55038 z m 105.49628,-64.43954 c 3.46718,-2.80754 3.82472,-9.49131 0.69287,-12.95197 -3.19383,-3.52915 -10.00346,-3.37467 -12.56686,0.28509 -2.75128,3.92802 -2.45142,8.52263 0.78078,11.96316 3.2785,3.48978 7.33479,3.74711 11.09321,0.70372 z m 0.69287,-47.0777 c 4.80725,-5.31195 0.9837,-15.17418 -5.88297,-15.17418 -3.48581,0 -8.65186,5.62712 -8.65186,9.42402 0,7.13838 9.77782,11.0066 14.53483,5.75016 z"
   id="path4600"
   inkscape:connector-curvature="0" /><path
   style="fill:#00c088;fill-opacity:0;stroke-width:1.26419747"
   d="m 176.73482,325.65759 c -11.04532,-3.49577 -20.40332,-9.15226 -28.44445,-17.19339 -21.29724,-21.29724 -26.07887,-49.46212 -13.05562,-76.90053 4.13277,-8.70725 7.71273,-12.60793 59.37079,-64.68986 l 54.97282,-55.4239 -0.86629,-4.6177 c -0.76754,-4.09138 -0.38771,-5.11147 3.3324,-8.949649 3.27709,-3.38109 5.21547,-4.331939 8.83106,-4.331939 2.95927,0 6.40834,-1.224236 9.54953,-3.389573 13.88669,-9.572594 18.08689,-11.956459 25.0925,-14.24151 36.85266,-12.020386 74.95273,8.097955 85.89667,45.356831 3.86866,13.17092 2.15135,34.09941 -3.74156,45.59771 -4.44769,8.67835 -10.67247,15.5961 -45.85198,50.95636 -102.44144,102.9678 -102.73512,103.23155 -119.93271,107.71096 -8.72202,2.2718 -28.13946,2.33597 -35.15316,0.11618 z m 6.12209,-80.54267 c 1.69432,-0.77198 3.69693,-2.75635 4.45025,-4.40971 3.70914,-8.14068 -7.26333,-15.84397 -13.94934,-9.79322 -3.1279,2.8307 -3.0117,9.84995 0.2165,13.07814 2.87945,2.87945 4.89541,3.12373 9.28259,1.12479 z m 49.5026,-10.96671 c 16.86055,-4.5765 21.07235,-8.52297 23.99282,-22.48133 0.96471,-4.61079 1.9777,-8.60694 2.2511,-8.88034 0.27338,-0.27339 3.43047,-1.05338 7.01575,-1.73331 14.37869,-2.72687 21.08152,-8.94062 23.80389,-22.067 0.87688,-4.22811 2.31127,-10.11226 3.18752,-13.0759 1.47158,-4.97717 1.38531,-5.5963 -1.13033,-8.11193 -3.39332,-3.39333 -9.50773,-3.54594 -13.0656,-0.32612 -3.2859,2.9737 -5.80768,8.8633 -6.8925,16.09738 -0.45593,3.04045 -1.2576,6.22162 -1.78147,7.06926 -0.52387,0.84764 -4.49474,2.04185 -8.82416,2.65381 -12.83989,1.81491 -19.05594,8.07176 -21.65983,21.80198 -0.68989,3.63776 -1.98733,7.34712 -2.88322,8.24299 -0.89588,0.89589 -4.88397,2.15867 -8.86242,2.80618 -10.08566,1.64148 -17.27501,7.1692 -17.27501,13.28233 0,1.12028 1.45598,3.49285 3.23551,5.27238 3.56252,3.56252 3.7562,3.55687 18.88795,-0.55038 z m 105.49628,-64.43954 c 3.46718,-2.80754 3.82472,-9.49131 0.69287,-12.95197 -3.19383,-3.52915 -10.00346,-3.37467 -12.56686,0.28509 -2.75128,3.92802 -2.45142,8.52263 0.78078,11.96316 3.2785,3.48978 7.33479,3.74711 11.09321,0.70372 z m 0.69287,-47.0777 c 4.80725,-5.31195 0.9837,-15.17418 -5.88297,-15.17418 -3.48581,0 -8.65186,5.62712 -8.65186,9.42402 0,7.13838 9.77782,11.0066 14.53483,5.75016 z"
   id="path4602"
   inkscape:connector-curvature="0" /><path
   style="fill:#adc088;fill-opacity:0;stroke-width:1.26419747"
   d="m 176.73482,325.65759 c -11.04532,-3.49577 -20.40332,-9.15226 -28.44445,-17.19339 -21.29724,-21.29724 -26.07887,-49.46212 -13.05562,-76.90053 4.13277,-8.70725 7.71273,-12.60793 59.37079,-64.68986 l 54.97282,-55.4239 -0.86629,-4.6177 c -0.76754,-4.09138 -0.38771,-5.11147 3.3324,-8.949649 3.27709,-3.38109 5.21547,-4.331939 8.83106,-4.331939 2.95927,0 6.40834,-1.224236 9.54953,-3.389573 13.88669,-9.572594 18.08689,-11.956459 25.0925,-14.24151 36.85266,-12.020386 74.95273,8.097955 85.89667,45.356831 3.86866,13.17092 2.15135,34.09941 -3.74156,45.59771 -4.44769,8.67835 -10.67247,15.5961 -45.85198,50.95636 -102.44144,102.9678 -102.73512,103.23155 -119.93271,107.71096 -8.72202,2.2718 -28.13946,2.33597 -35.15316,0.11618 z m 6.12209,-80.54267 c 1.69432,-0.77198 3.69693,-2.75635 4.45025,-4.40971 3.70914,-8.14068 -7.26333,-15.84397 -13.94934,-9.79322 -3.1279,2.8307 -3.0117,9.84995 0.2165,13.07814 2.87945,2.87945 4.89541,3.12373 9.28259,1.12479 z m 49.5026,-10.96671 c 16.86055,-4.5765 21.07235,-8.52297 23.99282,-22.48133 0.96471,-4.61079 1.9777,-8.60694 2.2511,-8.88034 0.27338,-0.27339 3.43047,-1.05338 7.01575,-1.73331 14.37869,-2.72687 21.08152,-8.94062 23.80389,-22.067 0.87688,-4.22811 2.31127,-10.11226 3.18752,-13.0759 1.47158,-4.97717 1.38531,-5.5963 -1.13033,-8.11193 -3.39332,-3.39333 -9.50773,-3.54594 -13.0656,-0.32612 -3.2859,2.9737 -5.80768,8.8633 -6.8925,16.09738 -0.45593,3.04045 -1.2576,6.22162 -1.78147,7.06926 -0.52387,0.84764 -4.49474,2.04185 -8.82416,2.65381 -12.83989,1.81491 -19.05594,8.07176 -21.65983,21.80198 -0.68989,3.63776 -1.98733,7.34712 -2.88322,8.24299 -0.89588,0.89589 -4.88397,2.15867 -8.86242,2.80618 -10.08566,1.64148 -17.27501,7.1692 -17.27501,13.28233 0,1.12028 1.45598,3.49285 3.23551,5.27238 3.56252,3.56252 3.7562,3.55687 18.88795,-0.55038 z m 105.49628,-64.43954 c 3.46718,-2.80754 3.82472,-9.49131 0.69287,-12.95197 -3.19383,-3.52915 -10.00346,-3.37467 -12.56686,0.28509 -2.75128,3.92802 -2.45142,8.52263 0.78078,11.96316 3.2785,3.48978 7.33479,3.74711 11.09321,0.70372 z m 0.69287,-47.0777 c 4.80725,-5.31195 0.9837,-15.17418 -5.88297,-15.17418 -3.48581,0 -8.65186,5.62712 -8.65186,9.42402 0,7.13838 9.77782,11.0066 14.53483,5.75016 z"
   id="path4604"
   inkscape:connector-curvature="0" /><path
   style="fill:#adc088;fill-opacity:0;stroke-width:1.26419747"
   d="m 226.17362,508.08783 c -1.81258,-1.42579 -3.2956,-3.09975 -3.2956,-3.71993 0,-0.62017 2.70223,-5.55666 6.00494,-10.96997 5.92552,-9.71221 6.01067,-10.00468 6.4378,-22.11557 0.38685,-10.96823 0.0937,-13.0141 -2.75733,-19.2415 -3.79945,-8.29912 -12.33175,-16.97279 -20.6944,-21.03732 -4.8802,-2.37193 -8.14639,-2.94675 -16.80335,-2.95719 -13.10286,-0.0158 -17.60098,2.05348 -35.39753,16.28408 -6.60543,5.28188 -15.50371,11.33823 -19.77395,13.45857 -7.58864,3.76803 -8.11712,3.84561 -23.38766,3.43307 -13.49764,-0.36463 -16.47815,-0.8426 -21.903865,-3.51259 -8.194741,-4.0326 -23.45712,-19.25826 -26.990889,-26.92595 -4.3451,-9.42815 -6.053547,-21.98041 -4.289741,-31.51751 2.664267,-14.406 8.57342,-23.85774 26.73463,-42.76231 9.017566,-9.38667 16.422485,-17.75821 16.455375,-18.60342 0.0329,-0.8452 -3.00663,-6.24964 -6.754497,-12.00987 C 90.188179,311.18292 84.00908,295.73115 80.848184,278.6047 l -1.599125,-8.66443 -8.690536,-1.42546 c -6.367035,-1.04435 -9.305443,-2.18485 -10.990455,-4.26574 -1.264955,-1.56216 -2.299919,-3.33303 -2.299919,-3.93528 0,-2.3253 6.033444,-4.86209 13.867892,-5.83084 l 8.179003,-1.01134 1.541529,-9.20914 c 3.06987,-18.33951 10.364698,-36.0431 21.293837,-51.67738 l 5.54849,-7.93719 -4.41047,-5.27897 c -5.989678,-7.16919 -7.177644,-9.67406 -6.281469,-13.2447 1.293734,-5.15465 6.714759,-3.90763 16.257689,3.73983 l 4.7965,3.84379 25.35356,-25.35357 25.35356,-25.35356 -3.73257,-4.29542 c -6.88864,-7.92742 -8.53697,-13.84925 -4.48593,-16.11632 2.84896,-1.59436 6.92457,0.0511 13.52719,5.46148 l 5.31651,4.35648 24.90277,-24.926149 c 13.69652,-13.709379 24.90277,-25.399395 24.90277,-25.977811 0,-0.578417 -2.01213,-3.402399 -4.47141,-6.275516 -5.16302,-6.031821 -6.58137,-10.221919 -4.36434,-12.893258 2.43134,-2.929594 4.91622,-2.279498 12.14317,3.17691 3.68372,2.781235 7.20278,5.05679 7.82012,5.05679 0.61735,0 4.66079,-2.286942 8.98543,-5.082091 16.61945,-10.741677 36.99201,-18.969527 51.84955,-20.94045 3.56096,-0.472378 6.86726,-1.494413 7.34734,-2.271188 0.48007,-0.776776 1.27365,-4.811388 1.76348,-8.965804 0.65412,-5.5476168 1.62699,-8.1497475 3.66352,-9.7988274 1.52508,-1.2349385 3.2381,-2.2453427 3.80673,-2.2453427 2.85968,0 4.92932,4.5576814 5.72182,12.6003461 l 0.86489,8.777249 7.1114,1.400447 c 11.59825,2.284046 29.29745,7.54325 34.75381,10.32688 2.79722,1.42703 9.83068,5.655541 15.62993,9.396691 5.79927,3.74115 11.10992,6.80209 11.80147,6.80209 0.69154,0 4.13615,-2.275555 7.65467,-5.05679 3.51852,-2.781234 7.15304,-5.05679 8.0767,-5.05679 7.26822,0 7.45571,5.680464 0.4857,14.714893 l -5.19304,6.731159 6.6195,10.319222 c 10.56627,16.471891 16.45655,31.37642 20.26725,51.28352 l 1.49866,7.82904 7.11886,0.74549 c 9.40458,0.98483 13.43985,3.08513 13.43985,6.99522 0,3.87613 -3.9742,5.97474 -13.3375,7.04297 l -7.01651,0.8005 -3.44122,14.71961 c -3.72535,15.93496 -10.94805,32.62855 -19.68144,45.48903 -2.85722,4.20742 -5.19493,8.05521 -5.19493,8.55061 0,0.4954 2.31942,3.90714 5.15427,7.58163 6.23515,8.08192 6.39062,12.31369 0.47366,12.89275 -2.86045,0.27993 -5.30394,-0.77575 -9.48148,-4.09637 -3.09537,-2.46043 -6.2023,-4.47903 -6.90429,-4.48577 -0.702,-0.006 -12.296,11.01826 -25.76447,24.50003 l -24.48812,24.51228 4.62126,6.05227 c 5.86975,7.68738 6.98803,11.73848 3.86976,14.01861 -3.35892,2.4561 -4.63361,2.16882 -10.68941,-2.40904 -2.98929,-2.25975 -6.20423,-4.67507 -7.14433,-5.36737 -1.29962,-0.95706 -7.76882,4.80086 -26.99392,24.02594 l -25.28466,25.28466 5.69117,6.93794 c 3.13015,3.81586 5.69118,7.55392 5.69118,8.30677 0,0.75287 -1.40888,2.69242 -3.13083,4.31011 l -3.13082,2.94126 -4.97827,-3.44995 c -2.73805,-1.89746 -5.96845,-4.54408 -7.1787,-5.88137 -1.21022,-1.3373 -2.71984,-2.43145 -3.3547,-2.43145 -0.63485,0 -6.32516,3.40653 -12.64512,7.57007 -15.23434,10.03626 -32.34466,16.51468 -51.68546,19.56948 -4.55644,0.71967 -4.56435,0.7322 -5.37737,8.51077 -0.95391,9.12653 -3.46858,13.65339 -7.58446,13.65339 -3.60584,0 -5.86267,-4.43478 -5.86267,-11.52037 0,-8.02527 -1.42264,-9.4788 -11.02599,-11.26539 -18.22472,-3.3905 -32.18413,-9.10173 -49.78177,-20.3673 -5.28427,-3.38285 -10.23397,-6.15065 -10.99934,-6.15065 -2.05267,0 -32.718605,33.82357 -36.677676,40.45432 -3.063528,5.13087 -3.391353,6.86692 -3.342159,17.69877 0.06672,14.69306 1.70968,18.88984 11.352746,28.99958 10.142643,10.6335 16.733269,13.21159 31.764219,12.42538 13.70207,-0.7167 14.8552,-1.28043 33.52802,-16.39068 18.34295,-14.84331 23.21386,-16.817 41.50294,-16.817 13.65327,0 15.04447,0.23986 22.85366,3.94024 10.111,4.79107 20.66467,15.16199 26.64036,26.179 4.16085,7.67113 4.23437,8.08109 4.23437,23.60916 0,15.3115 -0.12528,16.04209 -4.03174,23.51532 -4.40005,8.41742 -9.50351,15.04905 -13.03617,16.93967 -1.6671,0.89219 -3.11821,0.53038 -5.55254,-1.38445 z m -2.0314,-149.68458 c 18.24504,-5.8761 23.84994,-9.46459 43.91648,-28.11707 24.53821,-22.80903 99.10078,-97.37663 119.73114,-119.73922 13.61816,-14.76161 17.03976,-19.30078 20.96478,-27.81235 7.94099,-17.22039 10.86645,-35.81012 8.79024,-55.85726 C 415.11742,103.43884 406.48159,85.294617 389.60229,68.168916 364.82492,43.029845 335.2654,33.806689 296.83358,39.22324 c -10.61232,1.495693 -30.25883,10.574842 -41.71852,19.27918 -10.20302,7.74982 -132.21365,130.4905 -141.83453,142.68319 -14.265715,18.07917 -20.206902,38.61725 -18.953461,65.52021 0.845924,18.15631 2.984964,27.35042 9.271291,39.85026 13.34686,26.53916 40.56471,47.81613 69.4099,54.25969 13.89171,3.1032 37.46062,1.99121 51.13396,-2.41252 z"
   id="path4606"
   inkscape:connector-curvature="0" /><path
   style="fill:#adc088;fill-opacity:0;stroke-width:1.26419747"
   d="m 226.17362,508.08783 c -1.81258,-1.42579 -3.2956,-3.09975 -3.2956,-3.71993 0,-0.62017 2.70223,-5.55666 6.00494,-10.96997 5.92552,-9.71221 6.01067,-10.00468 6.4378,-22.11557 0.38685,-10.96823 0.0937,-13.0141 -2.75733,-19.2415 -3.79945,-8.29912 -12.33175,-16.97279 -20.6944,-21.03732 -4.8802,-2.37193 -8.14639,-2.94675 -16.80335,-2.95719 -13.10286,-0.0158 -17.60098,2.05348 -35.39753,16.28408 -6.60543,5.28188 -15.50371,11.33823 -19.77395,13.45857 -7.58864,3.76803 -8.11712,3.84561 -23.38766,3.43307 -13.49764,-0.36463 -16.47815,-0.8426 -21.903865,-3.51259 -8.194741,-4.0326 -23.45712,-19.25826 -26.990889,-26.92595 -4.3451,-9.42815 -6.053547,-21.98041 -4.289741,-31.51751 2.664267,-14.406 8.57342,-23.85774 26.73463,-42.76231 9.017566,-9.38667 16.422485,-17.75821 16.455375,-18.60342 0.0329,-0.8452 -3.00663,-6.24964 -6.754497,-12.00987 C 90.188179,311.18292 84.00908,295.73115 80.848184,278.6047 l -1.599125,-8.66443 -8.690536,-1.42546 c -6.367035,-1.04435 -9.305443,-2.18485 -10.990455,-4.26574 -1.264955,-1.56216 -2.299919,-3.33303 -2.299919,-3.93528 0,-2.3253 6.033444,-4.86209 13.867892,-5.83084 l 8.179003,-1.01134 1.541529,-9.20914 c 3.06987,-18.33951 10.364698,-36.0431 21.293837,-51.67738 l 5.54849,-7.93719 -4.41047,-5.27897 c -5.989678,-7.16919 -7.177644,-9.67406 -6.281469,-13.2447 1.293734,-5.15465 6.714759,-3.90763 16.257689,3.73983 l 4.7965,3.84379 25.35356,-25.35357 25.35356,-25.35356 -3.73257,-4.29542 c -6.88864,-7.92742 -8.53697,-13.84925 -4.48593,-16.11632 2.84896,-1.59436 6.92457,0.0511 13.52719,5.46148 l 5.31651,4.35648 24.90277,-24.926149 c 13.69652,-13.709379 24.90277,-25.399395 24.90277,-25.977811 0,-0.578417 -2.01213,-3.402399 -4.47141,-6.275516 -5.16302,-6.031821 -6.58137,-10.221919 -4.36434,-12.893258 2.43134,-2.929594 4.91622,-2.279498 12.14317,3.17691 3.68372,2.781235 7.20278,5.05679 7.82012,5.05679 0.61735,0 4.66079,-2.286942 8.98543,-5.082091 16.61945,-10.741677 36.99201,-18.969527 51.84955,-20.94045 3.56096,-0.472378 6.86726,-1.494413 7.34734,-2.271188 0.48007,-0.776776 1.27365,-4.811388 1.76348,-8.965804 0.65412,-5.5476168 1.62699,-8.1497475 3.66352,-9.7988274 1.52508,-1.2349385 3.2381,-2.2453427 3.80673,-2.2453427 2.85968,0 4.92932,4.5576814 5.72182,12.6003461 l 0.86489,8.777249 7.1114,1.400447 c 11.59825,2.284046 29.29745,7.54325 34.75381,10.32688 2.79722,1.42703 9.83068,5.655541 15.62993,9.396691 5.79927,3.74115 11.10992,6.80209 11.80147,6.80209 0.69154,0 4.13615,-2.275555 7.65467,-5.05679 3.51852,-2.781234 7.15304,-5.05679 8.0767,-5.05679 7.26822,0 7.45571,5.680464 0.4857,14.714893 l -5.19304,6.731159 6.6195,10.319222 c 10.56627,16.471891 16.45655,31.37642 20.26725,51.28352 l 1.49866,7.82904 7.11886,0.74549 c 9.40458,0.98483 13.43985,3.08513 13.43985,6.99522 0,3.87613 -3.9742,5.97474 -13.3375,7.04297 l -7.01651,0.8005 -3.44122,14.71961 c -3.72535,15.93496 -10.94805,32.62855 -19.68144,45.48903 -2.85722,4.20742 -5.19493,8.05521 -5.19493,8.55061 0,0.4954 2.31942,3.90714 5.15427,7.58163 6.23515,8.08192 6.39062,12.31369 0.47366,12.89275 -2.86045,0.27993 -5.30394,-0.77575 -9.48148,-4.09637 -3.09537,-2.46043 -6.2023,-4.47903 -6.90429,-4.48577 -0.702,-0.006 -12.296,11.01826 -25.76447,24.50003 l -24.48812,24.51228 4.62126,6.05227 c 5.86975,7.68738 6.98803,11.73848 3.86976,14.01861 -3.35892,2.4561 -4.63361,2.16882 -10.68941,-2.40904 -2.98929,-2.25975 -6.20423,-4.67507 -7.14433,-5.36737 -1.29962,-0.95706 -7.76882,4.80086 -26.99392,24.02594 l -25.28466,25.28466 5.69117,6.93794 c 3.13015,3.81586 5.69118,7.55392 5.69118,8.30677 0,0.75287 -1.40888,2.69242 -3.13083,4.31011 l -3.13082,2.94126 -4.97827,-3.44995 c -2.73805,-1.89746 -5.96845,-4.54408 -7.1787,-5.88137 -1.21022,-1.3373 -2.71984,-2.43145 -3.3547,-2.43145 -0.63485,0 -6.32516,3.40653 -12.64512,7.57007 -15.23434,10.03626 -32.34466,16.51468 -51.68546,19.56948 -4.55644,0.71967 -4.56435,0.7322 -5.37737,8.51077 -0.95391,9.12653 -3.46858,13.65339 -7.58446,13.65339 -3.60584,0 -5.86267,-4.43478 -5.86267,-11.52037 0,-8.02527 -1.42264,-9.4788 -11.02599,-11.26539 -18.22472,-3.3905 -32.18413,-9.10173 -49.78177,-20.3673 -5.28427,-3.38285 -10.23397,-6.15065 -10.99934,-6.15065 -2.05267,0 -32.718605,33.82357 -36.677676,40.45432 -3.063528,5.13087 -3.391353,6.86692 -3.342159,17.69877 0.06672,14.69306 1.70968,18.88984 11.352746,28.99958 10.142643,10.6335 16.733269,13.21159 31.764219,12.42538 13.70207,-0.7167 14.8552,-1.28043 33.52802,-16.39068 18.34295,-14.84331 23.21386,-16.817 41.50294,-16.817 13.65327,0 15.04447,0.23986 22.85366,3.94024 10.111,4.79107 20.66467,15.16199 26.64036,26.179 4.16085,7.67113 4.23437,8.08109 4.23437,23.60916 0,15.3115 -0.12528,16.04209 -4.03174,23.51532 -4.40005,8.41742 -9.50351,15.04905 -13.03617,16.93967 -1.6671,0.89219 -3.11821,0.53038 -5.55254,-1.38445 z m -2.0314,-149.68458 c 18.24504,-5.8761 23.84994,-9.46459 43.91648,-28.11707 24.53821,-22.80903 99.10078,-97.37663 119.73114,-119.73922 13.61816,-14.76161 17.03976,-19.30078 20.96478,-27.81235 7.94099,-17.22039 10.86645,-35.81012 8.79024,-55.85726 C 415.11742,103.43884 406.48159,85.294617 389.60229,68.168916 364.82492,43.029845 335.2654,33.806689 296.83358,39.22324 c -10.61232,1.495693 -30.25883,10.574842 -41.71852,19.27918 -10.20302,7.74982 -132.21365,130.4905 -141.83453,142.68319 -14.265715,18.07917 -20.206902,38.61725 -18.953461,65.52021 0.845924,18.15631 2.984964,27.35042 9.271291,39.85026 13.34686,26.53916 40.56471,47.81613 69.4099,54.25969 13.89171,3.1032 37.46062,1.99121 51.13396,-2.41252 z"
   id="path4608"
   inkscape:connector-curvature="0" /><path
   style="fill:#adc088;fill-opacity:0;stroke-width:1.26419747"
   d="m 184.53464,343.71203 c -48.60808,-5.74122 -82.33672,-55.13412 -70.16016,-102.74399 5.40431,-21.13067 6.47637,-22.47236 65.07901,-81.44744 29.23737,-29.42318 54.98487,-54.62877 57.21666,-56.01243 4.40075,-2.72835 8.16235,-1.88551 9.72178,2.17831 1.59767,4.16345 3.9245,1.62868 -77.08055,83.96872 -27.76589,28.22348 -32.25534,33.34341 -35.85966,40.89557 -19.28797,40.4143 2.39242,86.34457 46.01389,97.48116 15.74122,4.01875 31.73305,1.82472 47.97339,-6.58183 7.97914,-4.13026 14.99994,-10.63105 63.7901,-59.06533 69.73678,-69.2281 82.63801,-83.09752 88.20918,-94.82879 12.29956,-25.89939 5.40615,-60.47849 -15.78959,-79.204634 -13.70563,-12.10873 -28.15321,-17.556279 -46.56143,-17.556279 -15.70304,0 -27.16147,3.761647 -42.5,13.952161 -11.91944,7.918958 -14.23793,8.247027 -17.33857,2.453434 -1.70227,-3.180731 -0.33907,-5.799528 6.00007,-11.526564 16.14647,-14.587373 38.81899,-21.277034 63.46865,-18.726809 20.7811,2.149987 33.77324,8.455017 49.37476,23.961358 15.39877,15.304823 22.32359,31.082553 23.58132,53.728393 1.33085,23.9622 -4.97287,41.29145 -22.07362,60.68148 -14.73558,16.70826 -127.41285,128.25993 -135.28272,133.93133 -15.30861,11.03209 -38.23695,16.77074 -57.78251,14.46218 z"
   id="path4610"
   inkscape:connector-curvature="0" /><path
   style="fill:#adc088;fill-opacity:0;stroke-width:1.26419747"
   d="m 173.82716,324.53891 c -20.98485,-7.20914 -38.05597,-25.47976 -43.73419,-46.80716 -3.7558,-14.10676 -1.61194,-32.93166 5.32079,-46.72089 4.21541,-8.38447 6.19715,-10.51353 64.8016,-69.61907 l 48.68086,-49.0971 -0.30321,-5.13872 c -0.25379,-4.30129 0.36545,-5.82859 3.79988,-9.372033 3.16118,-3.261501 5.15034,-4.233315 8.66501,-4.233315 3.4036,0 6.63083,-1.481294 12.71004,-5.833878 21.24252,-15.209206 43.62976,-19.230056 65.38828,-11.744028 19.86131,6.833293 38.44544,27.480064 43.16314,47.953794 3.5915,15.58625 0.31067,35.93436 -7.79281,48.33206 -7.6031,11.63216 -139.72846,143.38897 -148.32983,147.91608 -14.78131,7.77979 -37.03032,9.63392 -52.36956,4.36426 z m 10.57519,-80.64054 c 3.91021,-3.07577 4.50077,-9.16223 1.23875,-12.76672 -2.60695,-2.88064 -8.96187,-2.99668 -12.03044,-0.21966 -3.1279,2.8307 -3.0117,9.84995 0.2165,13.07814 3.23032,3.23031 6.38668,3.20293 10.57519,-0.0918 z m 48.21,-9.73639 c 18.19545,-4.96714 20.65099,-7.72985 25.17528,-28.32455 0.64858,-2.95237 1.67719,-3.57764 8.01158,-4.87011 14.51334,-2.9613 21.90736,-10.2054 23.5304,-23.0533 0.41872,-3.3147 1.6242,-7.69534 2.67882,-9.73475 2.47522,-4.78654 2.41692,-6.75585 -0.29485,-9.96061 -6.63019,-7.83554 -16.384,-1.85539 -19.33149,11.85229 -2.2569,10.49597 -3.11011,11.76154 -8.49622,12.6024 -15.05498,2.35032 -21.80888,8.08103 -24.40603,20.70858 -2.37669,11.55569 -1.97294,11.20487 -15.42786,13.40511 -6.20524,1.01472 -13.56309,7.39774 -13.56309,11.76615 0,1.79526 1.27983,4.62642 2.84408,6.29148 3.18839,3.39389 4.51873,3.34679 19.27938,-0.68269 z m 105.27919,-64.19909 c 3.44454,-2.41264 3.84804,-9.95964 0.71746,-13.4189 -2.60694,-2.88064 -8.96187,-2.99667 -12.03045,-0.21966 -3.14952,2.85028 -2.93448,9.09197 0.43687,12.68062 3.19832,3.40444 6.91578,3.73187 10.87612,0.95794 z m 0.49781,-46.89956 c 4.91588,-4.44881 1.26768,-15.60654 -5.10281,-15.60654 -4.10509,0 -9.01987,4.87189 -9.01987,8.94114 0,7.29744 8.82297,11.46157 14.12268,6.6654 z"
   id="path4612"
   inkscape:connector-curvature="0" /><path
   style="fill:#008000;fill-opacity:0;stroke-width:1.26419747"
   d="m 94.09409,345.31827 c -22.82348,-4.03647 -45.11,-23.95229 -52.15244,-46.60479 -2.95264,-9.49737 -3.49806,-24.98904 -1.22579,-34.81682 3.62101,-15.66127 6.98237,-20.12363 43.65238,-57.95044 19.00253,-19.60199 43.70433,-44.73553 54.89289,-55.85232 20.04936,-19.92075 20.34283,-20.29147 20.34283,-25.69724 0,-7.45142 5.16306,-12.8756 12.25575,-12.8756 3.81167,0 6.66586,-1.31286 13.18205,-6.06341 19.1817,-13.984184 38.41464,-18.368035 59.14577,-13.48136 23.00227,5.422019 41.92921,23.98742 48.83276,47.89993 1.65473,5.73167 2.0164,10.4923 1.53669,20.22716 -0.69856,14.1761 -3.09513,22.52447 -8.88011,30.93356 -5.77861,8.39981 -63.48637,67.66383 -105.89675,108.75255 -39.17721,37.95631 -42.69559,40.68645 -56.83789,44.10417 -8.75182,2.11503 -21.40987,2.74012 -28.84814,1.42461 z M 96.71013,260.983 c 5.20958,-4.57463 0.76038,-14.19281 -6.56535,-14.19281 -7.48029,0 -10.40974,10.29306 -4.29773,15.10077 3.59059,2.82435 6.93064,2.54519 10.86308,-0.90796 z m 48.09769,-9.50142 c 16.03088,-4.38833 20.67521,-9.35118 23.03896,-24.61898 0.94256,-6.0881 1.92545,-6.80615 12.39489,-9.05503 9.6455,-2.0719 17.94282,-9.53258 19.08496,-17.16059 0.41642,-2.78123 1.90705,-8.51925 3.3125,-12.75115 2.69768,-8.12289 2.37668,-11.18829 -1.38228,-13.20002 -8.50468,-4.55157 -16.13958,2.48625 -18.29582,16.86503 -1.12076,7.47383 -3.23767,9.71026 -9.22515,9.74601 -2.55774,0.0153 -6.97071,1.08157 -9.8066,2.36957 -8.04531,3.654 -11.65438,9.40248 -13.75081,21.90213 -0.93467,5.57279 -4.60703,8.56967 -10.50123,8.56967 -8.07457,0 -17.99921,7.15748 -17.99921,12.98073 0,3.65231 5.99227,8.89604 9.24092,8.08658 1.52293,-0.37948 7.77292,-2.05975 13.88887,-3.73395 z m 102.42493,-63.03373 c 3.64767,-1.91998 4.61497,-3.52831 4.63827,-7.71198 0.0241,-4.3286 -4.01537,-8.53333 -8.19793,-8.53333 -7.70926,0 -11.02961,10.24628 -4.8863,15.07861 3.84825,3.02703 4.69056,3.14339 8.44596,1.1667 z m 1.84794,-47.28984 c 3.71068,-2.59905 3.74059,-8.88803 0.0609,-12.80486 -3.53073,-3.75827 -6.70044,-3.70523 -10.58277,0.17711 -7.81532,7.81532 1.47466,18.96465 10.52184,12.62775 z"
   id="path4614"
   inkscape:connector-curvature="0" /><path
   style="fill:#008000;fill-opacity:0;stroke-width:1.26419747"
   d="m 94.09409,345.31827 c -22.82348,-4.03647 -45.11,-23.95229 -52.15244,-46.60479 -2.95264,-9.49737 -3.49806,-24.98904 -1.22579,-34.81682 3.62101,-15.66127 6.98237,-20.12363 43.65238,-57.95044 19.00253,-19.60199 43.70433,-44.73553 54.89289,-55.85232 20.04936,-19.92075 20.34283,-20.29147 20.34283,-25.69724 0,-7.45142 5.16306,-12.8756 12.25575,-12.8756 3.81167,0 6.66586,-1.31286 13.18205,-6.06341 19.1817,-13.984184 38.41464,-18.368035 59.14577,-13.48136 23.00227,5.422019 41.92921,23.98742 48.83276,47.89993 1.65473,5.73167 2.0164,10.4923 1.53669,20.22716 -0.69856,14.1761 -3.09513,22.52447 -8.88011,30.93356 -5.77861,8.39981 -63.48637,67.66383 -105.89675,108.75255 -39.17721,37.95631 -42.69559,40.68645 -56.83789,44.10417 -8.75182,2.11503 -21.40987,2.74012 -28.84814,1.42461 z M 96.71013,260.983 c 5.20958,-4.57463 0.76038,-14.19281 -6.56535,-14.19281 -7.48029,0 -10.40974,10.29306 -4.29773,15.10077 3.59059,2.82435 6.93064,2.54519 10.86308,-0.90796 z m 48.09769,-9.50142 c 16.03088,-4.38833 20.67521,-9.35118 23.03896,-24.61898 0.94256,-6.0881 1.92545,-6.80615 12.39489,-9.05503 9.6455,-2.0719 17.94282,-9.53258 19.08496,-17.16059 0.41642,-2.78123 1.90705,-8.51925 3.3125,-12.75115 2.69768,-8.12289 2.37668,-11.18829 -1.38228,-13.20002 -8.50468,-4.55157 -16.13958,2.48625 -18.29582,16.86503 -1.12076,7.47383 -3.23767,9.71026 -9.22515,9.74601 -2.55774,0.0153 -6.97071,1.08157 -9.8066,2.36957 -8.04531,3.654 -11.65438,9.40248 -13.75081,21.90213 -0.93467,5.57279 -4.60703,8.56967 -10.50123,8.56967 -8.07457,0 -17.99921,7.15748 -17.99921,12.98073 0,3.65231 5.99227,8.89604 9.24092,8.08658 1.52293,-0.37948 7.77292,-2.05975 13.88887,-3.73395 z m 102.42493,-63.03373 c 3.64767,-1.91998 4.61497,-3.52831 4.63827,-7.71198 0.0241,-4.3286 -4.01537,-8.53333 -8.19793,-8.53333 -7.70926,0 -11.02961,10.24628 -4.8863,15.07861 3.84825,3.02703 4.69056,3.14339 8.44596,1.1667 z m 1.84794,-47.28984 c 3.71068,-2.59905 3.74059,-8.88803 0.0609,-12.80486 -3.53073,-3.75827 -6.70044,-3.70523 -10.58277,0.17711 -7.81532,7.81532 1.47466,18.96465 10.52184,12.62775 z"
   id="path4616"
   inkscape:connector-curvature="0" /><path
   style="fill:#008000;fill-opacity:0;stroke-width:1.26419747"
   d="m 94.09409,345.31827 c -22.82348,-4.03647 -45.11,-23.95229 -52.15244,-46.60479 -2.95264,-9.49737 -3.49806,-24.98904 -1.22579,-34.81682 3.62101,-15.66127 6.98237,-20.12363 43.65238,-57.95044 19.00253,-19.60199 43.70433,-44.73553 54.89289,-55.85232 20.04936,-19.92075 20.34283,-20.29147 20.34283,-25.69724 0,-7.45142 5.16306,-12.8756 12.25575,-12.8756 3.81167,0 6.66586,-1.31286 13.18205,-6.06341 19.1817,-13.984184 38.41464,-18.368035 59.14577,-13.48136 23.00227,5.422019 41.92921,23.98742 48.83276,47.89993 1.65473,5.73167 2.0164,10.4923 1.53669,20.22716 -0.69856,14.1761 -3.09513,22.52447 -8.88011,30.93356 -5.77861,8.39981 -63.48637,67.66383 -105.89675,108.75255 -39.17721,37.95631 -42.69559,40.68645 -56.83789,44.10417 -8.75182,2.11503 -21.40987,2.74012 -28.84814,1.42461 z M 96.71013,260.983 c 5.20958,-4.57463 0.76038,-14.19281 -6.56535,-14.19281 -7.48029,0 -10.40974,10.29306 -4.29773,15.10077 3.59059,2.82435 6.93064,2.54519 10.86308,-0.90796 z m 48.09769,-9.50142 c 16.03088,-4.38833 20.67521,-9.35118 23.03896,-24.61898 0.94256,-6.0881 1.92545,-6.80615 12.39489,-9.05503 9.6455,-2.0719 17.94282,-9.53258 19.08496,-17.16059 0.41642,-2.78123 1.90705,-8.51925 3.3125,-12.75115 2.69768,-8.12289 2.37668,-11.18829 -1.38228,-13.20002 -8.50468,-4.55157 -16.13958,2.48625 -18.29582,16.86503 -1.12076,7.47383 -3.23767,9.71026 -9.22515,9.74601 -2.55774,0.0153 -6.97071,1.08157 -9.8066,2.36957 -8.04531,3.654 -11.65438,9.40248 -13.75081,21.90213 -0.93467,5.57279 -4.60703,8.56967 -10.50123,8.56967 -8.07457,0 -17.99921,7.15748 -17.99921,12.98073 0,3.65231 5.99227,8.89604 9.24092,8.08658 1.52293,-0.37948 7.77292,-2.05975 13.88887,-3.73395 z m 102.42493,-63.03373 c 3.64767,-1.91998 4.61497,-3.52831 4.63827,-7.71198 0.0241,-4.3286 -4.01537,-8.53333 -8.19793,-8.53333 -7.70926,0 -11.02961,10.24628 -4.8863,15.07861 3.84825,3.02703 4.69056,3.14339 8.44596,1.1667 z m 1.84794,-47.28984 c 3.71068,-2.59905 3.74059,-8.88803 0.0609,-12.80486 -3.53073,-3.75827 -6.70044,-3.70523 -10.58277,0.17711 -7.81532,7.81532 1.47466,18.96465 10.52184,12.62775 z"
   id="path4618"
   inkscape:connector-curvature="0" /><path
   style="fill:#008000;fill-opacity:0;stroke-width:1.26419747"
   d="m 94.09409,345.31827 c -22.82348,-4.03647 -45.11,-23.95229 -52.15244,-46.60479 -2.95264,-9.49737 -3.49806,-24.98904 -1.22579,-34.81682 3.62101,-15.66127 6.98237,-20.12363 43.65238,-57.95044 19.00253,-19.60199 43.70433,-44.73553 54.89289,-55.85232 20.04936,-19.92075 20.34283,-20.29147 20.34283,-25.69724 0,-7.45142 5.16306,-12.8756 12.25575,-12.8756 3.81167,0 6.66586,-1.31286 13.18205,-6.06341 19.1817,-13.984184 38.41464,-18.368035 59.14577,-13.48136 23.00227,5.422019 41.92921,23.98742 48.83276,47.89993 1.65473,5.73167 2.0164,10.4923 1.53669,20.22716 -0.69856,14.1761 -3.09513,22.52447 -8.88011,30.93356 -5.77861,8.39981 -63.48637,67.66383 -105.89675,108.75255 -39.17721,37.95631 -42.69559,40.68645 -56.83789,44.10417 -8.75182,2.11503 -21.40987,2.74012 -28.84814,1.42461 z M 96.71013,260.983 c 5.20958,-4.57463 0.76038,-14.19281 -6.56535,-14.19281 -7.48029,0 -10.40974,10.29306 -4.29773,15.10077 3.59059,2.82435 6.93064,2.54519 10.86308,-0.90796 z m 48.09769,-9.50142 c 16.03088,-4.38833 20.67521,-9.35118 23.03896,-24.61898 0.94256,-6.0881 1.92545,-6.80615 12.39489,-9.05503 9.6455,-2.0719 17.94282,-9.53258 19.08496,-17.16059 0.41642,-2.78123 1.90705,-8.51925 3.3125,-12.75115 2.69768,-8.12289 2.37668,-11.18829 -1.38228,-13.20002 -8.50468,-4.55157 -16.13958,2.48625 -18.29582,16.86503 -1.12076,7.47383 -3.23767,9.71026 -9.22515,9.74601 -2.55774,0.0153 -6.97071,1.08157 -9.8066,2.36957 -8.04531,3.654 -11.65438,9.40248 -13.75081,21.90213 -0.93467,5.57279 -4.60703,8.56967 -10.50123,8.56967 -8.07457,0 -17.99921,7.15748 -17.99921,12.98073 0,3.65231 5.99227,8.89604 9.24092,8.08658 1.52293,-0.37948 7.77292,-2.05975 13.88887,-3.73395 z m 102.42493,-63.03373 c 3.64767,-1.91998 4.61497,-3.52831 4.63827,-7.71198 0.0241,-4.3286 -4.01537,-8.53333 -8.19793,-8.53333 -7.70926,0 -11.02961,10.24628 -4.8863,15.07861 3.84825,3.02703 4.69056,3.14339 8.44596,1.1667 z m 1.84794,-47.28984 c 3.71068,-2.59905 3.74059,-8.88803 0.0609,-12.80486 -3.53073,-3.75827 -6.70044,-3.70523 -10.58277,0.17711 -7.81532,7.81532 1.47466,18.96465 10.52184,12.62775 z"
   id="path4620"
   inkscape:connector-curvature="0" /><path
   style="fill:#008000;fill-opacity:0;stroke-width:1.26419747"
   d="m 94.09409,345.31827 c -22.82348,-4.03647 -45.11,-23.95229 -52.15244,-46.60479 -2.95264,-9.49737 -3.49806,-24.98904 -1.22579,-34.81682 3.62101,-15.66127 6.98237,-20.12363 43.65238,-57.95044 19.00253,-19.60199 43.70433,-44.73553 54.89289,-55.85232 20.04936,-19.92075 20.34283,-20.29147 20.34283,-25.69724 0,-7.45142 5.16306,-12.8756 12.25575,-12.8756 3.81167,0 6.66586,-1.31286 13.18205,-6.06341 19.1817,-13.984184 38.41464,-18.368035 59.14577,-13.48136 23.00227,5.422019 41.92921,23.98742 48.83276,47.89993 1.65473,5.73167 2.0164,10.4923 1.53669,20.22716 -0.69856,14.1761 -3.09513,22.52447 -8.88011,30.93356 -5.77861,8.39981 -63.48637,67.66383 -105.89675,108.75255 -39.17721,37.95631 -42.69559,40.68645 -56.83789,44.10417 -8.75182,2.11503 -21.40987,2.74012 -28.84814,1.42461 z M 96.71013,260.983 c 5.20958,-4.57463 0.76038,-14.19281 -6.56535,-14.19281 -7.48029,0 -10.40974,10.29306 -4.29773,15.10077 3.59059,2.82435 6.93064,2.54519 10.86308,-0.90796 z m 48.09769,-9.50142 c 16.03088,-4.38833 20.67521,-9.35118 23.03896,-24.61898 0.94256,-6.0881 1.92545,-6.80615 12.39489,-9.05503 9.6455,-2.0719 17.94282,-9.53258 19.08496,-17.16059 0.41642,-2.78123 1.90705,-8.51925 3.3125,-12.75115 2.69768,-8.12289 2.37668,-11.18829 -1.38228,-13.20002 -8.50468,-4.55157 -16.13958,2.48625 -18.29582,16.86503 -1.12076,7.47383 -3.23767,9.71026 -9.22515,9.74601 -2.55774,0.0153 -6.97071,1.08157 -9.8066,2.36957 -8.04531,3.654 -11.65438,9.40248 -13.75081,21.90213 -0.93467,5.57279 -4.60703,8.56967 -10.50123,8.56967 -8.07457,0 -17.99921,7.15748 -17.99921,12.98073 0,3.65231 5.99227,8.89604 9.24092,8.08658 1.52293,-0.37948 7.77292,-2.05975 13.88887,-3.73395 z m 102.42493,-63.03373 c 3.64767,-1.91998 4.61497,-3.52831 4.63827,-7.71198 0.0241,-4.3286 -4.01537,-8.53333 -8.19793,-8.53333 -7.70926,0 -11.02961,10.24628 -4.8863,15.07861 3.84825,3.02703 4.69056,3.14339 8.44596,1.1667 z m 1.84794,-47.28984 c 3.71068,-2.59905 3.74059,-8.88803 0.0609,-12.80486 -3.53073,-3.75827 -6.70044,-3.70523 -10.58277,0.17711 -7.81532,7.81532 1.47466,18.96465 10.52184,12.62775 z"
   id="path4622"
   inkscape:connector-curvature="0" /><path
   style="fill:#008000;fill-opacity:0;stroke-width:1.26419747"
   d="m 94.09409,345.31827 c -22.82348,-4.03647 -45.11,-23.95229 -52.15244,-46.60479 -2.95264,-9.49737 -3.49806,-24.98904 -1.22579,-34.81682 3.62101,-15.66127 6.98237,-20.12363 43.65238,-57.95044 19.00253,-19.60199 43.70433,-44.73553 54.89289,-55.85232 20.04936,-19.92075 20.34283,-20.29147 20.34283,-25.69724 0,-7.45142 5.16306,-12.8756 12.25575,-12.8756 3.81167,0 6.66586,-1.31286 13.18205,-6.06341 19.1817,-13.984184 38.41464,-18.368035 59.14577,-13.48136 23.00227,5.422019 41.92921,23.98742 48.83276,47.89993 1.65473,5.73167 2.0164,10.4923 1.53669,20.22716 -0.69856,14.1761 -3.09513,22.52447 -8.88011,30.93356 -5.77861,8.39981 -63.48637,67.66383 -105.89675,108.75255 -39.17721,37.95631 -42.69559,40.68645 -56.83789,44.10417 -8.75182,2.11503 -21.40987,2.74012 -28.84814,1.42461 z M 96.71013,260.983 c 5.20958,-4.57463 0.76038,-14.19281 -6.56535,-14.19281 -7.48029,0 -10.40974,10.29306 -4.29773,15.10077 3.59059,2.82435 6.93064,2.54519 10.86308,-0.90796 z m 48.09769,-9.50142 c 16.03088,-4.38833 20.67521,-9.35118 23.03896,-24.61898 0.94256,-6.0881 1.92545,-6.80615 12.39489,-9.05503 9.6455,-2.0719 17.94282,-9.53258 19.08496,-17.16059 0.41642,-2.78123 1.90705,-8.51925 3.3125,-12.75115 2.69768,-8.12289 2.37668,-11.18829 -1.38228,-13.20002 -8.50468,-4.55157 -16.13958,2.48625 -18.29582,16.86503 -1.12076,7.47383 -3.23767,9.71026 -9.22515,9.74601 -2.55774,0.0153 -6.97071,1.08157 -9.8066,2.36957 -8.04531,3.654 -11.65438,9.40248 -13.75081,21.90213 -0.93467,5.57279 -4.60703,8.56967 -10.50123,8.56967 -8.07457,0 -17.99921,7.15748 -17.99921,12.98073 0,3.65231 5.99227,8.89604 9.24092,8.08658 1.52293,-0.37948 7.77292,-2.05975 13.88887,-3.73395 z m 102.42493,-63.03373 c 3.64767,-1.91998 4.61497,-3.52831 4.63827,-7.71198 0.0241,-4.3286 -4.01537,-8.53333 -8.19793,-8.53333 -7.70926,0 -11.02961,10.24628 -4.8863,15.07861 3.84825,3.02703 4.69056,3.14339 8.44596,1.1667 z m 1.84794,-47.28984 c 3.71068,-2.59905 3.74059,-8.88803 0.0609,-12.80486 -3.53073,-3.75827 -6.70044,-3.70523 -10.58277,0.17711 -7.81532,7.81532 1.47466,18.96465 10.52184,12.62775 z"
   id="path4624"
   inkscape:connector-curvature="0" /><path
   style="fill:#009688;fill-opacity:0;stroke-width:1.26419747"
   d="M 92.34865,344.6813 C 68.0926,339.42856 47.43842,319.78426 41.08877,295.92775 c -2.34902,-8.82561 -2.32793,-23.96374 0.0461,-33.07822 4.35956,-16.73748 5.87166,-18.57864 64.10123,-78.05129 l 54.63576,-55.80211 -0.35938,-4.97734 c -0.3035,-4.20358 0.2664,-5.5619 3.66593,-8.73754 2.91032,-2.71865 5.2769,-3.76019 8.54385,-3.76019 3.42312,0 7.18992,-1.80498 15.5375,-7.44524 13.75568,-9.294393 22.83273,-12.744803 35.87845,-13.638282 13.09182,-0.896635 23.10871,1.009524 34.37121,6.540644 25.97411,12.756138 41.37736,41.111728 37.13172,68.355168 -2.18225,14.00295 -4.84094,20.31183 -12.75884,30.27567 -8.98341,11.30468 -80.59458,84.02775 -115.47669,117.26971 -27.55544,26.25979 -31.24927,28.69449 -48.5584,32.00629 -11.18972,2.14094 -14.80478,2.11205 -25.49855,-0.20372 z m 4.10864,-83.6983 c 1.26461,-1.11047 2.21235,-3.72353 2.21235,-6.09977 0,-7.26511 -8.71739,-10.75343 -13.90617,-5.56464 -3.43956,3.43955 -3.17736,8.31535 0.65314,12.14585 3.41419,3.41418 6.77104,3.26781 11.04068,-0.48144 z m 47.09136,-9.18129 c 16.75476,-4.44475 20.48957,-7.99547 23.93216,-22.75252 1.91854,-8.22406 3.30489,-10.01903 7.76362,-10.05199 4.61311,-0.0341 13.78694,-3.76167 17.31976,-7.03748 4.54387,-4.21331 6.71845,-8.76827 7.67452,-16.07527 0.43369,-3.31469 1.6977,-7.78485 2.8089,-9.93369 3.75654,-7.26434 -0.32668,-13.0553 -8.63306,-12.24372 -5.23192,0.5112 -9.20647,6.34325 -11.18843,16.41732 -1.78139,9.05468 -3.60337,11.14583 -9.74308,11.18249 -11.67761,0.0697 -20.22973,8.17777 -22.96149,21.76922 -1.62698,8.09477 -4.48839,11.05463 -10.73073,11.09991 -8.19522,0.0594 -18.36563,7.10518 -18.36563,12.72311 0,3.3659 6.47336,9.03315 9.43389,8.25909 1.41679,-0.37042 7.1271,-1.88083 12.68957,-3.35647 z m 104.35908,-63.82917 c 7.11465,-3.67913 4.00851,-15.77 -4.05131,-15.77 -7.89067,0 -11.26715,8.87901 -5.55041,14.59573 3.63226,3.63228 4.61585,3.75257 9.60172,1.17427 z m 0.92012,-46.81453 c 6.35784,-4.4532 1.56582,-16.90258 -5.8332,-15.15433 -3.90167,0.9219 -7.79168,5.03697 -7.79168,8.2425 0,3.4326 4.92453,8.87982 8.02774,8.87982 1.53311,0 4.05182,-0.8856 5.59714,-1.96799 z"
   id="path4626"
   inkscape:connector-curvature="0" /></svg>