<?xml version="1.0" encoding="UTF-8" standalone="no"?>
<!-- Generator: Adobe Illustrator 19.0.0, SVG Export Plug-In . SVG Version: 6.00 Build 0)  -->

<svg
   xmlns:dc="http://purl.org/dc/elements/1.1/"
   xmlns:cc="http://creativecommons.org/ns#"
   xmlns:rdf="http://www.w3.org/1999/02/22-rdf-syntax-ns#"
   xmlns:svg="http://www.w3.org/2000/svg"
   xmlns="http://www.w3.org/2000/svg"
   xmlns:sodipodi="http://sodipodi.sourceforge.net/DTD/sodipodi-0.dtd"
   xmlns:inkscape="http://www.inkscape.org/namespaces/inkscape"
   version="1.1"
   id="Layer_1"
   x="0px"
   y="0px"
   viewBox="0 0 511.986 511.986"
   style="enable-background:new 0 0 511.986 511.986;"
   xml:space="preserve"
   width="512"
   height="512"
   sodipodi:docname="DNAgreen.svg"
   inkscape:version="0.92.4 (5da689c313, 2019-01-14)"><metadata
   id="metadata3911"><rdf:RDF><cc:Work
       rdf:about=""><dc:format>image/svg+xml</dc:format><dc:type
         rdf:resource="http://purl.org/dc/dcmitype/StillImage" /><dc:title></dc:title></cc:Work></rdf:RDF></metadata><defs
   id="defs3909" /><sodipodi:namedview
   pagecolor="#ffffff"
   bordercolor="#666666"
   borderopacity="1"
   objecttolerance="10"
   gridtolerance="10"
   guidetolerance="10"
   inkscape:pageopacity="0"
   inkscape:pageshadow="2"
   inkscape:window-width="1920"
   inkscape:window-height="1003"
   id="namedview3907"
   showgrid="false"
   inkscape:zoom="1.3037281"
   inkscape:cx="92.43971"
   inkscape:cy="287.25343"
   inkscape:window-x="-9"
   inkscape:window-y="-9"
   inkscape:window-maximized="1"
   inkscape:current-layer="g3904" />
<g
   id="g3904"
   transform="translate(5.3690708,-43.719576)">
	
	<path
   d="m 481.752,71.055 c -5.514,0 -10.801,1.468 -15.419,4.215 L 436.708,45.645 c 2.747,-4.618 4.215,-9.905 4.215,-15.419 0,-8.078 -3.146,-15.672 -8.857,-21.383 -11.79,-11.79 -30.974,-11.791 -42.767,0 -30.104,30.104 -39.776,62.952 -42.524,96.242 -23.285,-0.492 -51.101,-0.463 -79.816,6.212 -37.456,8.707 -69.901,27.177 -99.19,56.466 -26.144,26.144 -43.563,54.631 -53.252,87.091 -1.185,3.969 1.072,8.147 5.041,9.332 3.97,1.186 8.147,-1.072 9.332,-5.041 8.96,-30.015 25.147,-56.437 49.486,-80.776 27.249,-27.249 57.335,-44.409 91.98,-52.462 25.312,-5.884 48.666,-6.35 75.605,-5.83 -0.296,10.148 -0.14,20.305 0.091,30.406 0,0.025 10e-4,0.05 10e-4,0.075 -45.127,-0.963 -91.54,0.25 -137.748,41.454 -6.576,5.863 -12.908,12.142 -18.574,18.897 -0.014,0.016 -0.029,0.033 -0.047,0.054 -38.92,45.328 -40.066,90.824 -39.128,135.084 -10.124,-0.232 -20.303,-0.39 -30.474,-0.093 -0.393,-20.298 -0.232,-39.114 2.643,-58.66 0.603,-4.098 -2.23,-7.909 -6.328,-8.512 -4.101,-0.609 -7.909,2.23 -8.512,6.328 -3.062,20.81 -3.208,40.479 -2.789,61.657 -33.291,2.746 -66.141,12.418 -96.247,42.525 -11.791,11.791 -11.791,30.976 0,42.767 5.896,5.896 13.639,8.843 21.383,8.843 5.34,0 10.68,-1.403 15.414,-4.206 l 29.635,29.635 c -6.869,11.599 -5.324,26.836 4.637,36.797 5.711,5.712 13.306,8.857 21.383,8.857 8.077,0 15.671,-3.146 21.383,-8.857 32.163,-32.163 40.125,-67.545 42.488,-96.244 25.457,0.52 51.785,0.314 79.852,-6.209 37.456,-8.707 69.902,-27.177 99.191,-56.466 25.042,-25.042 42.041,-52.173 51.965,-82.944 1.271,-3.942 -0.893,-8.168 -4.835,-9.44 -3.943,-1.274 -8.169,0.894 -9.44,4.835 -9.178,28.453 -24.976,53.621 -48.296,76.942 -27.249,27.248 -57.335,44.409 -91.981,52.462 -28.879,6.713 -56.508,6.305 -83.262,5.663 -30.411,-0.73 -62.847,-2.65 -91.049,10.905 -9.808,4.714 -18.616,11.127 -26.309,18.82 -5.942,5.942 -15.61,5.942 -21.554,0 -5.942,-5.942 -5.942,-15.611 0,-21.554 33.811,-33.811 72.758,-38.965 111.72,-39.092 34.359,-0.086 69.15,3.478 102.994,-4.281 34.736,-7.963 65.093,-28.687 88.127,-55.514 0.122,-0.142 0.231,-0.289 0.341,-0.437 15.068,-20.381 28.162,-41.43 33.896,-66.413 5.785,-25.231 5.336,-49.979 4.704,-76.108 -0.217,-8.955 -0.444,-17.911 -0.424,-26.87 0.125,-38.965 5.276,-77.921 39.092,-111.736 5.943,-5.941 15.612,-5.942 21.553,0 5.877,5.876 5.867,15.688 0,21.554 -7.882,7.882 -13.968,16.312 -18.607,25.772 -6.893,14.056 -9.919,29.807 -10.982,45.336 -1.053,15.385 -0.507,30.856 -0.135,46.257 0.543,22.625 0.918,45.989 -3.096,70.23 -0.677,4.086 2.087,7.948 6.173,8.625 4.087,0.678 7.948,-2.087 8.625,-6.173 3.809,-23 3.884,-44.788 3.454,-65.883 28.699,-2.364 64.083,-10.326 96.245,-42.488 11.791,-11.791 11.791,-30.976 0,-42.767 -5.71,-5.709 -13.304,-8.855 -21.382,-8.855 z M 57.805,426.43 c 3.42,-2.833 7.056,-5.4 10.902,-7.622 l 24.448,24.449 c -1.616,2.809 -3.417,5.501 -5.363,8.092 -0.895,1.192 -1.834,2.346 -2.794,3.485 L 57.14,426.976 c 0.221,-0.186 0.444,-0.362 0.665,-0.546 z m 41.901,2.164 -16.386,-16.386 c 6.641,-2.234 13.61,-3.679 20.976,-4.579 -0.96,7.681 -2.471,14.611 -4.59,20.965 z m 12.373,63.928 c -2.879,2.878 -6.706,4.464 -10.777,4.464 -4.071,0 -7.898,-1.585 -10.777,-4.464 -5.941,-5.941 -5.942,-15.608 0.019,-21.572 7.541,-7.546 13.877,-16.172 18.591,-25.75 5.919,-12.028 8.96,-25.451 10.396,-38.711 3.784,-0.147 7.883,-0.22 12.386,-0.22 5.742,0 11.482,0.112 17.222,0.244 0.338,0.008 0.673,0.015 1.012,0.023 -2.258,25.917 -9.634,57.548 -38.072,85.986 z M 346.406,165.568 c 0.381,18.094 0.376,35.529 -2.152,52.669 l -50.562,-50.562 c 17.335,-2.569 34.853,-2.499 52.714,-2.107 z m -6.957,74.514 c -1.072,3.556 -2.298,7.147 -3.672,10.625 L 261.269,176.2 c 4.802,-1.896 9.728,-3.515 14.852,-4.882 l 64.538,64.538 c -0.06,0.223 -0.126,0.441 -0.187,0.663 -0.325,1.192 -0.666,2.38 -1.023,3.563 z m -23.384,44.896 -89.046,-89.046 c 6.596,-5.12 13.19,-9.403 19.789,-12.979 l 82.226,82.226 c -3.675,6.801 -7.972,13.378 -12.969,19.799 z m -19.646,21.3 -90.724,-90.723 c 0.041,-0.044 0.081,-0.088 0.122,-0.133 2.31,-2.488 8.791,-8.847 9.629,-9.627 0.039,-0.036 0.078,-0.071 0.117,-0.107 l 90.723,90.724 c -0.123,0.131 -6.589,6.822 -9.867,9.866 z m -31.232,22.75 -82.227,-82.226 c 3.577,-6.6 7.86,-13.193 12.979,-19.79 l 89.046,89.046 c -6.42,4.997 -12.997,9.294 -19.798,12.97 z m -14.492,6.75 c -4.84,1.911 -9.805,3.533 -14.833,4.874 l -64.539,-64.538 c 1.367,-5.125 2.986,-10.051 4.882,-14.852 10e-4,0 74.51,74.507 74.49,74.516 z m -85.12,10.621 c -0.391,-17.86 -0.461,-35.378 2.108,-52.713 l 50.561,50.561 c -17.139,2.528 -34.574,2.533 -52.669,2.152 z M 453.244,86.3 c -3.147,2.532 -6.478,4.834 -9.98,6.848 L 418.815,68.7 c 1.128,-1.952 2.346,-3.853 3.65,-5.714 1.415,-2.019 2.923,-3.972 4.518,-5.853 l 27.858,27.858 c -0.526,0.444 -1.06,0.877 -1.597,1.309 z m -41.028,-2.987 16.385,16.385 c -6.354,2.119 -13.284,3.63 -20.965,4.59 0.901,-7.365 2.346,-14.333 4.58,-20.975 z m 80.313,28.759 c -28.437,28.437 -60.069,35.813 -85.987,38.072 -0.25,-10.716 -0.421,-20.971 -0.047,-30.6 11.659,-1.204 24.764,-3.778 37.897,-10.076 9.855,-4.726 18.813,-11.188 26.54,-18.908 0.015,-0.014 0.029,-0.028 0.046,-0.045 5.829,-5.913 15.716,-5.833 21.551,0.002 5.942,5.944 5.942,15.613 0,21.555 z"
   id="path3902"
   inkscape:connector-curvature="0" />
<path
   style="fill:#009688;stroke-width:0.76701009;fill-opacity:0.40366971"
   d="M 23.698435,436.62456 C 19.147485,435.37239 17.1341,434.25408 13.61699,431.02498 8.6219097,426.43892 6.4576844,421.491 6.4482344,414.63555 c -0.0106,-7.7121 2.7643953,-13.06144 10.2523256,-19.76311 20.5082,-18.3548 42.005045,-28.98395 68.35853,-33.79998 15.55193,-2.84208 20.27593,-3.05401 69.79788,-3.13132 52.2055,-0.0815 55.6516,-0.27679 74.64057,-4.22988 28.33094,-5.89787 54.59842,-21.1545 78.04526,-45.33009 25.00491,-25.78208 38.04257,-52.40194 43.3433,-88.49695 0.57449,-3.91196 1.10244,-25.73607 1.45656,-60.21029 0.46493,-45.26294 0.76758,-55.38653 1.85735,-62.12781 4.80112,-29.699455 14.4277,-51.203225 32.29401,-72.13813 6.5477,-7.672293 10.90592,-11.114555 15.97974,-12.621316 8.15462,-2.421663 15.14049,-0.78307 21.52036,5.047785 4.91801,4.494772 7.36999,9.926289 7.36999,16.325612 0,6.778269 -1.73559,10.290759 -9.47319,19.171819 -13.53594,15.5363 -19.32882,28.40337 -23.28345,51.71702 -1.07674,6.34767 -1.28216,14.96674 -1.38412,58.07657 -0.11056,46.74182 -0.2416,51.47527 -1.70934,61.74431 -7.0049,49.00953 -25.53155,85.63043 -60.55202,119.69071 -25.44276,24.74516 -50.58112,39.91731 -81.83375,49.39042 -24.86309,7.53633 -51.2925,9.95904 -98.16297,8.99831 -29.4467,-0.60358 -47.69661,-0.0444 -58.40107,1.78938 -20.842915,3.57063 -35.9414,10.78725 -50.378415,24.07935 -2.81871,2.59518 -6.64269,5.38988 -8.497715,6.21045 -3.92043,1.7342 -10.683435,2.50582 -13.989635,1.59615 z"
   id="path3935"
   inkscape:connector-curvature="0" /><path
   style="fill:#009688;stroke-width:0.76701009;fill-opacity:0.80392158"
   d="m 106.36638,349.50984 c -0.56945,-13.13517 0.53187,-39.02855 2.20184,-51.7678 6.1654,-47.03235 25.83791,-85.531 61.16601,-119.70054 16.65899,-16.11265 32.64003,-27.45776 52.32766,-37.14794 30.36125,-14.94368 59.73585,-20.64403 106.42265,-20.65202 l 18.21649,-0.003 v 22.5293 22.5293 l -21.28453,0.0285 c -29.78129,0.0399 -47.16892,2.29591 -66.05527,8.57061 -22.94941,7.62459 -40.37486,18.8096 -60.36163,38.74484 -23.12324,23.06362 -34.8977,42.99488 -42.12514,71.30751 -4.01948,15.74585 -5.10976,26.14265 -5.55658,52.98706 l -0.39604,23.79407 -22.03525,-0.0168 -22.03525,-0.0168 z"
   id="path3937"
   inkscape:connector-curvature="0" /><path
   style="fill:#009688;stroke-width:0.76701009;fill-opacity:0.80392158"
   d="m 93.10771,507.22492 c -12.77032,-4.1838 -19.27213,-18.84105 -13.651865,-30.77581 1.092625,-2.32021 4.31519,-6.80721 7.16127,-9.97114 9.514935,-10.57755 16.302915,-22.41861 19.786255,-34.51544 2.09044,-7.25962 4.34424,-19.51516 4.36226,-23.72073 0.0224,-5.23488 -0.83752,-5.04815 22.96272,-4.98631 11.82279,0.0307 21.73377,0.29364 22.02442,0.58427 0.73723,0.73724 -1.07584,17.67276 -2.92864,27.35575 -3.24677,16.96805 -10.2179,34.38095 -19.27709,48.15142 -7.86136,11.94971 -18.41277,23.61172 -23.93357,26.45272 -3.34882,1.72329 -13.04144,2.56026 -16.50576,1.42527 z"
   id="path3939"
   inkscape:connector-curvature="0" /><path
   style="fill:#009688;stroke-width:0.76701009;fill-opacity:0.80392158"
   d="m 397.62741,140.36212 c 0.006,-11.94777 0.26533,-22.1057 0.57526,-22.57314 0.30993,-0.46746 4.01506,-1.2737 8.23361,-1.79166 24.06259,-2.95437 37.59196,-9.14541 57.81985,-26.45829 5.48815,-4.69726 9.98882,-6.566065 15.81313,-6.566065 5.61816,0 10.53641,1.924025 14.86381,5.814715 5.30664,4.77111 7.28041,9.225015 7.28041,16.42853 0,7.61074 -1.92446,11.5403 -9.02795,18.43418 -14.58409,14.15374 -31.50112,24.237 -51.21076,30.52378 -11.7416,3.74522 -20.07786,5.29699 -39.9488,7.43635 l -4.41031,0.47482 z"
   id="path3941"
   inkscape:connector-curvature="0" /><path
   style="fill:#217844;stroke-width:0.76701009"
   d="m 417.57143,83.370005 -9.46174,-9.484495 3.16606,-5.32927 c 3.13499,-5.276945 12.88332,-17.797615 13.85685,-17.797615 0.2778,0 4.29255,3.79922 8.92166,8.44271 6.36697,6.386775 8.23159,8.69687 7.65702,9.486365 -0.41775,0.574 -2.24042,2.863645 -4.05039,5.08809 -3.97622,4.886765 -6.731,9.491035 -8.96022,14.97588 l -1.6675,4.10282 z"
   id="path3943"
   inkscape:connector-curvature="0" /><path
   style="fill:#217844;stroke-width:0.76701009"
   d="m 256.09031,187.26483 c -7.40095,-7.4279 -8.96794,-9.37017 -8.04162,-9.96757 2.14974,-1.3864 16.46501,-6.73043 22.54564,-8.4165 l 6.0549,-1.67895 10.64853,10.6175 c 9.03741,9.01109 10.38425,10.64981 8.90179,10.83109 -5.69173,0.69596 -18.6901,3.69352 -24.32034,5.60851 -3.60846,1.22732 -6.56893,2.2315 -6.57881,2.2315 -0.01,0 -4.15441,-4.15151 -9.21009,-9.22558 z"
   id="path3945"
   inkscape:connector-curvature="0" /><path
   style="fill:#217844;stroke-width:0.76701009"
   d="m 202.70959,228.23559 -8.65875,-8.68339 9.61337,-9.61336 c 5.28734,-5.28736 9.93564,-9.61337 10.32953,-9.61337 0.3939,0 4.45121,3.74665 9.01626,8.32589 l 8.30007,8.32589 -9.97086,9.97087 -9.97085,9.97086 z"
   id="path3947"
   inkscape:connector-curvature="0" /><path
   style="fill:#217844;stroke-width:0.76701009"
   d="m 171.97128,292.56615 -10.49291,-10.5541 2.49524,-8.05361 c 2.54157,-8.20315 7.02277,-19.87069 8.02247,-20.88783 0.30383,-0.30913 4.66254,3.55879 9.68601,8.59538 l 9.13358,9.15743 -2.43146,7.69663 c -1.3373,4.23316 -3.14138,11.2376 -4.00908,15.56545 -0.86769,4.32785 -1.65262,8.13114 -1.74429,8.45178 -0.0917,0.32064 -4.88846,-4.16637 -10.65956,-9.97113 z"
   id="path3949"
   inkscape:connector-curvature="0" /><path
   style="fill:#008033;stroke-width:0.76701009"
   d="m 53.38956,439.41088 -8.63427,-8.65884 4.2254,-3.64795 c 5.222405,-4.50872 14.194935,-10.73514 17.357475,-12.04511 l 2.364295,-0.97933 9.28692,9.28695 9.286925,9.28696 -2.247605,0.85453 c -7.04319,2.67783 -16.07017,8.22187 -19.86358,12.19948 -1.239015,1.29918 -2.452695,2.36217 -2.697035,2.36217 -0.24435,0 -4.32968,-3.89649 -9.078525,-8.65886 z"
   id="path3951"
   inkscape:connector-curvature="0" /><path
   style="fill:#5fd38d;stroke-width:0.76701009"
   d="m 73.05909,459.03362 -10.465985,-10.58038 4.71342,-4.04079 c 2.592385,-2.22244 8.15735,-5.76543 12.3666,-7.87329 l 7.65318,-3.83248 6.533715,6.53373 6.53371,6.53373 -1.914765,3.62892 c -1.916185,3.63163 -8.624445,12.93076 -12.757095,17.68416 l -2.196805,2.52677 z"
   id="path3953"
   inkscape:connector-curvature="0" /><path
   style="fill:#5fd38d;stroke-width:0.76701009"
   d="m 206.96938,327.67063 c -13.52373,-13.5328 -24.41695,-24.77675 -24.20715,-24.98654 0.2098,-0.2098 1.11923,-3.91137 2.02095,-8.22571 1.93718,-9.26851 5.74916,-22.80097 6.42284,-22.80097 0.26052,0 16.28916,15.81828 35.61918,35.15173 l 35.1455,35.15173 -4.85172,2.18094 c -6.09597,2.74025 -19.2251,7.18168 -22.83181,7.72374 -2.70818,0.407 -2.9185,0.22073 -27.31779,-24.19492 z"
   id="path3955"
   inkscape:connector-curvature="0" /><path
   style="fill:#5fd38d;stroke-width:0.76701009"
   d="m 253.02173,278.56073 -41.43109,-41.41428 9.99014,-9.96957 9.99013,-9.96958 41.30383,41.30914 c 36.02426,36.02888 41.20317,41.49421 40.51629,42.75701 -0.76048,1.3981 -18.00074,18.70767 -18.62869,18.70358 -0.17024,-7.7e-4 -18.95352,-18.63844 -41.74061,-41.4163 z"
   id="path3957"
   inkscape:connector-curvature="0" /><path
   style="fill:#5fd38d;stroke-width:0.76701009"
   d="m 301.89942,232.32496 c -19.0616,-19.07621 -34.72891,-35.02918 -34.81625,-35.45104 -0.20137,-0.97269 11.58308,-4.45218 22.51938,-6.6491 l 8.39951,-1.68733 24.58683,24.58683 24.58682,24.58683 -1.76442,6.04323 c -1.46512,5.01813 -7.98619,22.38639 -8.65704,23.05725 -0.10856,0.10855 -15.79322,-15.41045 -34.85483,-34.48667 z"
   id="path3959"
   inkscape:connector-curvature="0" /><path
   style="fill:#5fd38d;stroke-width:0.76701009"
   d="m 433.70701,99.505735 -6.44386,-6.477495 2.13958,-5.034225 c 1.98459,-4.66954 6.86709,-12.20785 11.44901,-17.67669 l 1.92786,-2.301025 10.39947,10.343955 c 5.71971,5.689175 10.39947,10.596725 10.39947,10.905675 0,1.254735 -21.3917,16.71729 -23.12758,16.71729 -0.16505,0 -3.19983,-2.91487 -6.74395,-6.477485 z"
   id="path3961"
   inkscape:connector-curvature="0" /><path
   style="fill:#009688;stroke-width:0.76703107;fill-opacity:0.80392158"
   d="m 97.739082,466.44084 c -8.034083,-2.57047 -14.858136,-8.70008 -18.515993,-16.63175 -1.459163,-3.16404 -1.740485,-5.07583 -1.740485,-11.82788 0,-6.7699 0.279617,-8.66034 1.753982,-11.85839 l 1.753981,-3.80457 -14.833663,-14.83367 -14.833665,-14.83366 -3.795002,1.73832 c -3.160158,1.44751 -5.142277,1.74253 -11.848827,1.76354 -6.786316,0.0213 -8.647787,-0.24868 -11.827881,-1.71525 -13.814351,-6.37078 -20.9997496,-21.51285 -16.852085,-35.51306 1.7782777,-6.00248 4.14697,-9.62864 10.047474,-15.38136 22.549689,-21.98492 52.178507,-35.6306 85.079102,-39.18354 l 8.53577,-0.92178 0.40595,-22.66269 c 0.38567,-21.53057 1.27604,-33.82268 2.89946,-40.02905 1.43724,-5.49456 7.51495,-7.01786 11.62033,-2.91248 2.62319,2.62319 2.57661,1.0038 0.57219,19.89533 -0.86072,8.11224 -1.45111,43.28038 -0.73767,43.94162 0.21093,0.1955 7.2005,0.51953 15.53238,0.72008 l 15.14886,0.36462 v -14.30601 c 0,-52.88058 10.72472,-86.45828 38.19343,-119.57861 19.71834,-23.77534 46.23021,-42.81479 72.1698,-51.82857 20.0773,-6.9767 33.03396,-8.92496 62.79404,-9.44223 l 22.43566,-0.38995 V 91.576195 75.942536 l -15.14887,0.0015 c -41.73924,0.0054 -71.75355,6.00547 -100.4421,20.079984 -29.92498,14.68109 -59.79437,41.425 -79.72309,71.38097 -7.1483,10.74501 -16.03664,28.73393 -20.18405,40.85005 -3.48084,10.16884 -4.82044,11.88898 -9.25879,11.88898 -2.31337,0 -3.32479,-0.48705 -4.90073,-2.35995 -2.52533,-3.00117 -2.49335,-4.7214 0.23917,-12.86753 7.31159,-21.79705 18.75428,-42.42789 34.30957,-61.85914 8.13356,-10.16023 24.82167,-26.95339 34.81058,-35.02972 17.01393,-13.75595 39.35667,-26.510588 58.66669,-33.49031 24.11155,-8.71526 54.7093,-13.168458 90.48002,-13.168458 7.15148,0 11.91863,-0.296243 11.91863,-0.740661 0,-2.31773 2.62497,-19.111584 3.94566,-25.243269 5.57168,-25.8681341 20.79901,-53.315976 38.91202,-70.140363 15.37191,-14.27831 38.92896,-9.815022 47.75614,9.048222 3.77731,8.071913 3.71831,15.9944977 -0.19012,25.53346886 l -1.02618,2.50449304 14.54682,14.5619491 c 8.00075,8.00907 14.93781,14.561947 15.41567,14.561947 0.47788,0 2.43383,-0.69226 4.34657,-1.538356 13.52058,-5.980795 30.75403,0.639286 37.53826,14.419991 2.36038,4.794635 2.51629,5.611362 2.51629,13.181292 0,12.24697 -2.41845,16.591097 -15.71309,28.224419 -7.90113,6.913804 -20.1799,15.224785 -29.08495,19.686365 -16.05504,8.04384 -31.41212,12.30837 -55.36884,15.37544 l -3.52096,0.45076 -0.51058,20.10594 c -0.49791,19.60658 -1.08587,28.01692 -2.87096,41.0666 -1.01211,7.39883 -2.64737,9.91685 -6.87716,10.58962 -2.23587,0.35563 -3.18696,0.0468 -5.28047,-1.71481 l -2.55341,-2.14856 0.49243,-6.17316 c 0.27084,-3.39523 0.89803,-8.93446 1.39377,-12.30939 0.60827,-4.14106 0.93912,-22.47187 1.01755,-56.37679 0.0985,-42.592848 0.30732,-51.375431 1.37163,-57.696059 4.11116,-24.414959 11.11939,-39.805238 25.40323,-55.78627403 6.4975,-7.26952257 7.67353,-9.87135257 7.17564,-15.87525297 -0.68575,-8.269225 -6.89613,-13.704941 -15.63047,-13.68077 -6.04912,0.01675 -8.98838,1.915958 -16.80873,10.861062 -18.5241,21.1883182 -28.80827,46.67914 -31.84373,78.929417 -0.51534,5.475191 -0.94859,29.007068 -1.05914,57.527337 -0.1926,49.68712 -0.24437,50.65472 -3.62518,67.76108 -3.52563,17.83921 -11.85915,36.59168 -25.16416,56.62559 -8.61451,12.97122 -16.19,21.93185 -25.86954,30.59965 -28.1092,25.17112 -56.09359,37.91854 -93.44797,42.56731 -5.33859,0.66439 -22.5933,0.97441 -56.7603,1.01983 -46.73422,0.0621 -49.60531,0.14668 -59.82842,1.76201 -30.715315,4.85326 -52.133374,14.57064 -72.227122,32.76948 -6.880845,6.23196 -8.69466,9.47694 -8.69466,15.55512 0,8.72934 6.441355,15.05149 15.340622,15.05675 5.273737,0.003 7.768659,-1.29181 14.642227,-7.59968 13.728387,-12.59853 30.012963,-20.3604 51.049573,-24.33224 8.76567,-1.65501 10.82316,-1.72034 57.03317,-1.81093 56.77719,-0.1113 67.92684,-0.91376 91.2767,-6.56936 40.27551,-9.75519 77.52368,-34.57311 106.87568,-71.20973 11.03503,-13.77371 22.62086,-34.32472 28.53982,-50.62405 3.13735,-8.6395 4.29678,-10.51768 7.17101,-11.61652 4.05542,-1.5504 9.28565,2.31801 9.28565,6.86789 0,2.7152 -6.10249,18.0974 -11.46933,28.91011 -11.28806,22.74235 -28.07761,44.64885 -48.3591,63.09751 -26.83414,24.40917 -54.99901,39.88618 -87.67563,48.17908 -19.30576,4.89955 -33.3856,6.51454 -61.17738,7.01721 l -22.6764,0.41015 -0.91868,8.14676 c -3.7808,33.52771 -16.70802,61.88989 -38.75891,85.03656 -2.5092,2.6339 -6.14918,5.7962 -8.08885,7.02735 -7.2756,4.61798 -16.54335,5.82679 -24.689878,3.22036 z m 16.134138,-14.63095 c 1.63001,-0.83157 5.32677,-4.13853 8.21503,-7.34881 18.35651,-20.40315 29.07187,-44.22183 32.76329,-72.82806 0.59883,-4.64054 0.9249,-8.60992 0.72459,-8.82086 -0.2003,-0.21093 -7.21536,-0.4897 -15.58902,-0.61948 l -15.22484,-0.23598 -0.51193,3.68762 c -3.38078,24.35251 -11.08909,41.95746 -25.211286,57.57983 -6.442632,7.12702 -7.671914,9.49253 -7.668808,14.75706 0.0054,8.89927 6.327416,15.34062 15.056754,15.34062 2.94702,0 5.4978,-0.51793 7.44622,-1.51194 z M 94.09718,406.93596 c 5.704318,-7.51651 6.36044,-5.78796 -7.444812,-19.61346 -6.720948,-6.73081 -12.501765,-12.23784 -12.846258,-12.23784 -0.919784,0 -9.247328,5.76105 -10.487417,7.25527 -0.949249,1.14377 0.403267,2.74788 12.680918,15.03976 7.558922,7.56768 14.091358,13.64624 14.516523,13.50789 0.425165,-0.13835 2.036636,-1.91658 3.581046,-3.95162 z m 12.52564,-25.90681 c 1.39131,-4.65724 3.61341,-16.7838 3.1588,-17.23841 -0.74753,-0.74753 -19.502805,3.30696 -20.76754,4.48949 -0.698297,0.65292 14.53143,16.77583 15.84646,16.77583 0.3076,0 1.10062,-1.81211 1.76228,-4.02691 z m 105.09022,-78.81332 c 4.64054,-0.42164 9.27612,-0.96128 10.3013,-1.19919 1.67882,-0.3896 -0.64267,-2.94005 -23.37309,-25.67831 -13.88038,-13.88515 -25.47037,-24.99452 -25.75553,-24.68747 -1.09407,1.17807 -2.20884,18.99703 -2.20884,35.30705 v 17.02583 l 16.29941,-6.5e-4 c 8.96468,-3.5e-4 20.09622,-0.34561 24.73675,-0.76726 z m 37.58191,-7.38117 c 3.37638,-1.10705 6.38977,-2.23813 6.69643,-2.51349 0.30666,-0.27536 -16.33177,-17.38736 -36.97428,-38.02665 -30.45666,-30.45191 -37.63312,-37.26207 -38.06907,-36.126 -0.29547,0.76998 -1.4863,4.20457 -2.64627,7.63241 l -2.10906,6.23243 32.33038,32.40707 c 17.78171,17.82388 32.84847,32.40706 33.48169,32.40706 0.63323,0 3.91381,-0.90577 7.29018,-2.01283 z m 29.35027,-13.90307 c 3.82276,-2.42573 8.10282,-5.33573 9.51125,-6.46666 l 2.56078,-2.05624 -44.48533,-44.5409 c -24.46693,-24.4975 -44.73538,-44.5409 -45.04099,-44.5409 -0.76864,0 -8.44061,11.01035 -11.08435,15.90759 l -2.1715,4.02246 41.03348,41.04254 c 22.56841,22.5734 41.41433,41.04254 41.87983,41.04254 0.46549,0 3.97407,-1.98469 7.79683,-4.41043 z m 29.95308,-24.28567 c 1.76677,-1.91671 3.2123,-3.75042 3.2123,-4.07492 0,-0.90209 -90.0089,-90.72098 -90.9129,-90.72098 -0.4354,0 -3.01967,2.24803 -5.74284,4.99562 l -4.95122,4.99561 45.57537,45.58019 45.57536,45.5802 2.01581,-1.4354 c 1.10871,-0.78945 3.46135,-3.0036 5.22812,-4.92032 z m 16.53137,-19.82461 c 1.88383,-2.63997 4.86998,-7.17818 6.63589,-10.0849 l 3.21072,-5.28497 -41.38355,-41.38355 -41.38355,-41.38355 -5.28497,3.21072 c -2.90672,1.7659 -7.48447,4.78027 -10.17276,6.69859 l -4.8878,3.48787 44.76496,44.76986 c 24.62073,24.62343 44.83492,44.76987 44.92042,44.76987 0.0855,0 1.69679,-2.15997 3.58064,-4.79994 z m 18.92807,-37.0988 2.45943,-7.38235 -32.5847,-32.5847 -32.5847,-32.5847 -6.51581,2.07557 c -3.58371,1.14155 -6.9982,2.37828 -7.58777,2.74828 -0.8043,0.50475 8.21564,9.96546 36.1261,37.89148 20.45893,20.47032 37.42979,37.21876 37.71303,37.21876 0.28324,0 1.62174,-3.32206 2.97442,-7.38234 z m 7.62668,-44.00874 c 0.4841,-7.38268 0.77107,-18.08276 0.63774,-23.77796 l -0.24243,-10.35492 -11.50546,-0.23594 c -10.89084,-0.22334 -32.58031,0.82788 -39.00181,1.89028 l -2.95133,0.48829 25.57875,25.59257 25.57876,25.59257 0.51281,-2.88592 c 0.28204,-1.58726 0.90888,-8.9263 1.39297,-16.30897 z m 71.24725,-50.28838 c 26.99174,-3.9678 49.00716,-13.776933 68.37687,-30.465827 9.05686,-7.80336 11.07749,-10.880528 11.09526,-16.896621 0.026,-8.80758 -5.38005,-15.012263 -13.67969,-15.700536 -5.99451,-0.497113 -8.90663,0.787266 -15.62359,6.890701 -10.54917,9.585626 -21.80576,16.271567 -34.56756,20.531688 -7.24766,2.419393 -20.8268,5.39071 -24.63595,5.39071 h -2.37237 v 15.724137 c 0,18.282028 -1.46398,16.417798 11.40703,14.525748 z m 4.29518,-47.226722 c 3.36287,-0.853207 6.42024,-1.740363 6.79415,-1.971454 0.63656,-0.39341 -15.40357,-17.10217 -16.41779,-17.10217 -0.62345,0 -3.72431,12.74739 -4.31588,17.742281 l -0.4695,3.964177 4.14735,-0.540772 c 2.28104,-0.297424 6.89879,-1.238855 10.26167,-2.092062 z m 30.25864,-14.365326 3.20495,-2.79072 -14.21218,-14.166521 C 430.3658,10.815416 432.73427,11.609564 426.82363,20.285892 l -3.10323,4.555296 12.4595,12.476693 12.4595,12.476688 2.82057,-1.585253 c 1.55131,-0.871885 4.2628,-2.841076 6.02552,-4.375974 z"
   id="path3963"
   inkscape:connector-curvature="0"
   transform="matrix(0.99997266,0,0,0.99997266,-5.3690708,43.719576)" /></g>















</svg>