<?xml version="1.0" encoding="iso-8859-1"?>
<!-- Generator: Adobe Illustrator 19.0.0, SVG Export Plug-In . SVG Version: 6.00 Build 0)  -->
<svg xmlns="http://www.w3.org/2000/svg" xmlns:xlink="http://www.w3.org/1999/xlink" version="1.1" id="Layer_1" x="0px" y="0px" viewBox="0 0 511.986 511.986" style="enable-background:new 0 0 511.986 511.986;" xml:space="preserve" width="512" height="512">
<g>
	<g>
		
			<rect x="61.528" y="385.727" transform="matrix(0.7071 -0.7071 0.7071 0.7071 -286.0237 181.4394)" style="fill:#FFDE76;" width="28.954" height="100.507"/>
		
			<rect x="241.516" y="160.408" transform="matrix(0.7071 -0.7071 0.7071 0.7071 -106.0357 255.9929)" style="fill:#FFDE76;" width="28.954" height="191.171"/>
		
			<rect x="194.051" y="220.916" transform="matrix(0.7071 -0.7071 0.7071 0.7071 -153.5003 236.3324)" style="fill:#FFDE76;" width="28.954" height="165.083"/>
		
			<rect x="288.98" y="125.987" transform="matrix(-0.7071 0.7071 -0.7071 -0.7071 665.486 141.4031)" style="fill:#FFDE76;" width="28.954" height="165.083"/>
		
			<rect x="421.504" y="25.751" transform="matrix(-0.7071 0.7071 -0.7071 -0.7071 798.0094 -178.5366)" style="fill:#FFDE76;" width="28.954" height="100.507"/>
		<path style="fill:#FFB641;" d="M255.329,139.926l-20.474,20.474l32.265,32.265c10.442-4.161,21.267-6.672,32.843-8.105    L255.329,139.926z"/>
		<path style="fill:#FFB641;" d="M198.641,178.167l-20.474,20.474l34.947,34.947c2.973-3.55,6.225-7.107,9.796-10.677    c3.572-3.572,7.123-6.82,10.671-9.803L198.641,178.167z"/>
		<path style="fill:#FFB641;" d="M160.399,234.855l-20.474,20.474l44.587,44.587c1.398-11.22,3.895-22.072,8.184-32.763    L160.399,234.855z"/>
		<path style="fill:#FC7176;" d="M497.832,117.383c-43.318,43.318-93.568,42.094-142.164,40.91    c-51.958-1.266-101.034-2.462-150.436,46.94c-49.402,49.402-48.206,98.478-46.94,150.436c1.184,48.595,2.409,98.845-40.91,142.164    c-8.881,8.881-23.28,8.881-32.16,0c-8.881-8.881-8.881-23.279,0-32.16c29.536-29.536,28.682-64.557,27.602-108.896    c-0.686-28.139-1.394-57.237,5.784-88.118c8.38-36.051,26.195-67.317,54.464-95.586s59.535-46.084,95.586-54.464    c30.882-7.178,59.979-6.47,88.119-5.784c44.339,1.08,79.36,1.934,108.896-27.602c8.881-8.881,23.28-8.881,32.16,0    C506.713,94.103,506.713,108.502,497.832,117.383z"/>
		<path style="fill:#FFB641;" d="M410.683,30.233l-20.474,20.474l38.548,38.548c3.102-9.447,8.014-17.594,15.684-25.264    L410.683,30.233z"/>
		<path style="fill:#FFB641;" d="M89.226,428.728l-38.518-38.519l-20.474,20.474l33.758,33.758    C71.67,436.761,79.847,431.837,89.226,428.728z"/>
		<path style="fill:#80C9FF;" d="M394.603,14.153c-43.318,43.318-42.094,93.568-40.91,142.164    c1.266,51.958,2.462,101.034-46.94,150.436c-49.402,49.402-98.478,48.206-150.436,46.94c-48.595-1.184-98.845-2.409-142.164,40.91    c-8.881,8.881-8.881,23.28,0,32.16s23.279,8.881,32.16,0c29.536-29.536,64.557-28.682,108.896-27.602    c28.139,0.686,57.237,1.394,88.118-5.784c36.051-8.38,67.317-26.195,95.586-54.464c28.269-28.269,46.084-59.535,54.464-95.585    c7.178-30.882,6.47-59.979,5.784-88.119c-1.08-44.339-1.934-79.36,27.602-108.896c8.881-8.881,8.881-23.28,0-32.16    S403.484,5.273,394.603,14.153z"/>
	</g>
	<path d="M481.752,71.055c-5.514,0-10.801,1.468-15.419,4.215l-29.625-29.625c2.747-4.618,4.215-9.905,4.215-15.419   c0-8.078-3.146-15.672-8.857-21.383c-11.79-11.79-30.974-11.791-42.767,0c-30.104,30.104-39.776,62.952-42.524,96.242   c-23.285-0.492-51.101-0.463-79.816,6.212c-37.456,8.707-69.901,27.177-99.19,56.466c-26.144,26.144-43.563,54.631-53.252,87.091   c-1.185,3.969,1.072,8.147,5.041,9.332c3.97,1.186,8.147-1.072,9.332-5.041c8.96-30.015,25.147-56.437,49.486-80.776   c27.249-27.249,57.335-44.409,91.98-52.462c25.312-5.884,48.666-6.35,75.605-5.83c-0.296,10.148-0.14,20.305,0.091,30.406   c0,0.025,0.001,0.05,0.001,0.075c-45.127-0.963-91.54,0.25-137.748,41.454c-6.576,5.863-12.908,12.142-18.574,18.897   c-0.014,0.016-0.029,0.033-0.047,0.054c-38.92,45.328-40.066,90.824-39.128,135.084c-10.124-0.232-20.303-0.39-30.474-0.093   c-0.393-20.298-0.232-39.114,2.643-58.66c0.603-4.098-2.23-7.909-6.328-8.512c-4.101-0.609-7.909,2.23-8.512,6.328   c-3.062,20.81-3.208,40.479-2.789,61.657c-33.291,2.746-66.141,12.418-96.247,42.525c-11.791,11.791-11.791,30.976,0,42.767   c5.896,5.896,13.639,8.843,21.383,8.843c5.34,0,10.68-1.403,15.414-4.206l29.635,29.635c-6.869,11.599-5.324,26.836,4.637,36.797   c5.711,5.712,13.306,8.857,21.383,8.857s15.671-3.146,21.383-8.857c32.163-32.163,40.125-67.545,42.488-96.244   c25.457,0.52,51.785,0.314,79.852-6.209c37.456-8.707,69.902-27.177,99.191-56.466c25.042-25.042,42.041-52.173,51.965-82.944   c1.271-3.942-0.893-8.168-4.835-9.44c-3.943-1.274-8.169,0.894-9.44,4.835c-9.178,28.453-24.976,53.621-48.296,76.942   c-27.249,27.248-57.335,44.409-91.981,52.462c-28.879,6.713-56.508,6.305-83.262,5.663c-30.411-0.73-62.847-2.65-91.049,10.905   c-9.808,4.714-18.616,11.127-26.309,18.82c-5.942,5.942-15.61,5.942-21.554,0c-5.942-5.942-5.942-15.611,0-21.554   c33.811-33.811,72.758-38.965,111.72-39.092c34.359-0.086,69.15,3.478,102.994-4.281c34.736-7.963,65.093-28.687,88.127-55.514   c0.122-0.142,0.231-0.289,0.341-0.437c15.068-20.381,28.162-41.43,33.896-66.413c5.785-25.231,5.336-49.979,4.704-76.108   c-0.217-8.955-0.444-17.911-0.424-26.87c0.125-38.965,5.276-77.921,39.092-111.736c5.943-5.941,15.612-5.942,21.553,0   c5.877,5.876,5.867,15.688,0,21.554c-7.882,7.882-13.968,16.312-18.607,25.772c-6.893,14.056-9.919,29.807-10.982,45.336   c-1.053,15.385-0.507,30.856-0.135,46.257c0.543,22.625,0.918,45.989-3.096,70.23c-0.677,4.086,2.087,7.948,6.173,8.625   c4.087,0.678,7.948-2.087,8.625-6.173c3.809-23,3.884-44.788,3.454-65.883c28.699-2.364,64.083-10.326,96.245-42.488   c11.791-11.791,11.791-30.976,0-42.767C497.424,74.201,489.83,71.055,481.752,71.055z M57.805,426.43   c3.42-2.833,7.056-5.4,10.902-7.622l24.448,24.449c-1.616,2.809-3.417,5.501-5.363,8.092c-0.895,1.192-1.834,2.346-2.794,3.485   l-27.858-27.858C57.361,426.79,57.584,426.614,57.805,426.43z M99.706,428.594L83.32,412.208c6.641-2.234,13.61-3.679,20.976-4.579   C103.336,415.31,101.825,422.24,99.706,428.594z M112.079,492.522c-2.879,2.878-6.706,4.464-10.777,4.464   s-7.898-1.585-10.777-4.464c-5.941-5.941-5.942-15.608,0.019-21.572c7.541-7.546,13.877-16.172,18.591-25.75   c5.919-12.028,8.96-25.451,10.396-38.711c3.784-0.147,7.883-0.22,12.386-0.22c5.742,0,11.482,0.112,17.222,0.244   c0.338,0.008,0.673,0.015,1.012,0.023C147.893,432.453,140.517,464.084,112.079,492.522z M346.406,165.568   c0.381,18.094,0.376,35.529-2.152,52.669l-50.562-50.562C311.027,165.106,328.545,165.176,346.406,165.568z M339.449,240.082   c-1.072,3.556-2.298,7.147-3.672,10.625L261.269,176.2c4.802-1.896,9.728-3.515,14.852-4.882l64.538,64.538   c-0.06,0.223-0.126,0.441-0.187,0.663C340.147,237.711,339.806,238.899,339.449,240.082z M316.065,284.978l-89.046-89.046   c6.596-5.12,13.19-9.403,19.789-12.979l82.226,82.226C325.359,271.98,321.062,278.557,316.065,284.978z M296.419,306.278   l-90.724-90.723c0.041-0.044,0.081-0.088,0.122-0.133c2.31-2.488,8.791-8.847,9.629-9.627c0.039-0.036,0.078-0.071,0.117-0.107   l90.723,90.724C306.163,296.543,299.697,303.234,296.419,306.278z M265.187,329.028l-82.227-82.226   c3.577-6.6,7.86-13.193,12.979-19.79l89.046,89.046C278.565,321.055,271.988,325.352,265.187,329.028z M250.695,335.778   c-4.84,1.911-9.805,3.533-14.833,4.874l-64.539-64.538c1.367-5.125,2.986-10.051,4.882-14.852   C176.206,261.262,250.715,335.769,250.695,335.778z M165.575,346.399c-0.391-17.86-0.461-35.378,2.108-52.713l50.561,50.561   C201.105,346.775,183.67,346.78,165.575,346.399z M453.244,86.3c-3.147,2.532-6.478,4.834-9.98,6.848L418.815,68.7   c1.128-1.952,2.346-3.853,3.65-5.714c1.415-2.019,2.923-3.972,4.518-5.853l27.858,27.858   C454.315,85.435,453.781,85.868,453.244,86.3z M412.216,83.313l16.385,16.385c-6.354,2.119-13.284,3.63-20.965,4.59   C408.537,96.923,409.982,89.955,412.216,83.313z M492.529,112.072c-28.437,28.437-60.069,35.813-85.987,38.072   c-0.25-10.716-0.421-20.971-0.047-30.6c11.659-1.204,24.764-3.778,37.897-10.076c9.855-4.726,18.813-11.188,26.54-18.908   c0.015-0.014,0.029-0.028,0.046-0.045c5.829-5.913,15.716-5.833,21.551,0.002C498.471,96.461,498.471,106.13,492.529,112.072z"/>
</g>















</svg>
