<?xml version="1.0" encoding="UTF-8" standalone="no"?>
<!-- Generator: Adobe Illustrator 19.0.0, SVG Export Plug-In . SVG Version: 6.00 Build 0)  -->

<svg
   xmlns:dc="http://purl.org/dc/elements/1.1/"
   xmlns:cc="http://creativecommons.org/ns#"
   xmlns:rdf="http://www.w3.org/1999/02/22-rdf-syntax-ns#"
   xmlns:svg="http://www.w3.org/2000/svg"
   xmlns="http://www.w3.org/2000/svg"
   xmlns:sodipodi="http://sodipodi.sourceforge.net/DTD/sodipodi-0.dtd"
   xmlns:inkscape="http://www.inkscape.org/namespaces/inkscape"
   version="1.1"
   id="Capa_1"
   x="0px"
   y="0px"
   viewBox="0 0 512.003 512.003"
   style="enable-background:new 0 0 512.003 512.003;"
   xml:space="preserve"
   sodipodi:docname="plantgreen.svg"
   inkscape:version="0.92.4 (5da689c313, 2019-01-14)"><metadata
   id="metadata4137"><rdf:RDF><cc:Work
       rdf:about=""><dc:format>image/svg+xml</dc:format><dc:type
         rdf:resource="http://purl.org/dc/dcmitype/StillImage" /><dc:title></dc:title></cc:Work></rdf:RDF></metadata><defs
   id="defs4135" /><sodipodi:namedview
   pagecolor="#ffffff"
   bordercolor="#666666"
   borderopacity="1"
   objecttolerance="10"
   gridtolerance="10"
   guidetolerance="10"
   inkscape:pageopacity="0"
   inkscape:pageshadow="2"
   inkscape:window-width="1920"
   inkscape:window-height="1003"
   id="namedview4133"
   showgrid="false"
   inkscape:zoom="0.92186961"
   inkscape:cx="-18.525787"
   inkscape:cy="300.44077"
   inkscape:window-x="-9"
   inkscape:window-y="-9"
   inkscape:window-maximized="1"
   inkscape:current-layer="Capa_1" />

















<g
   id="g4102">
</g>
<g
   id="g4104">
</g>
<g
   id="g4106">
</g>
<g
   id="g4108">
</g>
<g
   id="g4110">
</g>
<g
   id="g4112">
</g>
<g
   id="g4114">
</g>
<g
   id="g4116">
</g>
<g
   id="g4118">
</g>
<g
   id="g4120">
</g>
<g
   id="g4122">
</g>
<g
   id="g4124">
</g>
<g
   id="g4126">
</g>
<g
   id="g4128">
</g>
<g
   id="g4130">
</g>
<path
   style="fill:#009688;fill-opacity:0.80392157;stroke-width:1.08475208"
   d="m 367.27772,402.29695 c 2.36654,-5.63731 2.23232,-18.95018 -0.25427,-25.22049 -2.93222,-7.39403 -7.69386,-13.80212 -13.31479,-17.91867 -9.0867,-6.65475 -12.3375,-7.33295 -38.48243,-8.02845 l -23.65669,-0.6293 9.39529,-10.84753 c 11.36116,-13.11727 25.44344,-31.60163 25.44344,-33.397 0,-0.71715 17.81705,16.50812 39.59345,38.27839 21.7764,21.77027 39.59345,39.90123 39.59345,40.29102 0,0.67148 -38.21351,21.53985 -39.44312,21.53985 -0.3201,0 0.18645,-1.83052 1.12567,-4.06782 z"
   id="path4143"
   inkscape:connector-curvature="0" /><path
   style="fill:#009688;fill-opacity:0.80392157;stroke-width:1.08475208"
   d="M 2.0673878,432.94119 V 369.4832 H 53.050738 104.03409 v 63.45799 63.458 H 53.050738 2.0673878 Z m 68.4741902,45.51467 c 9.56633,-3.36986 17.22123,-14.19885 17.22123,-24.362 0,-13.65398 -12.38008,-26.03405 -26.03406,-26.03405 -13.55535,0 -26.03405,12.38101 -26.03405,25.83025 0,6.38317 2.38355,12.1395 7.28318,17.58907 7.23367,8.04557 17.29795,10.59298 27.5637,6.97673 z"
   id="path4149"
   inkscape:connector-curvature="0" /><path
   style="fill:#afe9af;stroke-width:1.08475208"
   d="m 267.83165,187.63518 c 0,-4.52463 3.47755,-15.44666 7.59998,-23.86945 8.17105,-16.69477 24.6664,-31.07218 43.38337,-37.81311 6.1837,-2.22706 10.93343,-3.07042 19.79673,-3.5151 l 11.66108,-0.58503 v 2.75123 c 0,3.70497 -4.00695,16.48059 -7.05857,22.5053 -7.05957,13.93745 -20.45325,27.11544 -34.54064,33.98441 -9.91589,4.83496 -18.62675,7.06891 -30.9842,7.94606 -9.27283,0.65821 -9.85775,0.57488 -9.85775,-1.40431 z"
   id="path4151"
   inkscape:connector-curvature="0" /><path
   style="fill:#afe9af;stroke-width:1.08475208"
   d="m 229.7238,188.25253 c -31.76574,-4.66667 -57.66761,-29.82072 -63.86897,-62.02499 l -0.78332,-4.06782 h 8.90122 c 31.09971,0 60.21816,20.89184 70.55789,50.62373 1.4187,4.07946 2.91095,9.49028 3.31611,12.02405 l 0.73667,4.60685 -6.37597,-0.13228 c -3.50678,-0.0728 -9.12441,-0.53605 -12.48363,-1.02954 z"
   id="path4153"
   inkscape:connector-curvature="0" /><path
   style="fill:#afe9af;stroke-width:1.08475208"
   d="M 232.19844,68.838014 C 211.21416,65.8344 191.41747,49.493439 185.09353,29.955786 c -3.59615,-11.110218 -3.64864,-10.848551 2.17461,-10.839327 14.79039,0.02343 31.06474,5.937821 41.70582,15.156648 8.53365,7.39306 16.23547,20.662021 18.74414,32.293062 l 0.7604,3.525445 -4.69639,-0.133889 c -2.58301,-0.07364 -7.79567,-0.577508 -11.58367,-1.119711 z"
   id="path4155"
   inkscape:connector-curvature="0" /><path
   style="fill:#afe9af;stroke-width:1.08475208"
   d="m 267.83165,68.579888 c 0,-2.963711 3.966,-13.822453 7.17356,-19.64094 4.43072,-8.03727 15.98041,-18.878811 24.62507,-23.115225 8.36818,-4.100919 19.11396,-6.669226 28.01862,-6.696623 l 6.12202,-0.01883 -1.00905,4.610196 c -4.37816,20.003088 -23.73132,39.73203 -43.23578,44.075282 -2.68443,0.597768 -8.66385,1.426661 -13.28761,1.841983 -7.43041,0.667425 -8.40683,0.544794 -8.40683,-1.055838 z"
   id="path4157"
   inkscape:connector-curvature="0" /><path
   style="fill:#afe9af;stroke-width:1.08475208"
   d="m 70.47132,48.146729 -5.42376,-5.470237 5.42376,-5.377285 5.42376,-5.377285 5.42376,5.423761 5.42376,5.42376 -5.42376,5.423761 -5.42376,5.42376 z"
   id="path4159"
   inkscape:connector-curvature="0" /><path
   style="fill:#009688;fill-opacity:0.37155965;stroke-width:1.08475208"
   d="m 250.19346,350.23111 -16.01106,-0.33157 -8.16963,-5.33319 c -14.80555,-9.66517 -33.40662,-15.21898 -50.97208,-15.21898 -5.14609,0 -9.19381,-0.3661 -8.99494,-0.81356 0.64614,-1.45382 58.75734,-58.18358 65.00373,-63.45845 9.62236,-8.12575 14.82481,-10.04529 27.01941,-9.96928 16.44253,0.10247 18.63652,1.4623 45.68459,28.3149 l 22.52897,22.36616 -4.15003,6.08517 c -5.20036,7.62527 -12.72583,17.02141 -23.60434,29.47189 l -8.45901,9.68134 -11.93227,-0.23143 c -6.56275,-0.12729 -19.13725,-0.38064 -27.94334,-0.563 z m 16.55344,-24.138 v -8.67801 h -8.67801 -8.67802 v 8.67801 8.67802 h 8.67802 8.67801 z m 34.71207,-16.81365 v -9.2204 h -9.22039 -9.2204 v 9.2204 9.22039 h 9.2204 9.22039 z m -59.66137,-8.67802 v -9.22039 h -9.22039 -9.22039 v 9.22039 9.22039 h 9.22039 9.22039 z"
   id="path4161"
   inkscape:connector-curvature="0" /><path
   style="fill:#afe9af;stroke-width:1.08475208"
   d="m 122.47487,430.53241 v -65.96536 l 5.51201,-3.60848 c 14.30056,-9.36196 25.85844,-12.6022 44.92897,-12.59578 19.83336,0.007 30.80009,3.55139 49.03604,15.84967 l 7.81547,5.27074 32.32036,0.003 c 17.7762,0.002 42.29264,0.32593 54.48099,0.72082 l 22.16062,0.71798 4.21484,3.80785 c 5.50988,4.97785 7.57897,9.1714 7.57897,15.36079 0,6.18944 -2.06909,10.38294 -7.57917,15.36097 l -4.21503,3.80803 -20.5333,0.71758 c -11.29332,0.39469 -33.61525,0.71899 -49.60429,0.72067 -34.41251,0.004 -36.55652,0.54458 -36.55652,9.22346 0,3.99993 1.11421,5.92565 4.41659,7.63338 2.58817,1.33839 12.7557,1.58701 64.90258,1.58701 h 61.83364 l 43.17439,-23.17839 c 63.69666,-34.19589 70.38421,-37.37375 75.79312,-36.0162 2.89737,0.72719 10.77577,7.3651 12.44636,10.48663 0.86803,1.62193 -0.7833,3.22863 -10.63324,10.34588 -15.23228,11.00636 -95.8111,64.83112 -112.54279,75.17594 -12.78143,7.90247 -17.83564,11.43686 -12.47465,8.72346 7.88019,-3.98845 70.61816,-45.26286 118.5363,-77.98335 8.81496,-6.01923 16.73501,-10.94405 17.6001,-10.94405 1.18883,0 1.40924,0.86079 0.9027,3.52544 -1.04039,5.47289 -3.18883,8.97515 -7.64976,12.47018 -9.08843,7.12058 -102.72252,69.80459 -128.84696,86.25754 -9.75098,6.14107 -9.77521,6.14917 -20.06792,6.70953 -5.66783,0.30855 -56.80033,0.83543 -113.62778,1.17081 l -103.32264,0.60981 z m 229.45991,48.02373 c 2.06898,-0.86448 3.76179,-1.82868 3.76179,-2.14266 0,-0.31398 -1.34238,0.0272 -2.98306,0.75821 -2.23369,0.99521 -23.96577,1.46868 -86.50898,1.88476 l -83.52592,0.55565 82.74719,0.25791 c 70.22184,0.21886 83.31661,0.02 86.50898,-1.31387 z"
   id="path4163"
   inkscape:connector-curvature="0" /><path
   style="fill:#009688;fill-opacity:0.81192663;stroke-width:1.08475208"
   d="m 2.0673878,505.61959 v -8.13565 H 53.593108 105.11884 V 432.94119 368.39844 H 53.593108 2.0673878 v -8.13564 -8.13564 H 56.094248 110.12111 l 3.73619,-2.77312 c 2.0549,-1.52522 6.42095,-4.28067 9.70232,-6.12324 4.27247,-2.3991 18.74562,-16.04908 50.98335,-48.08372 26.85518,-26.68599 47.45449,-46.2792 51.05836,-48.56458 4.93272,-3.12807 15.25079,-7.28585 22.4336,-9.03986 1.00735,-0.24599 1.35594,-4.38346 1.35594,-16.09407 v -15.76294 l -10.03396,-0.0189 c -47.75991,-0.0897 -87.42946,-37.70087 -91.52192,-86.77311 -0.67666,-8.11362 -0.58828,-8.5874 2.10401,-11.27968 2.7438,-2.74381 3.15169,-2.80999 17.2326,-2.79608 18.27308,0.018 31.43289,2.5873 43.90471,8.57171 14.6487,7.02893 25.12664,15.16052 34.13972,26.49471 l 4.17484,5.25002 V 115.74862 86.362895 h -9.04688 c -26.59481,0 -52.19602,-14.990536 -65.76613,-38.5087 -4.8437,-8.394548 -8.75816,-21.382212 -9.46549,-31.405278 -0.57754,-8.1836389 -0.42933,-9.1757653 1.68684,-11.2919301 2.15446,-2.1544569 3.42998,-2.3200038 17.87539,-2.3200038 18.71923,0 28.07984,2.0308865 41.17763,8.9339289 10.17079,5.360409 23.25417,17.598268 28.42002,26.58338 1.78984,3.113121 3.49916,5.669906 3.7985,5.681745 0.29933,0.01184 1.75655,-2.297131 3.23827,-5.131046 4.4481,-8.50738 18.68118,-21.855453 28.99141,-27.188737 13.33284,-6.8968211 22.5137,-8.8792709 41.12049,-8.8792709 14.56174,0 15.64876,0.1455936 17.72488,2.3740466 4.48096,4.8097383 1.65916,22.8826993 -6.0327,38.6380603 -12.308,25.210699 -36.14798,40.761685 -64.9763,42.38449 l -11.93227,0.671691 -0.2892,28.474749 c -0.15907,15.66111 -0.0708,28.47474 0.19616,28.47474 0.26694,0 5.27847,-4.79547 11.13672,-10.65659 20.66628,-20.67644 40.19809,-28.36723 72.09087,-28.38629 18.25501,-0.0109 18.9315,0.46922 18.58874,13.19332 -0.98975,36.7427 -27.40712,71.12555 -64.03519,83.3434 -8.76528,2.92379 -12.88369,3.6411 -24.1287,4.20248 l -13.5594,0.67693 -0.30061,15.39861 -0.30062,15.39859 4.09725,1.13782 c 2.25348,0.6258 4.64183,1.14054 5.30743,1.14386 0.66562,0.003 4.8148,1.77952 9.2204,3.94708 7.56034,3.71969 11.67291,7.59447 73.22831,68.99414 l 65.21812,65.05312 20.67549,-11.0441 c 23.89741,-12.76512 28.61195,-14.4991 37.42525,-13.76469 12.63987,1.05328 26.15058,11.31607 30.31713,23.02904 2.33071,6.55208 2.47114,18.08423 0.29531,24.25117 -3.99728,11.32955 -4.18024,11.47191 -78.15195,60.81102 -43.83409,29.23734 -71.76836,47.18892 -75.7459,48.67711 -3.46582,1.29673 -9.55841,2.82879 -13.5391,3.40457 -4.39775,0.63612 -72.89136,1.05534 -174.56064,1.06839 L 2.0673878,513.75524 Z M 350.81519,494.84934 c 2.98307,-1.15072 35.98485,-22.45859 73.33729,-47.3508 75.35875,-50.22019 73.14543,-48.4068 72.99131,-59.8024 -0.14874,-10.99796 -8.32055,-19.21085 -19.17747,-19.27387 -4.9652,-0.0289 -3.2453,-0.88582 -65.53293,32.65416 l -50.11126,26.98338 h -61.7431 c -60.82131,0 -61.78578,-0.0335 -64.60127,-2.24824 -3.62869,-2.85433 -3.90845,-8.39672 -0.57616,-11.41422 2.15575,-1.95211 5.0616,-2.09645 52.51881,-2.60882 l 50.23678,-0.54238 4.60527,-3.25425 c 12.37206,-8.74257 12.37196,-27.05457 -2.1e-4,-35.79682 l -4.60548,-3.25426 -54.46219,-0.54238 -54.46219,-0.54237 -4.29373,-3.40113 c -28.37828,-22.4789 -68.54169,-24.2627 -98.39387,-4.37001 l -5.15047,3.43213 -0.002,67.00796 -0.002,67.00797 112.00065,-0.29572 c 107.6363,-0.28418 112.21201,-0.37723 117.42442,-2.38793 z m 40.98159,-101.00524 16.0323,-8.56058 -62.13427,-62.17954 C 273.3043,250.66069 277.48043,253.9571 258.09457,253.9571 c -10.65487,0 -11.91728,0.23757 -18.94425,3.56513 -6.82022,3.22965 -10.72468,6.74626 -41.49177,37.37025 -18.6797,18.59281 -33.9631,34.19537 -33.9631,34.67237 0,0.477 5.06287,0.86727 11.25081,0.86727 18.77063,0 38.06846,6.05149 53.33872,16.72615 l 6.96869,4.87147 52.35701,0.31991 52.35699,0.31989 6.17929,2.89648 c 16.16653,7.57792 25.3178,25.8359 21.20644,42.30966 -0.94189,3.77408 -2.08694,7.8133 -2.54453,8.97606 -0.72421,1.84021 -0.0684,1.68911 5.06181,-1.16648 3.2416,-1.80431 13.10834,-7.13283 21.9261,-11.84116 z M 248.87449,185.413 c -0.41948,-2.79736 -1.98758,-8.53298 -3.48464,-12.74584 -10.8372,-30.49669 -40.24434,-51.50176 -72.20282,-51.57336 l -8.40683,-0.0188 v 3.21292 c 0,1.76712 1.15559,6.85189 2.56796,11.2995 10.54887,33.21859 39.4445,53.76883 77.0133,54.77097 l 5.27574,0.14074 z m 46.01458,1.70287 c 4.44085,-1.18195 12.00699,-4.18992 16.81366,-6.68438 19.71346,-10.23043 36.38799,-33.37085 39.28699,-54.52131 l 0.66274,-4.83521 -8.55428,0.0189 c -12.24018,0.027 -22.24379,2.45184 -34.04595,8.25278 -21.60943,10.62137 -38.42988,33.20084 -41.81102,56.12636 l -0.77856,5.27898 10.17608,-0.74351 c 5.59685,-0.40895 13.80951,-1.71058 18.25034,-2.89254 z M 248.66644,66.566169 c -1.97685,-10.398868 -9.41107,-23.883006 -17.30622,-31.38988 -5.78012,-5.495863 -15.93876,-11.410844 -23.73231,-13.818387 -7.321,-2.261571 -24.92611,-4.063641 -25.7694,-2.637773 -1.00908,1.706217 2.42553,12.504225 6.35711,19.986053 10.04303,19.111905 30.1119,31.294554 51.65655,31.357694 l 9.46446,0.02774 z m 42.01931,1.793802 c 3.24051,-0.952405 9.18263,-3.451387 13.20471,-5.553292 14.11594,-7.37687 27.80251,-25.691166 29.72287,-39.7728 l 0.72208,-5.29478 -9.65853,0.804112 c -21.61481,1.799526 -37.62435,10.748889 -48.2705,26.983301 -4.1671,6.354432 -7.64272,14.415541 -9.07147,21.039657 l -0.76039,3.525445 h 9.1097 c 5.15817,0 11.66541,-0.751139 15.00153,-1.731643 z"
   id="path4167"
   inkscape:connector-curvature="0" /><path
   style="fill:#009688;fill-opacity:0.80392157;stroke-width:1.08475208"
   d="m 53.210338,477.86555 c -5.40528,-1.65227 -13.84354,-10.60177 -15.38931,-16.32171 -3.00159,-11.10699 0.98725,-21.71558 10.74325,-28.57235 4.23786,-2.97848 5.46459,-3.28455 13.16448,-3.28455 7.69988,0 8.92661,0.30607 13.16447,3.28455 2.57034,1.8065 6.15139,5.38755 7.9579,7.95789 2.97848,4.23786 3.28455,5.4646 3.28455,13.16448 0,7.69988 -0.30607,8.92662 -3.28455,13.16448 -5.2621,7.48705 -10.9467,10.8583 -19.09459,11.32403 -3.80004,0.21721 -8.54583,-0.10536 -10.5462,-0.71682 z m 14.53386,-17.75625 c 3.52257,-3.52256 3.52257,-8.50832 0,-12.03088 -5.38058,-5.38058 -14.69346,-1.56793 -14.69346,6.01544 0,2.1135 0.9842,4.33708 2.66257,6.01544 1.67837,1.67837 3.90194,2.66258 6.01544,2.66258 2.11351,0 4.33708,-0.98421 6.01545,-2.66258 z"
   id="path4169"
   inkscape:connector-curvature="0" /><path
   style="fill:#009688;fill-opacity:0.80392157;stroke-width:1.08475208"
   d="M 71.04201,82.543242 C 70.05192,81.449206 68.52894,78.154271 67.65761,75.221166 64.08921,63.209056 55.86295,54.982795 43.85084,51.414389 36.99729,49.378424 34.5396,47.102137 34.5396,42.790407 c 0,-3.870681 3.73113,-8.150094 7.12081,-8.167202 3.68534,-0.0186 13.03286,-5.028853 17.24996,-9.245953 4.03976,-4.039763 9.22549,-13.519728 9.24595,-16.9023997 0.0211,-3.4934561 4.30925,-7.468365 8.05685,-7.468365 4.43937,0 6.68088,2.3982996 8.74838,9.3603087 3.44699,11.60728 12.13637,20.296664 23.74365,23.743656 6.91338,2.053052 9.36031,4.316651 9.36031,8.658991 0,4.411746 -2.45196,6.607433 -9.82315,8.796439 -11.63439,3.455044 -19.73884,11.684892 -23.29486,23.655284 -2.0394,6.865119 -4.31047,9.311233 -8.64494,9.311233 -1.97818,0 -4.23146,-0.852026 -5.26055,-1.989157 z M 82.41908,36.530868 76.368,30.292293 l -6.19095,6.126344 -6.19094,6.126346 6.15298,6.174638 6.15299,6.174637 6.08904,-6.062408 6.08904,-6.062407 z"
   id="path4171"
   inkscape:connector-curvature="0" /></svg>