<?xml version="1.0" encoding="UTF-8" standalone="no"?>
<!-- Generator: Adobe Illustrator 19.0.0, SVG Export Plug-In . SVG Version: 6.00 Build 0)  -->

<svg
   xmlns:dc="http://purl.org/dc/elements/1.1/"
   xmlns:cc="http://creativecommons.org/ns#"
   xmlns:rdf="http://www.w3.org/1999/02/22-rdf-syntax-ns#"
   xmlns:svg="http://www.w3.org/2000/svg"
   xmlns="http://www.w3.org/2000/svg"
   xmlns:sodipodi="http://sodipodi.sourceforge.net/DTD/sodipodi-0.dtd"
   xmlns:inkscape="http://www.inkscape.org/namespaces/inkscape"
   version="1.1"
   id="Capa_1"
   x="0px"
   y="0px"
   viewBox="0 0 512.003 512.003"
   style="enable-background:new 0 0 512.003 512.003;"
   xml:space="preserve"
   sodipodi:docname="plantgreen.svg"
   inkscape:version="0.92.4 (5da689c313, 2019-01-14)"><metadata
   id="metadata4137"><rdf:RDF><cc:Work
       rdf:about=""><dc:format>image/svg+xml</dc:format><dc:type
         rdf:resource="http://purl.org/dc/dcmitype/StillImage" /><dc:title></dc:title></cc:Work></rdf:RDF></metadata><defs
   id="defs4135" /><sodipodi:namedview
   pagecolor="#ffffff"
   bordercolor="#666666"
   borderopacity="1"
   objecttolerance="10"
   gridtolerance="10"
   guidetolerance="10"
   inkscape:pageopacity="0"
   inkscape:pageshadow="2"
   inkscape:window-width="1519"
   inkscape:window-height="812"
   id="namedview4133"
   showgrid="false"
   inkscape:zoom="0.92186961"
   inkscape:cx="294.24879"
   inkscape:cy="212.47273"
   inkscape:window-x="0"
   inkscape:window-y="0"
   inkscape:window-maximized="0"
   inkscape:current-layer="Capa_1" />
<g
   id="g4056">
	<path
   style="fill:#79A125;"
   d="M273.067,76.802H256l0,0l0,0c0-37.7,30.566-68.267,68.267-68.267h17.067l0,0l0,0   C341.333,46.235,310.767,76.802,273.067,76.802z"
   id="path4052" />
	<path
   style="fill:#79A125;"
   d="M273.067,196.268H256l0,0l0,0c0-47.13,38.204-85.333,85.333-85.333H358.4l0,0l0,0   C358.4,158.065,320.196,196.268,273.067,196.268z"
   id="path4054" />
</g>
<g
   id="g4064">
	<rect
   x="247.467"
   y="76.802"
   style="fill:#88B337;"
   width="17.067"
   height="170.667"
   id="rect4058" />
	<path
   style="fill:#88B337;"
   d="M170.667,8.535h17.067c37.7,0,68.267,30.566,68.267,68.267l0,0l0,0h-17.067   C201.233,76.802,170.667,46.235,170.667,8.535L170.667,8.535L170.667,8.535z"
   id="path4060" />
	<path
   style="fill:#88B337;"
   d="M153.6,110.935h17.067c47.13,0,85.333,38.204,85.333,85.333l0,0l0,0h-17.067   C191.804,196.268,153.6,158.065,153.6,110.935L153.6,110.935L153.6,110.935z"
   id="path4062" />
</g>
<path
   style="fill:#B86E3C;"
   d="M292.096,257.964c-19.951-19.951-52.292-20.002-72.303-0.102L68.267,418.135h384L292.096,257.964z"
   id="path4066" />
<path
   style="fill:#AB6232;"
   d="M329.668,295.537c-32.828,54.861-86.519,96.196-129.015,122.598h251.614L329.668,295.537z"
   id="path4068" />
<path
   style="fill:#FEC9A3;"
   d="M358.4,418.135h-29.867c16.495,0,29.867-13.372,29.867-29.867l0,0l0,0  c0-16.495-13.372-29.867-29.867-29.867H230.4c-34.372-29.466-85.094-29.466-119.467,0l0,0v145.067h223.428  c10.112,0,19.994-2.995,28.407-8.602l128.555-85.709c7.586-5.052,12.143-13.568,12.143-22.682v-0.768  c0.026-15.053-12.151-27.281-27.204-27.307c-0.017,0-0.043,0-0.06,0l0,0c-4.514,0-8.951,1.118-12.919,3.26L358.4,418.135z"
   id="path4070" />
<path
   style="fill:#FABD91;"
   d="M491.324,383.558l-128.555,85.709c-8.414,5.615-18.295,8.602-28.408,8.602H110.933v25.6h223.428  c10.112,0,19.994-2.995,28.407-8.602l128.555-85.709c7.586-5.052,12.143-13.568,12.143-22.682v-0.768  c-0.026-4.292-1.075-8.516-3.072-12.322C498.287,377.491,495.164,380.998,491.324,383.558z"
   id="path4072" />
<polyline
   style="fill:#4398D1;"
   points="0,358.402 110.933,358.402 110.933,503.468 0,503.468 "
   id="polyline4074" />
<circle
   style="fill:#3685BA;"
   cx="59.733"
   cy="452.268"
   r="17.067"
   id="circle4076" />
<path
   style="fill:#FDB62F;"
   d="M93.867,76.802L93.867,76.802C90.948,59.3,77.235,45.587,59.733,42.668l0,0  C77.235,39.75,90.948,26.037,93.867,8.535l0,0C96.785,26.037,110.498,39.75,128,42.668l0,0  C110.498,45.587,96.785,59.3,93.867,76.802z"
   id="path4078" />
<path
   style="fill:#F7B483;"
   d="M341.333,426.668h-102.4c-4.71,0-8.533-3.823-8.533-8.533c0-4.71,3.823-8.533,8.533-8.533h102.4  c4.71,0,8.533,3.823,8.533,8.533C349.867,422.845,346.044,426.668,341.333,426.668z"
   id="path4080" />
<g
   id="g4088">
	<rect
   x="221.867"
   y="290.135"
   style="fill:#94552B;"
   width="17.067"
   height="17.067"
   id="rect4082" />
	<rect
   x="281.6"
   y="298.668"
   style="fill:#94552B;"
   width="17.067"
   height="17.067"
   id="rect4084" />
	<rect
   x="247.467"
   y="315.735"
   style="fill:#94552B;"
   width="17.067"
   height="17.067"
   id="rect4086" />
</g>
<path
   d="M476.211,349.868c-5.922,0-11.75,1.468-16.973,4.267l-38.281,20.617L298.129,251.94  c-9.088-9.079-20.873-14.967-33.596-16.768v-30.37h8.533c51.814-0.06,93.807-42.052,93.867-93.867c0-4.71-3.823-8.533-8.533-8.533  h-17.067c-30.609,0.034-59.281,15.002-76.8,40.107V85.335h8.533c42.394-0.051,76.749-34.406,76.8-76.8  c0-4.71-3.823-8.533-8.533-8.533h-17.067C295.475,0.036,269.116,16.181,256,41.815c-13.116-25.634-39.475-41.779-68.267-41.813  h-17.067c-4.71,0-8.533,3.823-8.533,8.533c0.051,42.394,34.406,76.749,76.8,76.8h8.533v57.173  c-17.519-25.105-46.191-40.073-76.8-40.107H153.6c-4.71,0-8.533,3.823-8.533,8.533c0.06,51.814,42.052,93.807,93.867,93.867h8.533  v30.336c-12.74,1.758-24.559,7.612-33.681,16.674l-86.025,85.521c-7.049,3.405-13.679,7.612-19.763,12.535H0v17.067h102.4v128H0  v17.067h334.37c11.793,0.017,23.322-3.482,33.126-10.035l128.563-85.709c16.606-11.255,20.941-33.843,9.677-50.449  C499.089,355.995,488.064,350.047,476.211,349.868z M341.333,119.468h8.055c-4.386,38.844-37.231,68.215-76.322,68.267h-8.055  C269.397,148.891,302.242,119.519,341.333,119.468z M324.267,17.068h7.927c-4.284,29.372-29.449,51.166-59.127,51.2h-7.927  C269.423,38.897,294.588,17.111,324.267,17.068z M238.933,68.268c-29.679-0.034-54.844-21.828-59.127-51.2h7.927  c29.679,0.034,54.844,21.828,59.127,51.2H238.933z M238.933,187.735c-39.091-0.051-71.936-29.423-76.322-68.267h8.055  c39.091,0.051,71.936,29.423,76.322,68.267H238.933z M225.818,263.912c16.691-16.529,43.605-16.486,60.245,0.094l119.202,119.202  l-42.812,23.04c9.933-18.739,2.79-41.984-15.949-51.908c-5.538-2.935-11.708-4.471-17.971-4.471h-95.053  c-20.292-16.427-46.208-24.252-72.201-21.794L225.818,263.912z M486.588,402.058l-128.555,85.709  c-7.006,4.685-15.241,7.177-23.663,7.168H119.467V362.446c31.172-24.55,75.383-23.526,105.387,2.441  c1.545,1.323,3.516,2.048,5.547,2.048h98.133c11.785,0,21.333,9.549,21.333,21.333c0,11.785-9.549,21.333-21.333,21.333h-89.6  c-4.71,0-8.533,3.823-8.533,8.533c0,4.71,3.823,8.533,8.533,8.533H358.4c1.408,0,2.799-0.35,4.045-1.015l104.892-56.482  c2.731-1.468,5.777-2.236,8.875-2.236c10.453,0.111,18.842,8.678,18.731,19.14c0,0.137-0.009,0.273-0.009,0.401  C494.942,392.74,491.81,398.594,486.588,402.058z"
   id="path4090" />
<path
   d="M85.333,452.268c0-14.14-11.46-25.6-25.6-25.6s-25.6,11.46-25.6,25.6c0,14.14,11.46,25.6,25.6,25.6  S85.333,466.408,85.333,452.268L85.333,452.268z M51.2,452.268c0-4.71,3.823-8.533,8.533-8.533s8.533,3.823,8.533,8.533  c0,4.71-3.823,8.533-8.533,8.533S51.2,456.987,51.2,452.268z"
   id="path4092" />
<rect
   x="221.867"
   y="290.135"
   width="17.067"
   height="17.067"
   id="rect4094" />
<rect
   x="281.6"
   y="298.668"
   width="17.067"
   height="17.067"
   id="rect4096" />
<rect
   x="247.467"
   y="315.735"
   width="17.067"
   height="17.067"
   id="rect4098" />
<path
   d="M58.334,51.082C72.235,53.403,83.132,64.3,85.453,78.201c0.785,4.651,5.188,7.774,9.839,6.989  c3.584-0.606,6.383-3.413,6.989-6.989c2.321-13.901,13.218-24.798,27.119-27.119c4.651-0.785,7.774-5.188,6.989-9.839  c-0.606-3.584-3.413-6.383-6.989-6.989c-13.901-2.321-24.798-13.218-27.119-27.119c-0.785-4.651-5.188-7.774-9.839-6.989  c-3.584,0.606-6.383,3.413-6.989,6.989c-2.321,13.901-13.218,24.798-27.119,27.119c-4.651,0.785-7.774,5.188-6.989,9.839  C51.951,47.677,54.75,50.476,58.334,51.082z M93.867,30.483c3.328,4.736,7.45,8.858,12.186,12.186  c-4.736,3.328-8.858,7.45-12.186,12.186c-3.328-4.736-7.45-8.858-12.186-12.186C86.417,39.34,90.539,35.219,93.867,30.483z"
   id="path4100" />
<g
   id="g4102">
</g>
<g
   id="g4104">
</g>
<g
   id="g4106">
</g>
<g
   id="g4108">
</g>
<g
   id="g4110">
</g>
<g
   id="g4112">
</g>
<g
   id="g4114">
</g>
<g
   id="g4116">
</g>
<g
   id="g4118">
</g>
<g
   id="g4120">
</g>
<g
   id="g4122">
</g>
<g
   id="g4124">
</g>
<g
   id="g4126">
</g>
<g
   id="g4128">
</g>
<g
   id="g4130">
</g>
<path
   style="fill:#5fd35f;stroke-width:1.08475208"
   d="m 225.15008,343.70123 c -14.527,-10.07759 -34.46398,-16.12511 -53.54387,-16.24156 l -9.37175,-0.0572 34.50414,-33.96745 c 37.08465,-36.50783 39.45334,-38.3425 52.57492,-40.72189 8.19405,-1.48587 16.14971,-0.27809 25.07799,3.80718 4.88312,2.23434 10.4078,7.09008 28.04716,24.65114 12.08142,12.0278 21.96623,22.24877 21.96623,22.71326 0,2.34282 -15.18608,22.08169 -27.98738,36.378 l -8.01335,8.9492 -27.83041,-0.12156 -27.83041,-0.12156 z m 39.59345,-19.43862 v -8.67801 h -8.67801 -8.67802 v 8.67801 8.67802 h 8.67802 8.67801 z m 34.48475,-17.08484 0.31505,-8.94921 h -9.26426 -9.26426 v 8.49723 c 0,4.67347 0.34416,8.84138 0.7648,9.26202 0.42063,0.42063 4.44777,0.62402 8.9492,0.45198 l 8.18441,-0.31282 z m -59.66136,-8.67802 0.31505,-8.9492 h -9.26426 -9.26426 v 9.26426 9.26426 l 8.9492,-0.31506 8.94921,-0.31505 z"
   id="path4139"
   inkscape:connector-curvature="0" /><path
   style="fill:#217821;stroke-width:1.08475208"
   d="m 365.27435,400.46645 c 2.36654,-5.63731 2.23232,-18.95018 -0.25427,-25.22049 -2.93222,-7.39403 -7.69386,-13.80212 -13.31479,-17.91867 -9.0867,-6.65475 -12.3375,-7.33295 -38.48243,-8.02845 l -23.65669,-0.6293 9.39529,-10.84753 c 11.36116,-13.11727 25.44344,-31.60163 25.44344,-33.397 0,-0.71715 17.81705,16.50812 39.59345,38.27839 21.7764,21.77027 39.59345,39.90123 39.59345,40.29102 0,0.67148 -38.21351,21.53985 -39.44312,21.53985 -0.3201,0 0.18645,-1.83052 1.12567,-4.06782 z"
   id="path4143"
   inkscape:connector-curvature="0" /><path
   style="fill:#5fd35f;stroke-width:1.08475208"
   d="m 120.4715,420.33969 v -58.00653 l 4.94924,-3.40516 c 23.15088,-15.92823 56.0541,-17.9086 81.60475,-4.91162 4.00239,2.03592 10.42326,5.93697 14.2686,8.669 l 6.99153,4.96732 h 52.32803 c 34.33477,0 53.37806,0.39672 55.38172,1.15376 6.96857,2.63291 13.31118,11.90369 13.31118,19.45653 0,7.55284 -6.34261,16.82361 -13.31118,19.45652 -1.98883,0.75144 -19.69756,1.15377 -50.78348,1.15377 -34.20666,0 -48.40109,0.35754 -50.09916,1.26194 -3.47724,1.85198 -5.01226,4.28929 -5.01226,7.95845 0,3.66916 1.53502,6.10647 5.01226,7.95845 1.72114,0.91669 19.18439,1.26194 63.83094,1.26194 h 61.46157 l 55.4525,-29.83068 c 59.54274,-32.03102 60.13087,-32.2758 67.89856,-28.25897 3.96663,2.05123 9.86993,8.81481 9.86993,11.30827 0,2.51485 -130.93432,90.00989 -141.10353,94.29048 l -6.96514,2.93188 -112.54303,0.29559 -112.54303,0.29559 z"
   id="path4145"
   inkscape:connector-curvature="0" /><path
   style="fill:#5fd35f;stroke-width:1.08475208"
   d="m 120.4715,486.4529 v -8.15549 l 112.54303,-0.0106 112.54303,-0.0106 5.68753,-2.64794 c 3.12815,-1.45637 13.13498,-7.38308 22.23742,-13.17046 20.69551,-13.15826 92.95548,-61.51173 108.21144,-72.41069 6.3686,-4.54977 11.80826,-7.72904 12.33886,-7.2116 1.73051,1.68757 -0.42885,10.7113 -3.4114,14.25585 -3.58335,4.25857 -137.36215,93.5434 -143.06716,95.48394 -3.29817,1.12187 -27.38846,1.4813 -115.62447,1.72513 l -111.45828,0.308 z"
   id="path4147"
   inkscape:connector-curvature="0" /><path
   style="fill:#005522;stroke-width:1.08475208"
   d="M 0.06401983,431.11069 V 367.6527 H 51.047369 102.03072 v 63.45799 63.458 H 51.047369 0.06401983 Z M 68.538208,476.62536 c 9.566334,-3.36986 17.221228,-14.19885 17.221228,-24.362 0,-13.65398 -12.380073,-26.03405 -26.034051,-26.03405 -13.555353,0 -26.03405,12.38101 -26.03405,25.83025 0,6.38317 2.383546,12.1395 7.283175,17.58907 7.233669,8.04557 17.29795,10.59298 27.563698,6.97673 z"
   id="path4149"
   inkscape:connector-curvature="0" /><path
   style="fill:#afe9af;stroke-width:1.08475208"
   d="m 265.82828,185.80468 c 0,-4.52463 3.47755,-15.44666 7.59998,-23.86945 8.17105,-16.69477 24.6664,-31.07218 43.38337,-37.81311 6.1837,-2.22706 10.93343,-3.07042 19.79673,-3.5151 l 11.66108,-0.58503 v 2.75123 c 0,3.70497 -4.00695,16.48059 -7.05857,22.5053 -7.05957,13.93745 -20.45325,27.11544 -34.54064,33.98441 -9.91589,4.83496 -18.62675,7.06891 -30.9842,7.94606 -9.27283,0.65821 -9.85775,0.57488 -9.85775,-1.40431 z"
   id="path4151"
   inkscape:connector-curvature="0" /><path
   style="fill:#afe9af;stroke-width:1.08475208"
   d="m 227.72043,186.42203 c -31.76574,-4.66667 -57.66761,-29.82072 -63.86897,-62.02499 l -0.78332,-4.06782 h 8.90122 c 31.09971,0 60.21816,20.89184 70.55789,50.62373 1.4187,4.07946 2.91095,9.49028 3.31611,12.02405 l 0.73667,4.60685 -6.37597,-0.13228 c -3.50678,-0.0728 -9.12441,-0.53605 -12.48363,-1.02954 z"
   id="path4153"
   inkscape:connector-curvature="0" /><path
   style="fill:#afe9af;stroke-width:1.08475208"
   d="M 230.19507,67.007518 C 209.21079,64.003904 189.4141,47.662943 183.09016,28.12529 c -3.59615,-11.110218 -3.64864,-10.848551 2.17461,-10.839327 14.79039,0.02343 31.06474,5.937821 41.70582,15.156648 8.53365,7.39306 16.23547,20.662021 18.74414,32.293062 l 0.7604,3.525445 -4.69639,-0.133889 c -2.58301,-0.07364 -7.79567,-0.577508 -11.58367,-1.119711 z"
   id="path4155"
   inkscape:connector-curvature="0" /><path
   style="fill:#afe9af;stroke-width:1.08475208"
   d="m 265.82828,66.749392 c 0,-2.963711 3.966,-13.822453 7.17356,-19.64094 4.43072,-8.03727 15.98041,-18.878811 24.62507,-23.115225 8.36818,-4.100919 19.11396,-6.669226 28.01862,-6.696623 l 6.12202,-0.01883 -1.00905,4.610196 c -4.37816,20.003088 -23.73132,39.73203 -43.23578,44.075282 -2.68443,0.597768 -8.66385,1.426661 -13.28761,1.841983 -7.43041,0.667425 -8.40683,0.544794 -8.40683,-1.055838 z"
   id="path4157"
   inkscape:connector-curvature="0" /><path
   style="fill:#afe9af;stroke-width:1.08475208"
   d="m 88.471316,48.146729 -5.423761,-5.470237 5.423761,-5.377285 5.42376,-5.377285 5.423761,5.423761 5.423763,5.42376 -5.423763,5.423761 -5.423761,5.42376 z"
   id="path4159"
   inkscape:connector-curvature="0" /><path
   style="fill:#37c837;stroke-width:1.08475208"
   d="m 248.19009,348.40061 -16.01106,-0.33157 -8.16963,-5.33319 c -14.80555,-9.66517 -33.40662,-15.21898 -50.97208,-15.21898 -5.14609,0 -9.19381,-0.3661 -8.99494,-0.81356 0.64614,-1.45382 58.75734,-58.18358 65.00373,-63.45845 9.62236,-8.12575 14.82481,-10.04529 27.01941,-9.96928 16.44253,0.10247 18.63652,1.4623 45.68459,28.3149 l 22.52897,22.36616 -4.15003,6.08517 c -5.20036,7.62527 -12.72583,17.02141 -23.60434,29.47189 l -8.45901,9.68134 -11.93227,-0.23143 c -6.56275,-0.12729 -19.13725,-0.38064 -27.94334,-0.563 z m 16.55344,-24.138 v -8.67801 h -8.67801 -8.67802 v 8.67801 8.67802 h 8.67802 8.67801 z m 34.71207,-16.81365 v -9.2204 h -9.22039 -9.2204 v 9.2204 9.22039 h 9.2204 9.22039 z m -59.66137,-8.67802 v -9.22039 h -9.22039 -9.22039 v 9.22039 9.22039 h 9.22039 9.22039 z"
   id="path4161"
   inkscape:connector-curvature="0" /><path
   style="fill:#afe9af;stroke-width:1.08475208"
   d="m 120.4715,428.70191 v -65.96536 l 5.51201,-3.60848 c 14.30056,-9.36196 25.85844,-12.6022 44.92897,-12.59578 19.83336,0.007 30.80009,3.55139 49.03604,15.84967 l 7.81547,5.27074 32.32036,0.003 c 17.7762,0.002 42.29264,0.32593 54.48099,0.72082 l 22.16062,0.71798 4.21484,3.80785 c 5.50988,4.97785 7.57897,9.1714 7.57897,15.36079 0,6.18944 -2.06909,10.38294 -7.57917,15.36097 l -4.21503,3.80803 -20.5333,0.71758 c -11.29332,0.39469 -33.61525,0.71899 -49.60429,0.72067 -34.41251,0.004 -36.55652,0.54458 -36.55652,9.22346 0,3.99993 1.11421,5.92565 4.41659,7.63338 2.58817,1.33839 12.7557,1.58701 64.90258,1.58701 h 61.83364 l 43.17439,-23.17839 c 63.69666,-34.19589 70.38421,-37.37375 75.79312,-36.0162 2.89737,0.72719 10.77577,7.3651 12.44636,10.48663 0.86803,1.62193 -0.7833,3.22863 -10.63324,10.34588 -15.23228,11.00636 -95.8111,64.83112 -112.54279,75.17594 -12.78143,7.90247 -17.83564,11.43686 -12.47465,8.72346 7.88019,-3.98845 70.61816,-45.26286 118.5363,-77.98335 8.81496,-6.01923 16.73501,-10.94405 17.6001,-10.94405 1.18883,0 1.40924,0.86079 0.9027,3.52544 -1.04039,5.47289 -3.18883,8.97515 -7.64976,12.47018 -9.08843,7.12058 -102.72252,69.80459 -128.84696,86.25754 -9.75098,6.14107 -9.77521,6.14917 -20.06792,6.70953 -5.66783,0.30855 -56.80033,0.83543 -113.62778,1.17081 l -103.32264,0.60981 z m 229.45991,48.02373 c 2.06898,-0.86448 3.76179,-1.82868 3.76179,-2.14266 0,-0.31398 -1.34238,0.0272 -2.98306,0.75821 -2.23369,0.99521 -23.96577,1.46868 -86.50898,1.88476 l -83.52592,0.55565 82.74719,0.25791 c 70.22184,0.21886 83.31661,0.02 86.50898,-1.31387 z"
   id="path4163"
   inkscape:connector-curvature="0" /><path
   style="fill:#afe9af;stroke-width:1.08475208"
   d="m 53.927372,457.87289 c -2.426158,-2.68087 -2.319473,-9.13788 0.188479,-11.40754 2.680874,-2.42616 9.137883,-2.31948 11.407547,0.18848 2.426159,2.68087 2.319474,9.13788 -0.188479,11.40754 -2.680873,2.42616 -9.137881,2.31948 -11.407547,-0.18848 z"
   id="path4165"
   inkscape:connector-curvature="0" /><path
   style="fill:#165016;stroke-width:1.08475208"
   d="m 0.06401983,503.78909 v -8.13565 H 51.589745 103.11547 V 431.11069 366.56794 H 51.589745 0.06401983 v -8.13564 -8.13564 H 54.090879 108.11774 l 3.73619,-2.77312 c 2.0549,-1.52522 6.42095,-4.28067 9.70232,-6.12324 4.27247,-2.3991 18.74562,-16.04908 50.98335,-48.08372 26.85518,-26.68599 47.45449,-46.2792 51.05836,-48.56458 4.93272,-3.12807 15.25079,-7.28585 22.4336,-9.03986 1.00735,-0.24599 1.35594,-4.38346 1.35594,-16.09407 v -15.76294 l -10.03396,-0.0189 c -47.75991,-0.0897 -87.42946,-37.70087 -91.52192,-86.77311 -0.67666,-8.11362 -0.58828,-8.5874 2.10401,-11.27968 2.7438,-2.74381 3.15169,-2.80999 17.2326,-2.79608 18.27308,0.018 31.43289,2.5873 43.90471,8.57171 14.6487,7.02893 25.12664,15.16052 34.13972,26.49471 l 4.17484,5.25002 V 113.91812 84.532399 h -9.04688 c -26.59481,0 -52.19602,-14.990536 -65.76613,-38.5087 -4.8437,-8.394548 -8.75816,-21.382212 -9.46549,-31.405278 -0.57754,-8.1836387 -0.42933,-9.1757651 1.68684,-11.2919299 2.15446,-2.1544569 3.42998,-2.3200038 17.87539,-2.3200038 18.71923,0 28.07984,2.0308865 41.17763,8.9339294 10.17079,5.3604083 23.25417,17.5982673 28.42002,26.5833793 1.78984,3.113121 3.49916,5.669906 3.7985,5.681745 0.29933,0.01184 1.75655,-2.297131 3.23827,-5.131046 4.4481,-8.50738 18.68118,-21.855453 28.99141,-27.1887365 13.33284,-6.8968214 22.5137,-8.8792712 41.12049,-8.8792712 14.56174,0 15.64876,0.1455936 17.72488,2.3740466 4.48096,4.8097383 1.65916,22.8826991 -6.0327,38.6380601 -12.308,25.210699 -36.14798,40.761685 -64.9763,42.38449 l -11.93227,0.671691 -0.2892,28.474745 c -0.15907,15.66111 -0.0708,28.47474 0.19616,28.47474 0.26694,0 5.27847,-4.79547 11.13672,-10.65659 20.66628,-20.67644 40.19809,-28.36723 72.09087,-28.38629 18.25501,-0.0109 18.9315,0.46922 18.58874,13.19332 -0.98975,36.7427 -27.40712,71.12555 -64.03519,83.3434 -8.76528,2.92379 -12.88369,3.6411 -24.1287,4.20248 l -13.5594,0.67693 -0.30061,15.39861 -0.30062,15.39859 4.09725,1.13782 c 2.25348,0.6258 4.64183,1.14054 5.30743,1.14386 0.66562,0.003 4.8148,1.77952 9.2204,3.94708 7.56034,3.71969 11.67291,7.59447 73.22831,68.99414 l 65.21812,65.05312 20.67549,-11.0441 c 23.89741,-12.76512 28.61195,-14.4991 37.42525,-13.76469 12.63987,1.05328 26.15058,11.31607 30.31713,23.02904 2.33071,6.55208 2.47114,18.08423 0.29531,24.25117 -3.99728,11.32955 -4.18024,11.47191 -78.15195,60.81102 -43.83409,29.23734 -71.76836,47.18892 -75.7459,48.67711 -3.46582,1.29673 -9.55841,2.82879 -13.5391,3.40457 -4.39775,0.63612 -72.89136,1.05534 -174.56064,1.06839 L 0.06401983,511.92473 Z M 348.81182,493.01884 c 2.98307,-1.15072 35.98485,-22.45859 73.33729,-47.3508 75.35875,-50.22019 73.14543,-48.4068 72.99131,-59.8024 -0.14874,-10.99796 -8.32055,-19.21085 -19.17747,-19.27387 -4.9652,-0.0289 -3.2453,-0.88582 -65.53293,32.65416 l -50.11126,26.98338 h -61.7431 c -60.82131,0 -61.78578,-0.0335 -64.60127,-2.24824 -3.62869,-2.85433 -3.90845,-8.39672 -0.57616,-11.41422 2.15575,-1.95211 5.0616,-2.09645 52.51881,-2.60882 l 50.23678,-0.54238 4.60527,-3.25425 c 12.37206,-8.74257 12.37196,-27.05457 -2.1e-4,-35.79682 l -4.60548,-3.25426 -54.46219,-0.54238 -54.46219,-0.54237 -4.29373,-3.40113 c -28.37828,-22.4789 -68.54169,-24.2627 -98.39387,-4.37001 l -5.15047,3.43213 -0.002,67.00796 -0.002,67.00797 112.00065,-0.29572 c 107.6363,-0.28418 112.21201,-0.37723 117.42442,-2.38793 z m 40.98159,-101.00524 16.0323,-8.56058 -62.13427,-62.17954 C 271.30093,248.83019 275.47706,252.1266 256.0912,252.1266 c -10.65487,0 -11.91728,0.23757 -18.94425,3.56513 -6.82022,3.22965 -10.72468,6.74626 -41.49177,37.37025 -18.6797,18.59281 -33.9631,34.19537 -33.9631,34.67237 0,0.477 5.06287,0.86727 11.25081,0.86727 18.77063,0 38.06846,6.05149 53.33872,16.72615 l 6.96869,4.87147 52.35701,0.31991 52.35699,0.31989 6.17929,2.89648 c 16.16653,7.57792 25.3178,25.8359 21.20644,42.30966 -0.94189,3.77408 -2.08694,7.8133 -2.54453,8.97606 -0.72421,1.84021 -0.0684,1.68911 5.06181,-1.16648 3.2416,-1.80431 13.10834,-7.13283 21.9261,-11.84116 z M 246.87112,183.5825 c -0.41948,-2.79736 -1.98758,-8.53298 -3.48464,-12.74584 -10.8372,-30.49669 -40.24434,-51.50176 -72.20282,-51.57336 l -8.40683,-0.0188 v 3.21292 c 0,1.76712 1.15559,6.85189 2.56796,11.2995 10.54887,33.21859 39.4445,53.76883 77.0133,54.77097 l 5.27574,0.14074 z m 46.01458,1.70287 c 4.44085,-1.18195 12.00699,-4.18992 16.81366,-6.68438 19.71346,-10.23043 36.38799,-33.37085 39.28699,-54.52131 l 0.66274,-4.83521 -8.55428,0.0189 c -12.24018,0.027 -22.24379,2.45184 -34.04595,8.25278 -21.60943,10.62137 -38.42988,33.20084 -41.81102,56.12636 l -0.77856,5.27898 10.17608,-0.74351 c 5.59685,-0.40895 13.80951,-1.71058 18.25034,-2.89254 z M 246.66307,64.735673 C 244.68622,54.336805 237.252,40.852667 229.35685,33.345793 223.57673,27.84993 213.41809,21.934949 205.62454,19.527406 c -7.321,-2.261571 -24.92611,-4.063641 -25.7694,-2.637773 -1.00908,1.706217 2.42553,12.504225 6.35711,19.986053 10.04303,19.111905 30.1119,31.294554 51.65655,31.357694 l 9.46446,0.02774 z m 42.01931,1.793802 c 3.24051,-0.952405 9.18263,-3.451387 13.20471,-5.553292 14.11594,-7.37687 27.80251,-25.691166 29.72287,-39.7728 l 0.72208,-5.29478 -9.65853,0.804112 c -21.61481,1.799526 -37.62435,10.748889 -48.2705,26.983301 -4.1671,6.354432 -7.64272,14.415541 -9.07147,21.039657 l -0.76039,3.525445 h 9.1097 c 5.15817,0 11.66541,-0.751139 15.00153,-1.731643 z"
   id="path4167"
   inkscape:connector-curvature="0" /><path
   style="fill:#008033;stroke-width:1.08475208"
   d="m 51.206972,476.03505 c -5.405285,-1.65227 -13.843543,-10.60177 -15.389315,-16.32171 -3.00159,-11.10699 0.987256,-21.71558 10.743252,-28.57235 4.237858,-2.97848 5.464592,-3.28455 13.164476,-3.28455 7.699884,0 8.926618,0.30607 13.164477,3.28455 2.57034,1.8065 6.151393,5.38755 7.957895,7.95789 2.978479,4.23786 3.284551,5.4646 3.284551,13.16448 0,7.69988 -0.306072,8.92662 -3.284551,13.16448 -5.2621,7.48705 -10.9467,10.8583 -19.094586,11.32403 -3.800044,0.21721 -8.545833,-0.10536 -10.546199,-0.71682 z M 65.740829,458.2788 c 3.522566,-3.52256 3.522566,-8.50832 0,-12.03088 -5.38058,-5.38058 -14.69346,-1.56793 -14.69346,6.01544 0,2.1135 0.984204,4.33708 2.662572,6.01544 1.67837,1.67837 3.901943,2.66258 6.015444,2.66258 2.113502,0 4.337075,-0.98421 6.015444,-2.66258 z"
   id="path4169"
   inkscape:connector-curvature="0" /><path
   style="fill:#008033;stroke-width:1.08475208"
   d="M 88.634529,82.543242 C 87.644439,81.449206 86.12146,78.154271 85.25013,75.221166 81.681725,63.209056 73.455464,54.982795 61.443354,51.414389 c -6.853546,-2.035965 -9.311233,-4.312252 -9.311233,-8.623982 0,-3.870681 3.731124,-8.150094 7.120802,-8.167202 3.685348,-0.0186 13.03286,-5.028853 17.249962,-9.245953 4.039761,-4.039763 9.225494,-13.519728 9.245954,-16.9023997 0.02113,-3.4934561 4.309247,-7.468365 8.056846,-7.468365 4.439376,0 6.680885,2.3982996 8.748385,9.3603087 3.44699,11.60728 12.13637,20.296664 23.74365,23.743656 6.91338,2.053052 9.36031,4.316651 9.36031,8.658991 0,4.411746 -2.45196,6.607433 -9.82315,8.796439 -11.63439,3.455044 -19.73884,11.684892 -23.29486,23.655284 -2.0394,6.865119 -4.310476,9.311233 -8.644944,9.311233 -1.978181,0 -4.231458,-0.852026 -5.260547,-1.989157 z m 11.377071,-46.012374 -6.051086,-6.238575 -6.190944,6.126344 -6.190945,6.126346 6.152985,6.174638 6.152986,6.174637 6.089043,-6.062408 6.089041,-6.062407 z"
   id="path4171"
   inkscape:connector-curvature="0" /></svg>