<?xml version="1.0" encoding="iso-8859-1"?>
<!-- Generator: Adobe Illustrator 19.0.0, SVG Export Plug-In . SVG Version: 6.00 Build 0)  -->
<svg version="1.1" id="Capa_1" xmlns="http://www.w3.org/2000/svg" xmlns:xlink="http://www.w3.org/1999/xlink" x="0px" y="0px"
	 viewBox="0 0 512.003 512.003" style="enable-background:new 0 0 512.003 512.003;" xml:space="preserve">
<g>
	<path style="fill:#79A125;" d="M273.067,76.802H256l0,0l0,0c0-37.7,30.566-68.267,68.267-68.267h17.067l0,0l0,0
		C341.333,46.235,310.767,76.802,273.067,76.802z"/>
	<path style="fill:#79A125;" d="M273.067,196.268H256l0,0l0,0c0-47.13,38.204-85.333,85.333-85.333H358.4l0,0l0,0
		C358.4,158.065,320.196,196.268,273.067,196.268z"/>
</g>
<g>
	<rect x="247.467" y="76.802" style="fill:#88B337;" width="17.067" height="170.667"/>
	<path style="fill:#88B337;" d="M170.667,8.535h17.067c37.7,0,68.267,30.566,68.267,68.267l0,0l0,0h-17.067
		C201.233,76.802,170.667,46.235,170.667,8.535L170.667,8.535L170.667,8.535z"/>
	<path style="fill:#88B337;" d="M153.6,110.935h17.067c47.13,0,85.333,38.204,85.333,85.333l0,0l0,0h-17.067
		C191.804,196.268,153.6,158.065,153.6,110.935L153.6,110.935L153.6,110.935z"/>
</g>
<path style="fill:#B86E3C;" d="M292.096,257.964c-19.951-19.951-52.292-20.002-72.303-0.102L68.267,418.135h384L292.096,257.964z"/>
<path style="fill:#AB6232;" d="M329.668,295.537c-32.828,54.861-86.519,96.196-129.015,122.598h251.614L329.668,295.537z"/>
<path style="fill:#FEC9A3;" d="M358.4,418.135h-29.867c16.495,0,29.867-13.372,29.867-29.867l0,0l0,0
	c0-16.495-13.372-29.867-29.867-29.867H230.4c-34.372-29.466-85.094-29.466-119.467,0l0,0v145.067h223.428
	c10.112,0,19.994-2.995,28.407-8.602l128.555-85.709c7.586-5.052,12.143-13.568,12.143-22.682v-0.768
	c0.026-15.053-12.151-27.281-27.204-27.307c-0.017,0-0.043,0-0.06,0l0,0c-4.514,0-8.951,1.118-12.919,3.26L358.4,418.135z"/>
<path style="fill:#FABD91;" d="M491.324,383.558l-128.555,85.709c-8.414,5.615-18.295,8.602-28.408,8.602H110.933v25.6h223.428
	c10.112,0,19.994-2.995,28.407-8.602l128.555-85.709c7.586-5.052,12.143-13.568,12.143-22.682v-0.768
	c-0.026-4.292-1.075-8.516-3.072-12.322C498.287,377.491,495.164,380.998,491.324,383.558z"/>
<polyline style="fill:#4398D1;" points="0,358.402 110.933,358.402 110.933,503.468 0,503.468 "/>
<circle style="fill:#3685BA;" cx="59.733" cy="452.268" r="17.067"/>
<path style="fill:#FDB62F;" d="M93.867,76.802L93.867,76.802C90.948,59.3,77.235,45.587,59.733,42.668l0,0
	C77.235,39.75,90.948,26.037,93.867,8.535l0,0C96.785,26.037,110.498,39.75,128,42.668l0,0
	C110.498,45.587,96.785,59.3,93.867,76.802z"/>
<path style="fill:#F7B483;" d="M341.333,426.668h-102.4c-4.71,0-8.533-3.823-8.533-8.533c0-4.71,3.823-8.533,8.533-8.533h102.4
	c4.71,0,8.533,3.823,8.533,8.533C349.867,422.845,346.044,426.668,341.333,426.668z"/>
<g>
	<rect x="221.867" y="290.135" style="fill:#94552B;" width="17.067" height="17.067"/>
	<rect x="281.6" y="298.668" style="fill:#94552B;" width="17.067" height="17.067"/>
	<rect x="247.467" y="315.735" style="fill:#94552B;" width="17.067" height="17.067"/>
</g>
<path d="M476.211,349.868c-5.922,0-11.75,1.468-16.973,4.267l-38.281,20.617L298.129,251.94
	c-9.088-9.079-20.873-14.967-33.596-16.768v-30.37h8.533c51.814-0.06,93.807-42.052,93.867-93.867c0-4.71-3.823-8.533-8.533-8.533
	h-17.067c-30.609,0.034-59.281,15.002-76.8,40.107V85.335h8.533c42.394-0.051,76.749-34.406,76.8-76.8
	c0-4.71-3.823-8.533-8.533-8.533h-17.067C295.475,0.036,269.116,16.181,256,41.815c-13.116-25.634-39.475-41.779-68.267-41.813
	h-17.067c-4.71,0-8.533,3.823-8.533,8.533c0.051,42.394,34.406,76.749,76.8,76.8h8.533v57.173
	c-17.519-25.105-46.191-40.073-76.8-40.107H153.6c-4.71,0-8.533,3.823-8.533,8.533c0.06,51.814,42.052,93.807,93.867,93.867h8.533
	v30.336c-12.74,1.758-24.559,7.612-33.681,16.674l-86.025,85.521c-7.049,3.405-13.679,7.612-19.763,12.535H0v17.067h102.4v128H0
	v17.067h334.37c11.793,0.017,23.322-3.482,33.126-10.035l128.563-85.709c16.606-11.255,20.941-33.843,9.677-50.449
	C499.089,355.995,488.064,350.047,476.211,349.868z M341.333,119.468h8.055c-4.386,38.844-37.231,68.215-76.322,68.267h-8.055
	C269.397,148.891,302.242,119.519,341.333,119.468z M324.267,17.068h7.927c-4.284,29.372-29.449,51.166-59.127,51.2h-7.927
	C269.423,38.897,294.588,17.111,324.267,17.068z M238.933,68.268c-29.679-0.034-54.844-21.828-59.127-51.2h7.927
	c29.679,0.034,54.844,21.828,59.127,51.2H238.933z M238.933,187.735c-39.091-0.051-71.936-29.423-76.322-68.267h8.055
	c39.091,0.051,71.936,29.423,76.322,68.267H238.933z M225.818,263.912c16.691-16.529,43.605-16.486,60.245,0.094l119.202,119.202
	l-42.812,23.04c9.933-18.739,2.79-41.984-15.949-51.908c-5.538-2.935-11.708-4.471-17.971-4.471h-95.053
	c-20.292-16.427-46.208-24.252-72.201-21.794L225.818,263.912z M486.588,402.058l-128.555,85.709
	c-7.006,4.685-15.241,7.177-23.663,7.168H119.467V362.446c31.172-24.55,75.383-23.526,105.387,2.441
	c1.545,1.323,3.516,2.048,5.547,2.048h98.133c11.785,0,21.333,9.549,21.333,21.333c0,11.785-9.549,21.333-21.333,21.333h-89.6
	c-4.71,0-8.533,3.823-8.533,8.533c0,4.71,3.823,8.533,8.533,8.533H358.4c1.408,0,2.799-0.35,4.045-1.015l104.892-56.482
	c2.731-1.468,5.777-2.236,8.875-2.236c10.453,0.111,18.842,8.678,18.731,19.14c0,0.137-0.009,0.273-0.009,0.401
	C494.942,392.74,491.81,398.594,486.588,402.058z"/>
<path d="M85.333,452.268c0-14.14-11.46-25.6-25.6-25.6s-25.6,11.46-25.6,25.6c0,14.14,11.46,25.6,25.6,25.6
	S85.333,466.408,85.333,452.268L85.333,452.268z M51.2,452.268c0-4.71,3.823-8.533,8.533-8.533s8.533,3.823,8.533,8.533
	c0,4.71-3.823,8.533-8.533,8.533S51.2,456.987,51.2,452.268z"/>
<rect x="221.867" y="290.135" width="17.067" height="17.067"/>
<rect x="281.6" y="298.668" width="17.067" height="17.067"/>
<rect x="247.467" y="315.735" width="17.067" height="17.067"/>
<path d="M58.334,51.082C72.235,53.403,83.132,64.3,85.453,78.201c0.785,4.651,5.188,7.774,9.839,6.989
	c3.584-0.606,6.383-3.413,6.989-6.989c2.321-13.901,13.218-24.798,27.119-27.119c4.651-0.785,7.774-5.188,6.989-9.839
	c-0.606-3.584-3.413-6.383-6.989-6.989c-13.901-2.321-24.798-13.218-27.119-27.119c-0.785-4.651-5.188-7.774-9.839-6.989
	c-3.584,0.606-6.383,3.413-6.989,6.989c-2.321,13.901-13.218,24.798-27.119,27.119c-4.651,0.785-7.774,5.188-6.989,9.839
	C51.951,47.677,54.75,50.476,58.334,51.082z M93.867,30.483c3.328,4.736,7.45,8.858,12.186,12.186
	c-4.736,3.328-8.858,7.45-12.186,12.186c-3.328-4.736-7.45-8.858-12.186-12.186C86.417,39.34,90.539,35.219,93.867,30.483z"/>
<g>
</g>
<g>
</g>
<g>
</g>
<g>
</g>
<g>
</g>
<g>
</g>
<g>
</g>
<g>
</g>
<g>
</g>
<g>
</g>
<g>
</g>
<g>
</g>
<g>
</g>
<g>
</g>
<g>
</g>
</svg>
